<svg version="1.1" id="Layer_1" xmlns="http://www.w3.org/2000/svg" xmlns:xlink="http://www.w3.org/1999/xlink" x="0px" y="0px"
	 width="100%" viewBox="0 0 750 150" enable-background="new 0 0 750 150" xml:space="preserve">
<path fill="none" opacity="1.000000" stroke="#000000" stroke-linecap="round" stroke-linejoin="round" stroke-width="8.000000"
	d="
M477.000000,7.500000 
	C476.874817,11.718703 478.030426,16.222088 474.046753,19.555874 
	C473.538574,19.981112 473.455933,21.186743 473.533112,21.996845 
	C474.189575,28.886799 472.566010,35.643379 472.421844,42.498356 
	C472.136719,56.054749 471.589691,69.522812 466.767242,82.598564 
	C465.089905,87.146614 466.299622,92.843674 466.565369,97.996628 
	C466.766602,101.898117 465.851868,105.625183 464.342621,108.928085 
	C462.548004,112.855461 461.337128,116.691078 460.873016,120.986282 
	C460.558319,123.898659 460.562866,127.165421 458.030731,129.532867 
	C456.739777,130.739853 457.176819,132.729172 457.624481,133.954529 
	C458.544281,136.472397 458.456085,138.961411 458.500000,141.500000 
"/>
<path fill="none" opacity="1.000000" stroke="#000000" stroke-linecap="round" stroke-linejoin="round" stroke-width="8.000000"
	d="
M516.000000,28.500000 
	C519.504272,31.141037 520.694397,34.552540 520.594238,39.002121 
	C520.320496,51.162628 519.755676,63.391510 520.700867,75.484299 
	C521.730042,88.651733 522.438171,101.816055 523.018372,114.999191 
	C523.040649,115.505539 523.193665,116.130692 523.520935,116.480431 
	C528.707642,122.024086 526.235657,129.152145 527.500000,135.500000 
"/>
<path fill="none" opacity="1.000000" stroke="#000000" stroke-linecap="round" stroke-linejoin="round" stroke-width="8.000000"
	d="
M477.500000,16.000000 
	C482.798096,20.096542 482.504639,26.421373 483.385925,32.017963 
	C485.964813,48.395523 486.699219,64.947258 485.894836,81.494888 
	C485.493805,89.745552 485.631287,97.868698 486.974213,106.004257 
	C487.557831,109.539665 488.590332,112.691971 492.000000,114.500000 
"/>
<path fill="none" opacity="1.000000" stroke="#000000" stroke-linecap="round" stroke-linejoin="round" stroke-width="8.000000"
	d="
M515.500000,19.500000 
	C515.780579,24.930370 513.568787,29.631008 512.079651,34.671261 
	C510.268951,40.799873 508.568329,47.690884 509.020996,54.498604 
	C509.569458,62.747044 508.568756,70.714127 504.357788,77.916855 
	C503.673706,79.086937 502.680084,81.080750 502.721619,81.476753 
	C503.768402,91.455711 497.716431,99.470139 495.514221,108.503464 
	C494.617554,112.181580 491.340149,114.931168 491.500000,119.000000 
"/>
<path fill="none" opacity="1.000000" stroke="#000000" stroke-linecap="round" stroke-linejoin="round" stroke-width="8.000000"
	d="
M228.500000,39.000000 
	C224.719681,41.628780 225.321976,45.719326 225.000702,49.500061 
	C224.192032,59.016953 225.787399,68.480667 225.586792,78.001831 
	C225.403931,86.681404 225.356140,95.360863 224.445770,103.994286 
	C224.078506,107.477402 223.184616,110.949837 219.000000,112.000000 
"/>
<path fill="none" opacity="1.000000" stroke="#000000" stroke-linecap="round" stroke-linejoin="round" stroke-width="8.000000"
	d="
M546.000000,47.000000 
	C541.456360,51.283031 542.254333,57.164310 541.577148,62.509773 
	C540.819031,68.494377 541.360229,74.770546 539.368530,80.453926 
	C536.165588,89.593674 533.703247,98.670753 533.835632,108.502213 
	C533.896729,113.037445 531.177979,117.088989 528.000000,120.500000 
"/>
<path fill="none" opacity="1.000000" stroke="#000000" stroke-linecap="round" stroke-linejoin="round" stroke-width="9.000000"
	d="
M627.000000,80.500000 
	C634.151672,81.311493 641.331970,81.005341 648.499878,80.971718 
	C654.857910,80.941895 656.146912,78.959702 654.000061,72.999985 
	C651.626465,66.411240 647.185486,63.169785 641.002319,62.938217 
	C637.107422,62.792351 629.049255,67.290070 627.653870,73.037354 
	C626.162476,79.179909 624.371521,85.425148 626.431580,92.021370 
	C629.950073,103.287094 639.961792,107.929375 649.874695,101.797455 
	C652.921326,99.912888 655.541809,100.136116 658.500000,100.000000 
"/>
<path fill="none" opacity="1.000000" stroke="#000000" stroke-linecap="round" stroke-linejoin="round" stroke-width="8.000000"
	d="
M154.000000,95.500000 
	C152.238953,93.277374 150.550980,91.138664 150.400162,88.004807 
	C150.300781,85.939896 149.243774,83.854309 146.500839,84.014427 
	C141.796524,84.289017 140.533768,80.806877 140.633957,77.504066 
	C140.923584,67.957420 139.382233,58.506752 139.577057,49.001579 
	C139.659683,44.969830 138.171219,42.164387 135.128021,39.849712 
	C130.468689,43.191883 130.168793,48.301697 129.604385,53.012508 
	C128.864120,59.191055 128.480103,65.014603 123.135956,69.656525 
	C119.617813,72.712387 119.289146,77.943459 118.531837,82.505287 
	C117.567070,88.316803 116.906021,94.178322 115.972870,99.995651 
	C115.408821,103.511955 116.413239,107.506653 112.600166,110.144783 
	C111.898331,110.630363 112.500000,113.000000 112.500000,114.500000 
"/>
<path fill="none" opacity="1.000000" stroke="#000000" stroke-linecap="round" stroke-linejoin="round" stroke-width="8.000000"
	d="
M183.500000,91.500000 
	C180.613052,89.596016 179.277542,86.785538 178.469223,83.507591 
	C175.865631,72.949219 173.884949,62.281845 172.501785,51.499771 
	C172.182831,49.013470 171.110321,47.129810 168.498871,46.504719 
	C165.143097,45.701466 164.281738,48.381973 163.566147,50.522118 
	C161.460785,56.818577 161.337189,63.479630 160.543365,70.005280 
	C159.836807,75.813484 159.388107,81.660065 159.043442,87.502563 
	C158.847702,90.820518 157.482407,93.467102 155.526978,96.020660 
	C153.389587,98.811844 154.342422,102.370178 153.674469,105.536804 
	C153.382874,106.919289 152.891434,108.469421 153.000000,110.000000 
"/>
<path fill="none" opacity="1.000000" stroke="#000000" stroke-linecap="round" stroke-linejoin="round" stroke-width="8.000000"
	d="
M183.500000,93.000000 
	C183.172623,90.671127 185.322540,89.633446 186.555405,89.137810 
	C192.491562,86.751350 193.120621,81.762146 193.500626,76.500046 
	C193.995300,69.650002 194.096436,62.761517 195.495819,55.999134 
	C195.528900,55.839314 195.466965,55.658714 195.504898,55.501179 
	C196.228104,52.497082 196.770554,48.834675 200.507492,48.662991 
	C203.802216,48.511620 205.323288,51.893330 205.890503,54.523613 
	C208.680771,67.462166 211.571533,80.380615 213.607101,93.483360 
	C214.639923,100.131546 213.508148,107.519394 218.956711,113.042694 
	C219.290024,113.380569 219.000000,114.333336 219.000000,115.000000 
"/>
<path fill="none" opacity="1.000000" stroke="#000000" stroke-linecap="round" stroke-linejoin="round" stroke-width="8.000000"
	d="
M585.000000,117.000000 
	C584.945984,114.644829 584.578430,112.679703 583.187012,110.386528 
	C579.267151,103.926369 579.640747,96.252296 579.109985,88.991959 
	C578.600952,82.029175 579.206055,74.991920 578.931946,68.002670 
	C578.728821,62.823303 577.901978,57.668243 571.922302,55.270061 
	C567.842407,58.221722 567.651245,62.843307 566.503296,67.000916 
	C564.880920,72.877098 564.617126,79.270279 560.000000,84.000000 
"/>
<path fill="none" opacity="1.000000" stroke="#000000" stroke-linecap="round" stroke-linejoin="round" stroke-width="13.000000"
	d="
M734.000000,102.000000 
	C734.000000,93.500000 733.972412,84.999870 734.011230,76.500053 
	C734.031555,72.037285 734.211304,67.441490 728.985046,65.541061 
	C724.394043,63.871616 719.818542,64.766655 716.085571,67.612282 
	C713.543213,69.550339 711.058228,70.544106 708.000000,70.500000 
"/>
<path fill="none" opacity="1.000000" stroke="#000000" stroke-linecap="round" stroke-linejoin="round" stroke-width="12.000000"
	d="
M421.500000,43.500000 
	C421.333344,63.000000 421.166656,82.500000 421.000000,102.000000 
"/>
<path fill="none" opacity="1.000000" stroke="#000000" stroke-linecap="round" stroke-linejoin="round" stroke-width="8.000000"
	d="
M85.000000,81.500000 
	C78.716942,80.865768 73.006470,83.083649 67.543480,85.594589 
	C61.849308,88.211777 59.634995,95.401588 62.499996,100.000000 
	C65.694450,105.127197 72.338226,105.953392 78.011742,102.016922 
	C80.258026,100.458389 82.380836,98.452095 85.500000,99.000000 
"/>
<path fill="none" opacity="1.000000" stroke="#000000" stroke-linecap="round" stroke-linejoin="round" stroke-width="8.000000"
	d="
M228.249985,36.000000 
	C228.333328,36.500000 228.249985,37.304916 228.524582,37.455002 
	C234.073441,40.487984 233.780701,45.608372 234.168167,50.987888 
	C234.711334,58.529243 235.488403,66.129257 237.490494,73.502579 
	C238.255737,76.320877 238.839523,79.197777 241.496292,81.005447 
	C243.326309,82.250565 242.986572,84.187363 243.000000,86.000000 
"/>
<path fill="none" opacity="1.000000" stroke="#000000" stroke-linecap="round" stroke-linejoin="round" stroke-width="9.000000"
	d="
M280.000000,81.000000 
	C287.333344,81.000000 294.668335,81.096100 301.999451,80.968445 
	C307.490570,80.872818 309.464111,78.001930 307.466339,73.013489 
	C305.298401,67.600342 301.768555,63.513016 295.497559,63.031689 
	C289.723969,62.588535 282.351257,66.979027 280.699188,73.054161 
	C279.183990,78.625809 277.519318,84.649086 279.084930,90.477188 
	C282.942841,104.838470 294.621613,108.414207 306.000000,100.000000 
"/>
<path fill="none" opacity="1.000000" stroke="#000000" stroke-linecap="round" stroke-linejoin="round" stroke-width="12.000000"
	d="
M18.500000,43.500000 
	C18.333334,63.000000 18.166666,82.500000 18.000000,102.000000 
"/>
<path fill="none" opacity="1.000000" stroke="#000000" stroke-linecap="round" stroke-linejoin="round" stroke-width="8.000000"
	d="
M612.500000,61.500000 
	C612.500000,62.000000 612.714233,62.757698 612.468445,62.962044 
	C607.142029,67.390289 607.307800,73.422470 607.469299,79.500816 
	C607.508972,80.995323 607.693970,82.901840 606.909607,83.931183 
	C603.300537,88.667671 604.237488,93.786026 604.937256,99.008408 
	C605.108276,100.285316 604.500000,101.666664 604.250000,103.000000 
"/>
<path fill="none" opacity="1.000000" stroke="#000000" stroke-linecap="round" stroke-linejoin="round" stroke-width="12.000000"
	d="
M403.500000,41.500000 
	C396.394135,42.615314 392.532135,47.105392 392.512848,54.500034 
	C392.471069,70.499924 392.500000,86.500000 392.500000,102.500000 
"/>
<path fill="none" opacity="1.000000" stroke="#000000" stroke-linecap="round" stroke-linejoin="round" stroke-width="12.000000"
	d="
M447.500000,66.500000 
	C447.146271,78.497841 448.298492,90.527054 446.750000,102.500000 
"/>
<path fill="none" opacity="1.000000" stroke="#000000" stroke-linecap="round" stroke-linejoin="round" stroke-width="11.000000"
	d="
M95.750000,102.000000 
	C95.515724,105.396538 92.795761,104.884735 91.032722,104.384644 
	C87.826279,103.475166 85.747673,101.421928 85.939270,97.497032 
	C86.313026,89.840477 86.425209,82.167267 86.475800,74.499840 
	C86.533798,65.710770 80.339127,61.703346 72.000374,65.000938 
	C70.331116,65.661049 68.275322,65.928368 67.080360,67.083153 
	C64.483589,69.592598 61.696251,69.875732 58.500000,69.000000 
"/>
<path fill="none" opacity="1.000000" stroke="#000000" stroke-linecap="round" stroke-linejoin="round" stroke-width="8.000000"
	d="
M594.500000,72.500000 
	C596.199524,78.189163 591.934204,82.669800 591.289734,87.974457 
	C590.641968,93.306786 590.049011,98.667389 589.622192,104.009766 
	C589.345215,107.477386 588.084045,109.958679 585.500000,112.000000 
"/>
<path fill="none" opacity="1.000000" stroke="#000000" stroke-linecap="round" stroke-linejoin="round" stroke-width="13.000000"
	d="
M706.500000,66.500000 
	C708.564697,71.166664 706.426819,75.857437 706.298401,80.494415 
	C706.099854,87.663734 706.190857,94.833893 706.000000,102.000000 
"/>
<path fill="none" opacity="1.000000" stroke="#000000" stroke-linecap="round" stroke-linejoin="round" stroke-width="8.000000"
	d="
M546.250000,39.500000 
	C545.971863,43.831635 548.171692,47.259850 549.683350,51.123875 
	C552.497620,58.317604 554.464783,66.048294 554.496582,74.000015 
	C554.512329,77.940392 555.197327,81.393951 557.157715,85.177368 
	C559.066406,88.861053 558.234863,93.996376 558.474243,98.501373 
	C558.615479,101.160530 558.500000,103.833336 558.500000,106.500000 
"/>
<path fill="none" opacity="1.000000" stroke="#000000" stroke-linecap="round" stroke-linejoin="round" stroke-width="12.000000"
	d="
M328.500000,66.500000 
	C329.685760,78.352379 327.728790,90.160500 328.000000,102.000000 
"/>
<path fill="none" opacity="1.000000" stroke="#000000" stroke-linecap="round" stroke-linejoin="round" stroke-width="13.000000"
	d="
M675.500000,66.500000 
	C675.333313,78.333336 675.166626,90.166664 675.000000,102.000000 
"/>
<path fill="none" opacity="1.000000" stroke="#000000" stroke-linecap="round" stroke-linejoin="round" stroke-width="9.000000"
	d="
M374.000000,113.000000 
	C365.666656,113.000000 357.333344,113.000000 349.000000,113.000000 
"/>
<path fill="none" opacity="1.000000" stroke="#000000" stroke-linecap="round" stroke-linejoin="round" stroke-width="8.000000"
	d="
M451.000000,112.000000 
	C451.207123,118.597626 450.765015,125.411667 457.000000,130.000000 
"/>
<path fill="none" opacity="1.000000" stroke="#000000" stroke-linecap="round" stroke-linejoin="round" stroke-width="10.000000"
	d="
M44.000000,58.500000 
	C45.364193,63.399178 43.775864,67.154648 40.068821,70.574600 
	C37.223141,73.199905 35.165020,76.659882 32.455326,79.456718 
	C29.525093,82.481186 30.443035,85.225197 32.521908,87.983490 
	C34.588547,90.725540 36.893566,93.287003 38.987633,96.009514 
	C43.537289,101.924553 43.509560,101.945877 43.000000,109.500000 
"/>
<path fill="none" opacity="1.000000" stroke="#000000" stroke-linecap="round" stroke-linejoin="round" stroke-width="8.000000"
	d="
M692.000000,62.000000 
	C687.531982,66.259987 683.712036,71.445778 677.000000,72.500000 
"/>
<path fill="none" opacity="1.000000" stroke="#000000" stroke-linecap="round" stroke-linejoin="round" stroke-width="7.000000"
	d="
M345.000000,62.000000 
	C340.576294,66.323288 336.995850,71.851212 330.000000,72.500000 
"/>
<path fill="none" opacity="1.000000" stroke="#000000" stroke-linecap="round" stroke-linejoin="round" stroke-width="4.000000"
	d="
M30.000000,83.500000 
	C26.166666,83.500000 22.333334,83.500000 18.500000,83.500000 
"/>
<path fill="none" opacity="1.000000" stroke="#000000" stroke-linecap="round" stroke-linejoin="round" stroke-width="8.000000"
	d="
M248.500000,75.000000 
	C248.900299,78.779762 253.010330,82.052010 254.503738,82.064812 
	C260.495605,82.116188 261.771973,87.119247 265.000000,90.000000 
"/>
<path fill="none" opacity="1.000000" stroke="#000000" stroke-linecap="round" stroke-linejoin="round" stroke-width="9.000000"
	d="
M404.000000,65.000000 
	C397.000000,65.002167 390.000000,63.868446 383.000000,65.000000 
"/>
<path fill="none" opacity="1.000000" stroke="#000000" stroke-linecap="round" stroke-linejoin="round" stroke-width="3.000000"
	d="
M44.500000,103.000000 
	C46.833332,103.333336 49.166668,103.666672 51.500000,104.000000 
"/>
<path fill="none" opacity="1.000000" stroke="#000000" stroke-linecap="round" stroke-linejoin="round" stroke-width="3.000000"
	d="
M51.500000,64.499992 
	C49.333332,64.666664 47.166668,64.833328 45.000000,64.999992 
"/>
</svg>