<?xml version="1.0" standalone="no"?>
<!DOCTYPE svg PUBLIC "-//W3C//DTD SVG 20010904//EN"
 "http://www.w3.org/TR/2001/REC-SVG-20010904/DTD/svg10.dtd">
<svg version="1.0" xmlns="http://www.w3.org/2000/svg"
 width="612.000000pt" height="612.000000pt" viewBox="0 0 612.000000 612.000000"
 preserveAspectRatio="xMidYMid meet">

<g transform="translate(0.000000,612.000000) scale(0.100000,-0.100000)"
fill="#000000" stroke="none">
<path d="M3355 5130 c-3 -6 1 -7 9 -4 18 7 21 14 7 14 -6 0 -13 -4 -16 -10z"/>
<path d="M3320 5076 c0 -2 8 -10 18 -17 15 -13 16 -12 3 4 -13 16 -21 21 -21
13z"/>
<path d="M3707 5049 c7 -7 15 -10 18 -7 3 3 -2 9 -12 12 -14 6 -15 5 -6 -5z"/>
<path d="M3527 5039 c7 -7 15 -10 18 -7 3 3 -2 9 -12 12 -14 6 -15 5 -6 -5z"/>
<path d="M3366 5025 c-11 -8 -15 -15 -9 -15 6 0 16 7 23 15 16 19 11 19 -14 0z"/>
<path d="M3628 4963 c7 -3 16 -2 19 1 4 3 -2 6 -13 5 -11 0 -14 -3 -6 -6z"/>
<path d="M3037 4949 c7 -7 15 -10 18 -7 3 3 -2 9 -12 12 -14 6 -15 5 -6 -5z"/>
<path d="M3503 4943 c9 -2 23 -2 30 0 6 3 -1 5 -18 5 -16 0 -22 -2 -12 -5z"/>
<path d="M3443 4933 c9 -2 23 -2 30 0 6 3 -1 5 -18 5 -16 0 -22 -2 -12 -5z"/>
<path d="M3358 4923 c12 -2 30 -2 40 0 9 3 -1 5 -23 4 -22 0 -30 -2 -17 -4z"/>
<path d="M3268 4913 c12 -2 30 -2 40 0 9 3 -1 5 -23 4 -22 0 -30 -2 -17 -4z"/>
<path d="M3178 4903 c12 -2 30 -2 40 0 9 3 -1 5 -23 4 -22 0 -30 -2 -17 -4z"/>
<path d="M2138 4893 c7 -3 16 -2 19 1 4 3 -2 6 -13 5 -11 0 -14 -3 -6 -6z"/>
<path d="M3078 4893 c12 -2 32 -2 45 0 12 2 2 4 -23 4 -25 0 -35 -2 -22 -4z"/>
<path d="M2968 4883 c12 -2 30 -2 40 0 9 3 -1 5 -23 4 -22 0 -30 -2 -17 -4z"/>
<path d="M2858 4873 c12 -2 32 -2 45 0 12 2 2 4 -23 4 -25 0 -35 -2 -22 -4z"/>
<path d="M2758 4863 c12 -2 32 -2 45 0 12 2 2 4 -23 4 -25 0 -35 -2 -22 -4z"/>
<path d="M2658 4853 c12 -2 32 -2 45 0 12 2 2 4 -23 4 -25 0 -35 -2 -22 -4z"/>
<path d="M2508 4836 c-32 -7 -61 -16 -65 -20 -5 -5 3 -5 16 -1 13 4 58 13 100
20 42 7 60 13 41 13 -19 0 -61 -5 -92 -12z"/>
<path d="M2398 4804 c-38 -20 -36 -28 2 -9 17 9 30 18 30 20 0 7 -1 6 -32 -11z"/>
<path d="M1589 4723 c28 -55 267 -127 616 -187 343 -59 685 -102 1285 -161
659 -65 851 -101 953 -179 59 -45 76 -54 54 -29 -9 11 -15 23 -12 26 3 4 2 5
-2 2 -3 -3 -21 6 -39 20 -18 14 -37 25 -42 25 -6 0 -12 5 -14 11 -2 6 -15 13
-28 14 -14 2 -70 14 -125 28 -55 14 -129 29 -165 33 -36 4 -72 8 -80 10 -43 6
-300 35 -400 44 -63 6 -135 13 -160 15 -25 3 -67 7 -95 9 -106 9 -445 47 -560
62 -219 29 -540 75 -556 80 -9 2 -54 11 -100 19 -191 33 -464 109 -453 126 2
4 -5 13 -17 19 -15 8 -19 9 -15 1 12 -19 -6 -12 -32 12 -25 22 -25 22 -13 0z"/>
<path d="M1958 4733 c7 -3 16 -2 19 1 4 3 -2 6 -13 5 -11 0 -14 -3 -6 -6z"/>
<path d="M2315 4660 c-3 -6 1 -7 9 -4 18 7 21 14 7 14 -6 0 -13 -4 -16 -10z"/>
<path d="M3398 4453 c7 -3 16 -2 19 1 4 3 -2 6 -13 5 -11 0 -14 -3 -6 -6z"/>
<path d="M4668 4393 c7 -3 16 -2 19 1 4 3 -2 6 -13 5 -11 0 -14 -3 -6 -6z"/>
<path d="M4688 4333 c7 -3 16 -2 19 1 4 3 -2 6 -13 5 -11 0 -14 -3 -6 -6z"/>
<path d="M5028 4063 c7 -3 16 -2 19 1 4 3 -2 6 -13 5 -11 0 -14 -3 -6 -6z"/>
<path d="M5562 3978 c-7 -7 -12 -19 -12 -27 0 -8 -3 -11 -7 -8 -3 4 -12 -1
-18 -10 -11 -15 -15 -15 -31 -3 -16 12 -17 12 -6 0 17 -20 15 -35 -3 -20 -13
11 -14 10 -10 -2 6 -16 -71 -62 -87 -51 -6 3 -8 1 -5 -5 4 -6 -11 -16 -35 -25
-24 -9 -94 -34 -157 -57 -68 -24 -121 -38 -134 -34 -12 4 -17 2 -13 -4 8 -13
-79 -35 -107 -27 -17 5 -18 4 -8 -4 11 -7 5 -11 -25 -16 -21 -4 -52 -11 -69
-15 -154 -43 -334 -82 -350 -76 -9 3 -14 2 -11 -3 3 -5 -43 -19 -102 -31 -59
-12 -113 -25 -121 -28 -8 -3 -12 -1 -8 5 4 6 -10 2 -31 -9 -25 -13 -49 -18
-77 -14 -22 2 -31 2 -20 -1 12 -4 -48 -23 -150 -49 -93 -24 -179 -40 -190 -37
-11 3 -17 2 -12 -3 6 -6 -105 -44 -173 -59 -35 -8 -336 -116 -387 -139 -30
-14 -59 -23 -64 -20 -5 3 -9 1 -9 -3 0 -12 -91 -57 -109 -54 -8 1 -10 -2 -5
-10 5 -9 2 -10 -10 -6 -11 5 -15 3 -10 -5 5 -8 2 -9 -9 -5 -10 4 -16 2 -14 -4
1 -6 -13 -19 -30 -28 -18 -10 -29 -22 -25 -26 4 -5 -1 -5 -10 -2 -10 3 -17 3
-15 -1 3 -11 -74 -87 -85 -84 -5 1 -7 -2 -4 -7 3 -5 -1 -26 -9 -47 -9 -24 -10
-32 -2 -20 74 110 140 163 312 249 241 120 629 241 1145 357 876 198 1176 294
1286 412 37 39 61 91 26 56z"/>
<path d="M3908 3933 c7 -3 16 -2 19 1 4 3 -2 6 -13 5 -11 0 -14 -3 -6 -6z"/>
<path d="M4874 3919 c-3 -6 -2 -15 3 -20 5 -5 9 -1 9 11 0 23 -2 24 -12 9z"/>
<path d="M3238 3743 c7 -3 16 -2 19 1 4 3 -2 6 -13 5 -11 0 -14 -3 -6 -6z"/>
<path d="M4268 3743 c7 -3 16 -2 19 1 4 3 -2 6 -13 5 -11 0 -14 -3 -6 -6z"/>
<path d="M4588 3693 c7 -3 16 -2 19 1 4 3 -2 6 -13 5 -11 0 -14 -3 -6 -6z"/>
<path d="M4888 3693 c7 -3 16 -2 19 1 4 3 -2 6 -13 5 -11 0 -14 -3 -6 -6z"/>
<path d="M4218 3593 c7 -3 16 -2 19 1 4 3 -2 6 -13 5 -11 0 -14 -3 -6 -6z"/>
<path d="M2313 3505 c0 -8 4 -12 9 -9 5 3 6 10 3 15 -9 13 -12 11 -12 -6z"/>
<path d="M1979 3462 c9 -7 10 -11 2 -15 -7 -4 -8 -5 0 -3 15 2 13 20 -3 24
-10 3 -10 2 1 -6z"/>
<path d="M2095 3430 c3 -5 8 -10 11 -10 2 0 4 5 4 10 0 6 -5 10 -11 10 -5 0
-7 -4 -4 -10z"/>
<path d="M1798 3383 c7 -3 16 -2 19 1 4 3 -2 6 -13 5 -11 0 -14 -3 -6 -6z"/>
<path d="M2137 3017 c-3 -8 1 -14 8 -14 7 0 11 6 8 14 -3 7 -6 13 -8 13 -2 0
-5 -6 -8 -13z"/>
<path d="M2790 3016 c0 -2 8 -10 18 -17 15 -13 16 -12 3 4 -13 16 -21 21 -21
13z"/>
<path d="M2581 2804 c0 -11 3 -14 6 -6 3 7 2 16 -1 19 -3 4 -6 -2 -5 -13z"/>
<path d="M2731 2774 c0 -11 3 -14 6 -6 3 7 2 16 -1 19 -3 4 -6 -2 -5 -13z"/>
<path d="M1240 2537 c0 -16 48 -144 71 -191 95 -191 325 -417 634 -623 551
-367 1568 -810 3055 -1330 274 -96 1112 -383 1117 -383 2 0 3 12 1 28 -3 24
-11 30 -66 48 -34 11 -60 22 -58 25 2 2 -12 5 -32 6 -20 1 -38 7 -40 13 -2 5
-8 8 -13 4 -5 -3 -9 -1 -9 5 0 5 -8 9 -17 9 -21 -1 -263 79 -279 93 -6 5 -13
6 -16 4 -7 -7 -118 34 -138 50 -8 7 -20 10 -27 8 -9 -3 -141 38 -203 64 -8 3
-19 7 -25 9 -51 16 -207 73 -212 78 -3 3 -17 6 -30 6 -13 0 -21 4 -18 10 3 5
0 7 -7 5 -8 -3 -54 10 -103 30 -50 19 -96 35 -103 35 -7 0 -10 5 -6 12 4 7 3
8 -5 4 -10 -7 -171 43 -216 67 -11 6 -24 12 -30 12 -31 3 -64 19 -58 28 3 6 1
7 -6 3 -12 -8 -81 14 -81 26 0 4 -7 4 -17 1 -11 -4 -14 -3 -9 5 4 7 2 10 -6 7
-14 -5 -247 81 -301 111 -16 9 -31 14 -34 11 -9 -10 -63 15 -56 26 3 6 1 7 -5
3 -6 -4 -22 -1 -34 6 -13 6 -27 13 -33 13 -5 1 -23 5 -38 9 -22 7 -26 11 -15
18 9 7 7 8 -8 3 -19 -5 -62 10 -199 71 -22 9 -42 18 -45 18 -6 2 -56 21 -150
58 -41 17 -78 35 -81 40 -3 5 -8 8 -10 6 -9 -7 -88 26 -82 35 3 6 1 7 -4 4
-14 -9 -165 57 -155 68 4 4 2 5 -5 1 -7 -4 -20 -2 -30 3 -41 22 -110 51 -122
51 -7 0 -9 4 -6 10 4 6 -1 7 -11 3 -12 -4 -15 -3 -10 5 4 8 2 10 -7 6 -8 -3
-21 1 -28 8 -8 7 -19 14 -24 15 -29 5 -154 71 -148 78 5 4 3 5 -4 1 -14 -7
-164 64 -157 75 2 4 -1 11 -7 15 -8 4 -9 3 -5 -4 12 -20 -3 -14 -103 40 -53
28 -108 57 -124 65 -15 8 -25 19 -22 24 4 5 0 7 -7 4 -14 -5 -241 129 -233
137 3 3 -1 5 -8 5 -7 0 -31 12 -54 27 -29 19 -40 33 -36 44 3 11 2 13 -4 5 -6
-8 -24 -1 -66 26 -31 21 -53 41 -49 45 4 4 0 6 -8 4 -8 -2 -14 3 -12 10 1 8
-2 11 -7 8 -13 -8 -66 38 -219 192 -83 83 -131 139 -128 148 3 7 0 13 -6 11
-11 -2 -46 52 -43 68 1 6 0 7 -2 3 -3 -5 -16 13 -29 38 -13 25 -22 50 -19 55
4 5 2 9 -4 9 -5 0 -17 23 -26 50 -14 41 -25 62 -25 47z"/>
<path d="M2098 2503 c7 -3 16 -2 19 1 4 3 -2 6 -13 5 -11 0 -14 -3 -6 -6z"/>
<path d="M2150 2376 c0 -2 8 -10 18 -17 15 -13 16 -12 3 4 -13 16 -21 21 -21
13z"/>
<path d="M2295 2340 c10 -11 20 -20 23 -20 3 0 -3 9 -13 20 -10 11 -20 20 -23
20 -3 0 3 -9 13 -20z"/>
<path d="M1620 2230 c0 -5 5 -10 11 -10 5 0 7 5 4 10 -3 6 -8 10 -11 10 -2 0
-4 -4 -4 -10z"/>
<path d="M1520 2221 c0 -6 4 -13 10 -16 6 -3 7 1 4 9 -7 18 -14 21 -14 7z"/>
<path d="M2617 2019 c7 -7 15 -10 18 -7 3 3 -2 9 -12 12 -14 6 -15 5 -6 -5z"/>
<path d="M4872 1781 c-11 -6 -10 -10 4 -15 9 -3 19 -4 22 -1 3 3 -1 5 -9 5
-11 0 -11 2 1 10 8 5 11 10 5 10 -5 0 -16 -4 -23 -9z"/>
<path d="M2355 1690 c-3 -6 1 -7 9 -4 18 7 21 14 7 14 -6 0 -13 -4 -16 -10z"/>
<path d="M5838 1573 c7 -3 16 -2 19 1 4 3 -2 6 -13 5 -11 0 -14 -3 -6 -6z"/>
<path d="M2678 1533 c7 -3 16 -2 19 1 4 3 -2 6 -13 5 -11 0 -14 -3 -6 -6z"/>
<path d="M6068 1363 c7 -3 16 -2 19 1 4 3 -2 6 -13 5 -11 0 -14 -3 -6 -6z"/>
<path d="M2877 1339 c7 -7 15 -10 18 -7 3 3 -2 9 -12 12 -14 6 -15 5 -6 -5z"/>
<path d="M3837 1029 c7 -7 15 -10 18 -7 3 3 -2 9 -12 12 -14 6 -15 5 -6 -5z"/>
</g>
</svg>
