<?xml version="1.0" standalone="no"?>
<!DOCTYPE svg PUBLIC "-//W3C//DTD SVG 20010904//EN"
 "http://www.w3.org/TR/2001/REC-SVG-20010904/DTD/svg10.dtd">
<svg version="1.0" xmlns="http://www.w3.org/2000/svg"
 width="1920.000000pt" height="1080.000000pt" viewBox="0 0 1920.000000 1080.000000"
 preserveAspectRatio="xMidYMid meet">

<g transform="translate(0.000000,1080.000000) scale(0.100000,-0.100000)"
fill="#000000" stroke="none">
<path d="M12234 10697 c-425 -612 -688 -1320 -781 -2102 -25 -210 -25 -745 0
-963 92 -809 373 -1547 833 -2183 204 -283 569 -671 819 -871 695 -556 1451
-876 2340 -990 157 -20 223 -23 515 -22 457 0 729 31 1110 125 681 170 1286
477 1830 928 63 53 157 136 208 185 l92 89 0 750 0 751 -67 -117 c-233 -404
-577 -790 -963 -1081 -525 -395 -1125 -632 -1805 -712 -178 -21 -548 -24 -730
-5 -729 73 -1375 337 -1950 795 -132 105 -438 413 -549 551 -374 468 -632
1032 -741 1621 -41 221 -57 417 -58 684 0 419 59 773 195 1170 177 513 462
971 852 1368 l130 132 -604 0 -605 0 -71 -103z"/>
<path d="M18591 10652 c79 -81 184 -197 233 -257 93 -116 267 -373 330 -487
21 -38 40 -68 42 -68 2 0 4 216 4 480 l0 480 -376 0 -377 0 144 -148z"/>
</g>
</svg>
