<?xml version="1.0" encoding="utf-8"?>
<!-- Generator: Adobe Illustrator 27.3.1, SVG Export Plug-In . SVG Version: 6.00 Build 0)  -->
<svg version="1.1" id="Ebene_1" xmlns="http://www.w3.org/2000/svg" xmlns:xlink="http://www.w3.org/1999/xlink" x="0px" y="0px"
	 viewBox="0 0 500 500" style="enable-background:new 0 0 500 500;" xml:space="preserve">
<style type="text/css">
	.st0{fill:#1D1D1B;stroke:#1D1D1B;stroke-width:5;stroke-miterlimit:10;}
	.st1{fill:#FFFFFF;stroke:#1D1D1B;stroke-width:5;stroke-miterlimit:10;}
</style>
<rect x="303.82" y="234.28" class="st0" width="93.45" height="227.89"/>
<path class="st1" d="M449.54,271.7H50.46c-14.91,0-27-12.09-27-27V65.34c0-14.91,12.09-27,27-27h399.08c14.91,0,27,12.09,27,27
	V244.7C476.54,259.61,464.45,271.7,449.54,271.7z"/>
<path class="st0" d="M429.81,250.51H70.19c-14.32,0-25.92-11.61-25.92-25.92V85.46c0-14.32,11.61-25.92,25.92-25.92h359.61
	c14.32,0,25.92,11.61,25.92,25.92v139.13C455.73,238.9,444.12,250.51,429.81,250.51z"/>
<polygon class="st1" points="100.61,250.49 194.25,59.53 231.78,59.53 130.49,250.52 "/>
</svg>
