<?xml version="1.0" standalone="no"?>
<!DOCTYPE svg PUBLIC "-//W3C//DTD SVG 20010904//EN"
 "http://www.w3.org/TR/2001/REC-SVG-20010904/DTD/svg10.dtd">
<svg version="1.0" xmlns="http://www.w3.org/2000/svg"
 width="800.000000pt" height="533.000000pt" viewBox="0 0 800.000000 533.000000"
 preserveAspectRatio="xMidYMid meet">

<g transform="translate(0.000000,533.000000) scale(0.100000,-0.100000)"
fill="#000000" stroke="none">
<path d="M4960 5014 c0 -8 5 -12 10 -9 6 4 8 11 5 16 -9 14 -15 11 -15 -7z"/>
<path d="M5015 4920 c3 -5 8 -10 11 -10 2 0 4 5 4 10 0 6 -5 10 -11 10 -5 0
-7 -4 -4 -10z"/>
<path d="M5034 4879 c-13 -25 -14 -37 -5 -57 7 -13 9 -27 7 -30 -3 -3 -9 5
-14 17 -8 22 -9 22 -23 5 -7 -10 -9 -15 -3 -11 19 11 37 -18 21 -34 -22 -23
-26 -46 -12 -67 8 -10 11 -23 7 -27 -4 -5 -2 -5 5 -1 8 4 9 14 4 29 -6 16 -3
26 16 40 13 11 20 24 16 30 -13 22 -10 45 5 39 9 -3 13 0 11 7 -3 7 -8 12 -13
11 -18 -4 -24 25 -10 52 8 15 12 28 10 28 -3 0 -13 -14 -22 -31z"/>
<path d="M4898 4723 c7 -3 16 -2 19 1 4 3 -2 6 -13 5 -11 0 -14 -3 -6 -6z"/>
<path d="M4993 4660 c0 -19 -3 -42 -8 -50 -6 -10 -2 -10 12 3 11 9 23 14 26
10 4 -3 7 -1 7 5 0 6 -6 15 -14 19 -8 4 -16 17 -19 28 -3 11 -5 4 -4 -15z"/>
<path d="M4945 4650 c-3 -5 -2 -10 4 -10 5 0 13 5 16 10 3 6 2 10 -4 10 -5 0
-13 -4 -16 -10z"/>
<path d="M5015 4600 c3 -5 8 -10 11 -10 2 0 4 5 4 10 0 6 -5 10 -11 10 -5 0
-7 -4 -4 -10z"/>
<path d="M4985 4579 c-5 -6 -1 -16 9 -21 23 -13 20 -28 -5 -28 -18 0 -19 -2
-9 -15 10 -12 10 -18 1 -29 -7 -8 -8 -17 -3 -20 11 -7 40 63 38 94 -1 26 -20
37 -31 19z"/>
<path d="M4760 4550 c-9 -6 -10 -10 -3 -10 6 0 15 5 18 10 8 12 4 12 -15 0z"/>
<path d="M4714 4514 c-18 -14 -18 -15 4 -4 12 6 22 13 22 15 0 8 -5 6 -26 -11z"/>
<path d="M4795 4480 c3 -5 8 -10 11 -10 2 0 4 5 4 10 0 6 -5 10 -11 10 -5 0
-7 -4 -4 -10z"/>
<path d="M4875 4460 c3 -5 8 -10 11 -10 2 0 4 5 4 10 0 6 -5 10 -11 10 -5 0
-7 -4 -4 -10z"/>
<path d="M4927 4453 c-4 -3 -7 -11 -7 -17 0 -6 5 -5 12 2 6 6 9 14 7 17 -3 3
-9 2 -12 -2z"/>
<path d="M4955 4420 c3 -5 14 -10 23 -10 15 0 15 2 2 10 -20 13 -33 13 -25 0z"/>
<path d="M4996 4374 c-3 -8 -14 -14 -25 -14 -28 0 -42 -31 -36 -80 5 -36 2
-45 -23 -68 -35 -33 -52 -63 -52 -92 0 -16 4 -20 19 -15 11 3 22 1 26 -5 3 -5
11 -10 16 -10 6 0 8 4 5 9 -9 13 22 34 39 27 9 -3 14 -2 11 2 -2 4 4 19 15 32
l19 25 0 -25 c0 -35 -24 -67 -71 -90 -21 -11 -39 -18 -39 -15 0 4 -9 0 -20 -8
-35 -24 -93 -110 -139 -205 -43 -88 -44 -91 -27 -117 9 -14 21 -23 26 -20 5 3
12 0 15 -6 4 -5 14 -7 24 -3 9 4 33 7 55 8 28 1 42 7 50 21 6 11 17 24 24 28
7 4 23 29 36 56 21 41 22 48 10 57 -19 11 -8 44 15 44 14 0 14 -2 1 -10 -11
-7 -12 -12 -4 -20 8 -8 19 2 40 37 16 26 34 63 40 80 19 54 42 81 73 88 37 8
53 27 76 90 10 28 22 54 26 59 5 6 9 24 9 41 0 26 -7 35 -42 56 -63 36 -88 40
-122 24 -37 -19 -36 -19 -36 4 0 23 -26 35 -34 15z m168 -46 c28 -40 18 -51
-19 -22 -19 14 -35 30 -35 35 0 18 39 8 54 -13z m-118 -95 c-2 -10 -10 -19
-20 -21 -18 -4 -18 18 -1 30 6 5 5 8 -2 8 -7 0 -13 5 -13 10 0 7 6 7 19 0 11
-5 18 -18 17 -27z m131 -5 c-3 -7 -5 -2 -5 12 0 14 2 19 5 13 2 -7 2 -19 0
-25z m-177 7 c0 -8 -4 -15 -10 -15 -5 0 -10 7 -10 15 0 8 5 15 10 15 6 0 10
-7 10 -15z m153 -74 c-22 -30 -131 -106 -140 -97 -9 8 16 34 40 42 34 10 95
62 103 87 5 14 9 17 12 8 2 -7 -4 -25 -15 -40z m-263 -169 c0 -4 -5 -13 -11
-19 -6 -6 -13 -42 -16 -82 -6 -80 2 -88 44 -43 18 18 24 21 20 9 -4 -10 -7
-23 -7 -27 0 -21 -43 -48 -71 -45 -22 3 -29 0 -29 -13 0 -19 -53 -56 -64 -45
-15 16 -5 71 19 97 14 15 25 32 25 39 0 33 23 87 46 111 27 26 44 33 44 18z"/>
<path d="M4790 4320 c-8 -5 -12 -12 -9 -15 4 -3 12 1 19 10 14 17 11 19 -10 5z"/>
<path d="M4735 4294 c-9 -9 -13 -19 -10 -22 3 -3 14 4 25 16 24 25 10 30 -15
6z"/>
<path d="M3670 4280 c-8 -5 -12 -11 -9 -14 3 -3 14 1 25 9 21 16 8 20 -16 5z"/>
<path d="M4680 4280 c0 -5 4 -10 9 -10 6 0 13 5 16 10 3 6 -1 10 -9 10 -9 0
-16 -4 -16 -10z"/>
<path d="M4807 4263 c-4 -3 -7 -11 -7 -17 0 -6 5 -5 12 2 6 6 9 14 7 17 -3 3
-9 2 -12 -2z"/>
<path d="M3675 4250 c-4 -6 -11 -8 -16 -5 -5 4 -9 2 -9 -4 0 -5 9 -9 19 -8 11
0 18 4 15 8 -2 4 2 10 8 12 9 4 10 6 1 6 -6 1 -15 -4 -18 -9z"/>
<path d="M3752 4240 c-10 -11 -25 -32 -32 -45 -13 -24 -11 -28 19 -55 52 -48
76 -38 33 13 -10 12 -11 17 -3 17 8 0 7 7 -4 22 -14 21 -14 24 6 39 14 10 18
19 11 23 -6 3 -19 -3 -30 -14z"/>
<path d="M3780 4227 c0 -3 7 -18 15 -33 l16 -29 -3 29 c-2 16 -9 31 -15 34 -7
2 -13 2 -13 -1z"/>
<path d="M4815 4220 c-3 -5 -1 -10 4 -10 6 0 11 5 11 10 0 6 -2 10 -4 10 -3 0
-8 -4 -11 -10z"/>
<path d="M4658 4203 c7 -3 16 -2 19 1 4 3 -2 6 -13 5 -11 0 -14 -3 -6 -6z"/>
<path d="M5400 4200 c-9 -6 -2 -11 24 -15 20 -4 39 -5 42 -2 9 9 -53 25 -66
17z"/>
<path d="M3343 4170 c-1 -11 0 -20 2 -20 2 0 9 9 15 20 8 15 8 20 -3 20 -7 0
-13 -9 -14 -20z"/>
<path d="M4837 4183 c-4 -3 -7 -11 -7 -17 0 -6 5 -5 12 2 6 6 9 14 7 17 -3 3
-9 2 -12 -2z"/>
<path d="M5330 4170 c-8 -5 -15 -21 -15 -37 -1 -18 -9 -31 -23 -38 -26 -12
-24 -26 6 -40 23 -10 30 -49 12 -60 -6 -4 -8 -11 -4 -16 7 -12 27 14 42 56
l10 30 1 -33 c1 -39 -8 -59 -49 -104 -17 -18 -30 -37 -30 -42 0 -5 -16 -41
-36 -79 -19 -38 -34 -71 -32 -73 2 -2 18 5 36 16 44 27 87 90 112 166 14 42
30 70 46 81 13 8 24 22 24 30 0 10 7 14 20 10 11 -3 20 -1 20 4 0 5 11 14 25
19 17 6 25 17 25 34 0 30 -14 42 -85 66 -65 22 -83 24 -105 10z m83 -36 c-32
-24 -58 -13 -32 13 6 6 19 8 30 6 18 -5 19 -6 2 -19z m-123 -304 c0 -5 -4 -10
-10 -10 -5 0 -10 5 -10 10 0 6 5 10 10 10 6 0 10 -4 10 -10z"/>
<path d="M3630 4150 c0 -5 5 -10 10 -10 6 0 10 5 10 10 0 6 -4 10 -10 10 -5 0
-10 -4 -10 -10z"/>
<path d="M3660 4136 c0 -10 -9 -25 -20 -34 -19 -16 -19 -19 -5 -46 8 -15 15
-35 15 -43 0 -8 14 -19 30 -24 17 -6 30 -17 30 -24 0 -7 9 -15 20 -18 25 -6
44 22 28 44 -8 12 -9 12 -5 -2 3 -9 -1 -16 -8 -16 -7 0 -10 8 -7 19 2 10 -1
18 -7 18 -5 0 -8 7 -5 15 6 14 -13 19 -63 18 -9 -1 -10 4 -2 18 5 11 14 19 19
19 5 0 6 12 4 28 -6 33 -24 54 -24 28z"/>
<path d="M3338 4133 c7 -3 16 -2 19 1 4 3 -2 6 -13 5 -11 0 -14 -3 -6 -6z"/>
<path d="M3690 4124 c0 -8 14 -29 30 -46 25 -24 36 -29 58 -24 15 4 33 7 40 8
22 2 13 17 -15 24 -16 4 -34 11 -40 17 -7 5 -22 7 -33 4 -10 -3 -19 -2 -18 2
2 18 -3 31 -12 31 -5 0 -10 -7 -10 -16z"/>
<path d="M4630 4090 c0 -5 5 -10 10 -10 6 0 10 5 10 10 0 6 -4 10 -10 10 -5 0
-10 -4 -10 -10z"/>
<path d="M4795 4090 c-3 -5 -2 -10 4 -10 5 0 13 5 16 10 3 6 2 10 -4 10 -5 0
-13 -4 -16 -10z"/>
<path d="M3330 4070 c0 -5 4 -10 9 -10 6 0 13 5 16 10 3 6 -1 10 -9 10 -9 0
-16 -4 -16 -10z"/>
<path d="M4809 4039 c-21 -22 -47 -60 -57 -83 -11 -23 -39 -65 -61 -94 -46
-58 -49 -67 -22 -81 14 -8 20 -6 28 12 51 111 87 181 101 196 86 91 86 91 67
91 -10 0 -35 -18 -56 -41z"/>
<path d="M5486 4029 c-30 -23 -58 -67 -34 -54 23 14 49 39 59 57 12 23 8 23
-25 -3z"/>
<path d="M3790 4029 c0 -6 -8 -9 -20 -6 -25 6 -25 5 -2 -14 17 -15 20 -15 30
2 7 11 8 20 2 24 -6 3 -10 1 -10 -6z"/>
<path d="M3115 4020 c-3 -5 -15 -10 -27 -10 -34 0 -85 -30 -97 -57 -10 -23 -9
-31 8 -54 12 -15 17 -30 12 -34 -12 -7 -51 42 -51 64 -1 14 -2 14 -11 -2 -12
-21 -6 -43 25 -81 20 -24 27 -26 44 -17 15 8 25 7 44 -7 40 -29 68 -43 78 -37
5 3 14 -5 21 -17 18 -35 30 -38 57 -17 14 10 40 19 58 19 39 0 43 11 15 37
-11 10 -28 38 -39 63 -11 25 -30 59 -44 75 -13 17 -32 42 -41 58 -18 27 -41
35 -52 17z m14 -45 c16 -8 40 -28 54 -44 26 -31 53 -98 44 -108 -11 -10 -27 9
-54 64 -19 39 -37 60 -60 71 -32 15 -44 32 -23 32 6 0 24 -7 39 -15z m-2 -137
c-3 -8 -6 -5 -6 6 -1 11 2 17 5 13 3 -3 4 -12 1 -19z"/>
<path d="M3316 3987 c-9 -56 -5 -166 5 -173 15 -9 25 31 23 91 -1 33 0 73 3
88 4 25 9 28 34 25 16 -3 29 -1 29 4 0 4 -20 8 -44 8 l-44 0 -6 -43z"/>
<path d="M3290 4005 c0 -8 2 -15 4 -15 2 0 6 7 10 15 3 8 1 15 -4 15 -6 0 -10
-7 -10 -15z"/>
<path d="M3531 4011 c-10 -6 -2 -9 22 -8 21 0 37 4 37 7 0 9 -44 10 -59 1z"/>
<path d="M4012 3988 c3 -7 13 -15 24 -17 16 -3 17 -1 5 13 -16 19 -34 21 -29
4z"/>
<path d="M3561 3969 l-25 -10 22 -15 c24 -17 41 -12 38 11 -3 22 -9 24 -35 14z
m24 -19 c3 -5 1 -10 -4 -10 -6 0 -11 5 -11 10 0 6 2 10 4 10 3 0 8 -4 11 -10z"/>
<path d="M3256 3952 c-2 -4 -1 -23 4 -42 l8 -35 1 43 c1 41 -3 50 -13 34z"/>
<path d="M3510 3951 c0 -5 7 -15 17 -22 15 -13 15 -12 4 9 -12 23 -21 28 -21
13z"/>
<path d="M4320 3934 c0 -8 11 -14 26 -14 16 0 24 5 22 13 -6 17 -48 18 -48 1z"/>
<path d="M3381 3919 c9 -17 13 -19 20 -8 14 22 11 29 -11 29 -18 0 -19 -3 -9
-21z"/>
<path d="M3616 3932 c-2 -4 4 -9 15 -9 11 -1 17 2 14 8 -7 11 -22 12 -29 1z"/>
<path d="M3486 3912 c-3 -5 1 -9 9 -9 8 0 12 4 9 9 -3 4 -7 8 -9 8 -2 0 -6 -4
-9 -8z"/>
<path d="M4549 3903 c-40 -3 -46 -7 -42 -23 7 -26 43 -34 43 -9 0 10 7 19 15
19 11 0 14 -7 10 -22 -4 -18 1 -27 26 -41 37 -21 43 -17 70 42 l18 41 -47 -2
c-26 -1 -68 -3 -93 -5z"/>
<path d="M5170 3885 c0 -2 10 -10 23 -16 20 -11 21 -11 8 4 -13 16 -31 23 -31
12z"/>
<path d="M4962 3790 c-6 -11 -12 -25 -12 -30 0 -6 -12 -21 -27 -34 l-26 -23
94 -8 c174 -16 166 -17 200 43 l31 52 -49 1 c-89 3 -112 5 -119 12 -4 4 -24 7
-43 7 -25 0 -40 -6 -49 -20z m73 -70 c3 -6 -1 -7 -9 -4 -18 7 -21 14 -7 14 6
0 13 -4 16 -10z"/>
<path d="M4521 3763 c-13 -17 -23 -35 -23 -40 0 -4 -4 -16 -9 -25 -7 -14 -6
-16 6 -12 8 4 15 15 15 25 0 10 9 28 21 40 11 11 19 25 16 32 -2 6 -14 -3 -26
-20z"/>
<path d="M3050 3766 c0 -2 8 -10 18 -17 15 -13 16 -12 3 4 -13 16 -21 21 -21
13z"/>
<path d="M3725 3751 c-8 -26 -3 -34 19 -29 12 2 13 7 2 27 l-14 24 -7 -22z"/>
<path d="M3815 3720 c-16 -7 -17 -9 -3 -9 9 -1 20 4 23 9 7 11 7 11 -20 0z"/>
<path d="M4270 3710 c0 -5 -15 -16 -32 -23 -18 -8 -55 -28 -82 -46 l-50 -31
70 0 c38 0 75 4 82 8 13 9 29 102 18 102 -3 0 -6 -4 -6 -10z"/>
<path d="M2090 3239 c7 -11 14 -18 17 -15 8 8 -5 36 -17 36 -7 0 -7 -6 0 -21z"/>
<path d="M2130 3244 c0 -10 28 -34 39 -34 20 0 11 17 -14 28 -14 6 -25 9 -25
6z"/>
<path d="M2167 3185 c-4 -8 -12 -14 -18 -13 -14 3 -20 -44 -9 -63 13 -19 28
-1 35 42 7 41 2 62 -8 34z"/>
<path d="M2358 3190 c-4 -8 -9 -37 -11 -65 -2 -27 -9 -51 -14 -52 -5 -2 -9
-16 -8 -31 1 -15 0 -19 -2 -9 -3 10 -13 27 -24 38 -21 21 -25 39 -9 39 6 0 10
15 10 33 0 23 -3 28 -9 18 -8 -12 -13 -11 -29 9 l-19 24 -5 -32 c-2 -17 1 -48
8 -67 6 -19 8 -35 5 -35 -10 0 -7 -52 4 -69 6 -10 4 -12 -5 -6 -10 6 -11 4 -4
-6 12 -19 11 -41 -1 -58 -8 -12 -7 -13 4 -6 11 6 13 4 8 -8 -4 -10 -1 -17 6
-17 8 0 6 -4 -3 -10 -9 -6 -11 -10 -3 -10 7 0 10 -7 7 -15 -4 -8 -1 -22 5 -29
7 -8 8 -17 3 -20 -4 -2 -6 -29 -4 -58 6 -83 2 -209 -6 -175 -2 9 -7 17 -12 17
-12 0 0 -31 19 -50 13 -13 14 -13 9 1 -4 9 0 28 7 42 7 14 11 28 7 31 -3 3 0
6 6 6 14 0 15 -43 2 -88 -5 -19 -12 -80 -16 -135 -3 -59 -11 -105 -18 -109 -8
-6 -7 -8 2 -8 16 0 13 -51 -3 -62 -5 -4 0 -8 12 -8 12 0 23 8 26 18 4 15 5 15
6 -1 1 -26 26 -15 26 12 0 12 8 28 18 36 22 16 23 25 5 36 -10 7 -10 9 2 9 13
0 13 1 0 10 -13 9 -13 10 0 10 12 0 12 2 2 9 -18 11 -28 96 -10 85 10 -6 10
-5 0 9 -8 9 -13 39 -13 69 0 112 11 310 18 320 3 6 1 8 -5 4 -10 -6 -13 0 -28
57 -6 21 -6 21 9 3 13 -18 15 -15 22 40 4 32 9 70 11 84 3 29 13 80 19 98 2 6
0 12 -5 12 -5 0 -10 17 -12 38 -2 22 -6 31 -10 22z m-59 -202 c1 -14 6 -28 13
-30 7 -3 9 -12 4 -24 -6 -16 -10 -13 -22 21 -15 45 -19 116 -4 80 5 -11 9 -32
9 -47z m6 -147 c3 -5 1 -12 -5 -16 -5 -3 -10 1 -10 9 0 18 6 21 15 7z m2 -583
c-3 -7 -5 -2 -5 12 0 14 2 19 5 13 2 -7 2 -19 0 -25z"/>
<path d="M1996 3181 c-3 -5 4 -21 15 -35 25 -32 38 -105 20 -115 -7 -4 -12
-36 -13 -77 0 -38 -6 -75 -12 -83 -8 -11 -8 -13 1 -7 9 5 11 2 7 -8 -3 -9 -11
-13 -18 -9 -7 4 -7 1 1 -9 7 -8 10 -18 6 -21 -3 -4 -1 -7 6 -7 7 0 9 -5 6 -10
-3 -6 3 -22 14 -36 12 -15 22 -23 23 -18 0 5 4 -13 8 -41 l7 -50 1 48 c1 27
-2 56 -7 65 -4 9 -11 32 -14 50 -5 24 -3 32 8 32 17 0 17 -1 15 100 -1 83 -12
134 -41 198 -20 44 -24 48 -33 33z"/>
<path d="M2212 3151 c-6 -17 -9 -31 -7 -31 3 0 -5 -19 -17 -42 -19 -36 -22
-56 -20 -135 2 -55 8 -103 17 -119 15 -29 12 -44 -8 -44 -14 0 -16 -278 -2
-300 5 -9 4 -11 -3 -6 -12 7 -17 -23 -14 -67 1 -12 -2 -16 -11 -11 -8 5 -7 2
2 -9 12 -15 12 -17 -3 -11 -18 7 -19 -15 -1 -28 7 -5 6 -8 -1 -8 -5 0 -11 -21
-13 -47 -1 -26 -4 -50 -7 -55 -3 -4 0 -8 6 -8 8 0 8 -6 0 -20 -10 -19 -9 -20
27 -16 21 2 46 5 56 5 11 1 15 5 11 13 -5 7 -2 9 7 6 12 -5 15 5 14 46 0 39
-4 50 -15 48 -9 -2 -5 7 10 24 14 15 19 24 12 20 -9 -6 -12 1 -10 26 1 19 -2
40 -7 48 -5 8 -10 86 -11 175 -1 88 -5 232 -8 320 -3 88 -1 180 4 205 10 54 6
63 -8 21z m-35 -758 c-2 -16 -4 -5 -4 22 0 28 2 40 4 28 2 -13 2 -35 0 -50z
m0 -85 c-2 -13 -4 -5 -4 17 -1 22 1 32 4 23 2 -10 2 -28 0 -40z m59 -32 c0
-14 -3 -23 -7 -20 -6 3 -6 22 0 42 3 10 7 -2 7 -22z"/>
<path d="M2452 3128 c-7 -7 -11 -23 -11 -37 1 -21 2 -22 6 -6 3 11 10 26 16
33 13 17 4 25 -11 10z"/>
<path d="M5382 3100 c0 -14 2 -19 5 -12 2 6 2 18 0 25 -3 6 -5 1 -5 -13z"/>
<path d="M5252 2994 c39 -70 93 -213 83 -222 -2 -2 -14 12 -27 32 -29 45 -38
46 -24 2 6 -19 14 -32 18 -30 10 6 53 -23 53 -36 0 -6 5 -9 10 -7 10 2 10 15
-1 110 -5 45 -9 55 -19 47 -10 -8 -20 3 -43 44 -17 30 -37 58 -43 62 -7 4 -10
3 -7 -2z"/>
<path d="M5162 2970 c0 -14 2 -19 5 -12 2 6 2 18 0 25 -3 6 -5 1 -5 -13z"/>
<path d="M5536 2909 c-10 -49 -7 -54 14 -29 15 17 17 27 9 41 -13 25 -15 24
-23 -12z"/>
<path d="M5160 2893 c0 -11 11 -37 25 -57 14 -20 25 -39 25 -42 0 -3 14 -35
30 -71 17 -35 30 -66 30 -69 0 -11 -19 0 -60 36 -25 22 -48 40 -52 40 -10 0 7
-43 43 -112 27 -51 45 -138 29 -138 -4 0 -15 7 -26 16 -19 15 -19 16 1 10 20
-6 20 -6 1 9 -28 21 -34 19 -41 -15 -10 -44 10 -91 56 -136 68 -66 70 -82 4
-44 -54 31 -91 34 -51 4 11 -8 16 -14 11 -14 -5 0 2 -12 16 -26 l24 -26 -27 7
c-42 11 -36 -17 14 -64 51 -47 47 -63 -5 -20 l-37 30 0 -30 c0 -27 21 -61 38
-61 12 0 82 -69 82 -81 0 -8 -4 -8 -15 1 -21 17 -29 7 -15 -19 8 -16 8 -21 -2
-21 -6 0 0 -13 15 -28 34 -36 34 -44 0 -37 -26 6 -26 5 -8 -6 11 -7 26 -21 33
-31 8 -10 26 -18 43 -18 19 0 28 -4 23 -11 -3 -6 -17 -8 -29 -5 -14 4 -25 1
-28 -7 -3 -7 -6 -4 -6 6 -1 16 -3 17 -16 4 -8 -8 -28 -13 -44 -12 -23 2 -34
-4 -48 -24 -22 -33 -28 -65 -11 -54 19 11 48 14 48 4 0 -5 -13 -11 -30 -14
-30 -6 -30 -7 -31 -79 -1 -40 -3 -86 -4 -103 -8 -90 -8 -233 -1 -255 6 -19 5
-21 -3 -10 -12 16 -15 2 -5 -24 5 -14 9 -14 34 -1 16 8 35 15 42 15 19 1 42
36 67 105 12 33 34 74 47 92 13 18 23 38 22 45 -2 9 7 12 30 10 28 -3 32 0 32
20 0 15 -3 19 -8 11 -4 -7 -17 -10 -29 -7 -19 5 -20 8 -9 20 8 7 24 11 36 9
12 -2 30 0 40 5 13 7 16 5 15 -11 -1 -11 -8 -25 -16 -31 -10 -7 -6 -8 17 -6
24 3 31 1 27 -10 -3 -8 0 -18 8 -23 20 -13 29 -11 29 6 0 18 -2 18 48 1 22 -8
43 -12 46 -9 3 4 6 1 6 -5 0 -7 -6 -12 -12 -12 -7 -1 -3 -6 10 -14 21 -11 22
-14 8 -25 -20 -17 -50 -6 -42 14 3 9 -1 15 -10 15 -10 0 -14 -6 -10 -15 3 -8
-3 -19 -13 -25 -13 -6 -19 -21 -19 -48 l-1 -39 51 3 c28 2 56 8 62 12 22 17
56 21 56 6 0 -8 -6 -14 -12 -14 -9 0 -8 -3 2 -10 9 -5 19 -5 27 2 10 8 12 7 7
-5 -3 -8 2 -27 12 -42 13 -19 15 -38 11 -75 l-6 -50 53 0 c72 0 151 -25 174
-55 15 -19 30 -25 58 -25 46 -1 111 -44 82 -55 -16 -7 -50 -3 -101 10 -18 5
-26 12 -23 21 3 9 -2 14 -13 14 -19 0 -45 -23 -35 -32 3 -3 -6 -8 -20 -12 -16
-4 -33 -20 -45 -44 -25 -49 -51 -158 -49 -205 1 -27 -5 -43 -20 -58 -12 -11
-22 -24 -22 -29 0 -4 -2 -15 -5 -23 -4 -8 0 -14 10 -14 8 0 15 3 15 6 0 4 9
12 20 19 19 11 22 9 40 -32 20 -47 20 -47 79 -30 17 5 22 4 17 -5 -4 -6 -11
-9 -15 -7 -4 3 -8 -1 -8 -9 0 -16 26 -6 46 19 10 12 4 20 -35 50 -57 44 -52
47 9 6 25 -16 50 -30 57 -30 6 0 9 -4 6 -9 -8 -12 89 -13 121 0 20 8 44 7 86
-2 49 -11 61 -19 82 -51 14 -21 30 -36 35 -33 5 3 7 -1 4 -9 -4 -10 9 -24 37
-43 37 -24 52 -28 118 -28 89 0 154 22 195 64 32 33 53 32 106 -9 19 -15 50
-33 69 -39 44 -14 122 -14 158 1 15 6 32 10 36 9 5 -1 6 3 2 9 -6 10 9 15 30
10 6 -1 7 2 3 6 -4 4 1 19 12 34 34 48 80 160 80 196 0 43 -40 109 -79 129
-38 19 -113 19 -179 0 -29 -9 -57 -13 -63 -9 -14 8 15 39 52 54 16 7 29 15 29
18 0 4 -19 26 -42 49 -37 38 -41 46 -30 63 6 11 12 23 12 27 0 5 -5 1 -10 -7
-6 -9 -10 -10 -10 -3 0 6 5 15 10 18 6 4 8 11 5 16 -4 5 -1 9 6 9 7 0 10 3 6
6 -17 18 50 97 108 127 20 11 24 16 13 17 -10 0 -18 4 -18 9 0 14 39 24 53 13
7 -5 32 -12 57 -16 41 -6 48 -4 73 22 21 22 27 39 29 79 3 76 -25 99 -87 71
-27 -12 -67 -77 -63 -100 2 -8 -9 -14 -24 -16 -26 -3 -33 5 -29 31 1 5 -2 6
-7 3 -15 -9 -30 9 -71 89 -23 44 -54 90 -68 103 -14 13 -41 42 -59 64 -19 22
-34 37 -34 33 0 -4 -6 -2 -14 4 -12 10 -14 8 -12 -12 l3 -24 -32 21 c-33 23
-85 27 -108 8 -7 -6 -21 -6 -34 -1 -28 10 -31 23 -3 14 11 -3 28 -2 37 4 16 9
15 11 -10 20 -54 21 -81 25 -72 12 8 -14 -50 13 -75 34 -24 21 -148 55 -200
55 -49 0 -103 -31 -80 -45 15 -9 -36 -36 -54 -29 -8 3 -17 1 -21 -5 -3 -6 -15
-11 -25 -11 -22 0 -39 -22 -22 -28 7 -2 10 -8 6 -13 -9 -15 -22 -10 -26 9 -3
13 -10 8 -28 -20 -18 -28 -32 -38 -51 -38 -46 0 -73 -50 -78 -145 -2 -19 -2
-19 -15 -2 -9 12 -11 29 -6 57 6 35 5 40 -11 40 -23 0 -42 33 -28 47 10 10 10
10 -46 15 -35 3 -49 20 -39 50 5 16 3 20 -10 15 -18 -7 -32 8 -16 18 17 10 11
25 -7 18 -15 -5 -16 -3 -6 7 11 11 17 10 36 -8 13 -12 27 -22 33 -22 5 0 2 5
-6 10 -8 5 -15 19 -15 30 0 15 -10 26 -32 35 -31 13 -33 13 -33 -6 0 -13 -8
-23 -20 -26 -15 -4 -19 -11 -14 -25 5 -17 3 -18 -14 -9 -15 8 -22 8 -25 -2 -4
-9 -6 -9 -6 0 -1 7 -8 10 -16 7 -8 -4 -15 -1 -15 5 0 6 -7 8 -15 5 -10 -4 -15
0 -15 11 0 13 6 16 24 11 16 -4 28 0 37 11 8 10 9 14 2 10 -6 -4 -14 -3 -17 2
-10 15 10 22 36 12 14 -5 31 -6 38 -1 15 9 -24 25 -52 21 -10 -1 -18 3 -18 8
0 6 17 12 38 12 l37 2 -35 6 c-27 5 -31 8 -17 13 14 6 15 11 6 26 -10 16 -8
25 10 51 12 17 27 31 33 31 5 0 8 6 5 14 -3 7 1 23 9 34 11 16 11 21 1 25 -9
4 -9 7 0 17 10 11 15 11 28 0 12 -10 21 -10 40 -2 28 13 33 40 10 48 -14 6
-13 8 2 21 17 13 16 14 -4 8 -25 -7 -30 4 -11 23 16 16 -4 16 -35 1 -22 -10
29 40 75 73 12 10 16 16 8 13 -8 -3 -22 0 -30 5 -13 9 -11 14 13 35 29 26 38
48 10 23 -29 -24 -93 -58 -93 -49 0 5 26 35 58 66 50 50 53 55 21 36 l-36 -21
0 33 c0 17 6 41 13 52 8 11 14 25 14 31 0 20 -49 9 -75 -16 -35 -33 -40 -20
-9 21 43 57 75 126 59 126 -8 0 -12 -3 -10 -7 2 -4 -7 -13 -21 -20 -14 -8 -22
-20 -19 -27 2 -8 0 -11 -5 -8 -6 3 -10 13 -10 21 0 8 -4 13 -9 10 -20 -13 -21
45 -1 74 11 15 20 34 19 42 0 7 -4 3 -10 -10 -5 -13 -13 -20 -19 -17 -6 3 -10
-4 -10 -17 0 -19 -2 -20 -11 -8 -8 12 -9 9 -4 -10 3 -14 3 -20 -2 -15 -10 12
-45 16 -38 5 3 -5 0 -14 -7 -22 -7 -7 -13 -19 -13 -25 0 -15 -18 -19 -23 -5
-1 5 3 16 10 23 7 8 14 22 16 33 4 24 18 56 34 78 10 14 10 20 0 30 -11 11
-12 9 -6 -6 6 -15 4 -17 -6 -11 -9 6 -11 4 -5 -5 6 -9 2 -10 -15 -5 -15 5 -20
4 -16 -4 4 -6 4 -11 -1 -12 -4 0 -16 -2 -25 -4 -10 -2 -18 1 -18 6 0 13 52
119 61 125 5 3 9 13 9 22 -1 12 -5 10 -15 -8 -10 -17 -14 -20 -15 -9 0 32 -29
30 -46 -2 -17 -35 -11 -79 7 -46 6 9 7 22 4 27 -3 6 -1 10 5 10 7 0 10 7 6 18
-5 15 -4 15 9 -2 15 -19 15 -20 -24 -86 -14 -23 -38 -82 -47 -114 -5 -16 -16
-30 -25 -31 -13 -2 -14 6 -6 63 4 36 13 74 18 83 13 25 11 38 -3 15 -16 -29
-38 -118 -31 -130 3 -6 -8 3 -26 19 l-32 30 4 -50 c3 -27 3 -43 0 -34 -3 11
-11 15 -24 12 -18 -5 -18 -3 -9 23 8 19 8 30 1 32 -5 2 -7 10 -4 19 4 11 2 14
-5 9 -20 -12 -14 35 6 50 16 12 15 13 -5 14 -12 0 -28 3 -37 6 -14 6 -14 3 0
-31 8 -21 13 -46 11 -56 -3 -10 -1 -20 4 -23 5 -2 4 -3 -3 -2 -7 2 -14 12 -14
24 -1 12 -3 25 -4 30 -1 4 -3 12 -4 17 -14 63 -20 76 -33 71 -9 -4 -11 -2 -7
6 5 8 2 9 -10 5 -14 -6 -17 -3 -12 8 3 9 2 13 -3 10 -15 -9 -42 36 -31 50 7 8
4 18 -10 30 -19 18 -20 17 -20 -2z m70 -238 c4 3 10 -2 14 -10 3 -8 0 -14 -7
-12 -14 2 -27 18 -26 32 0 6 3 4 6 -3 2 -6 8 -10 13 -7z m45 -46 c11 -16 1
-19 -13 -3 -7 8 -8 14 -3 14 5 0 13 -5 16 -11z m241 -14 c1 -8 -1 -13 -6 -10
-11 7 -20 -20 -13 -44 3 -12 1 -21 -5 -21 -19 0 -22 31 -6 56 9 13 13 24 10
24 -4 0 -4 5 -1 11 8 12 18 5 21 -16z m-199 -45 c14 -19 7 -31 -13 -23 -13 5
-13 7 -2 14 10 7 9 9 -4 9 -10 0 -18 5 -18 10 0 14 23 8 37 -10z m233 -25 c-7
-8 -7 -14 -1 -17 7 -2 7 -8 1 -18 -8 -12 -10 -12 -10 5 0 15 -2 17 -9 6 -6 -9
-11 -10 -15 -2 -4 6 -2 11 4 11 6 0 8 5 5 10 -4 6 -1 9 7 8 7 -2 12 3 10 10
-1 8 2 11 8 7 8 -5 8 -11 0 -20z m-110 5 c0 -5 -2 -10 -4 -10 -3 0 -8 5 -11
10 -3 6 -1 10 4 10 6 0 11 -4 11 -10z m210 0 c0 -5 -2 -10 -4 -10 -3 0 -8 5
-11 10 -3 6 -1 10 4 10 6 0 11 -4 11 -10z m-182 -35 c-3 -3 -9 2 -12 12 -6 14
-5 15 5 6 7 -7 10 -15 7 -18z m-141 -7 c-3 -8 -6 -5 -6 6 -1 11 2 17 5 13 3
-3 4 -12 1 -19z m127 -3 c3 -8 0 -17 -7 -21 -7 -4 -9 -3 -4 1 4 5 -1 17 -10
27 -15 17 -15 18 -1 13 9 -4 19 -13 22 -20z m138 -3 c-7 -2 -10 -8 -6 -13 3
-5 0 -8 -8 -7 -7 2 -12 -3 -10 -9 2 -15 -14 -17 -23 -3 -3 6 -2 10 3 10 5 0
12 9 15 20 4 14 10 18 23 13 11 -4 13 -8 6 -11z m-152 -82 c0 -5 -5 -10 -11
-10 -5 0 -7 5 -4 10 3 6 8 10 11 10 2 0 4 -4 4 -10z m260 -94 c0 -2 -8 -10
-17 -17 -16 -13 -17 -12 -4 4 13 16 21 21 21 13z m-280 -146 c0 -11 -4 -20
-10 -20 -5 0 -10 9 -10 20 0 11 5 20 10 20 6 0 10 -9 10 -20z m240 -150 c0 -5
-5 -10 -11 -10 -5 0 -7 5 -4 10 3 6 8 10 11 10 2 0 4 -4 4 -10z m-315 -30 c3
-5 -1 -10 -9 -10 -9 0 -16 5 -16 10 0 6 4 10 9 10 6 0 13 -4 16 -10z m65 -70
c0 -5 -9 -10 -19 -10 -11 0 -23 5 -26 10 -4 6 5 10 19 10 14 0 26 -4 26 -10z
m86 -27 c8 -11 13 -13 14 -5 0 6 5 12 11 12 6 0 9 -7 5 -15 -3 -10 1 -15 12
-16 15 -1 15 -2 1 -6 -11 -3 -15 -11 -12 -24 5 -17 3 -18 -20 -10 -14 6 -27 6
-29 2 -4 -11 -48 5 -48 18 0 5 14 12 30 16 33 7 37 14 18 33 -7 7 -8 12 -4 12
5 0 15 -8 22 -17z m-111 -43 c3 -6 -1 -13 -9 -16 -9 -3 -13 -10 -10 -16 3 -5
11 -4 19 2 8 7 19 9 26 5 7 -5 -1 -15 -22 -28 -37 -24 -59 -30 -59 -16 0 6 -4
8 -9 4 -5 -3 -17 2 -26 11 -15 16 -14 18 11 35 15 10 31 16 35 13 4 -2 10 0
14 6 8 13 22 13 30 0z m915 -50 c11 -8 5 -9 -23 -6 -21 2 -41 6 -44 10 -10 10
51 7 67 -4z m142 -47 c15 -18 -11 -17 -36 2 -11 8 -29 16 -40 16 -18 1 -19 2
-3 6 18 5 18 5 0 20 -10 8 1 4 25 -8 24 -13 48 -29 54 -36z m-941 25 c1 -5 2
-12 3 -17 0 -5 4 -13 8 -17 5 -4 -1 -13 -12 -21 -11 -8 -20 -21 -20 -28 0 -11
-6 -12 -23 -6 -13 5 -32 9 -41 8 -10 -1 -25 9 -34 23 -10 13 -12 21 -4 16 7
-4 12 -2 12 8 0 8 11 21 24 28 27 14 85 18 87 6z m-291 -38 c0 -5 -4 -10 -10
-10 -5 0 -10 5 -10 10 0 6 5 10 10 10 6 0 10 -4 10 -10z m1267 -16 c-3 -3 -12
-4 -19 -1 -8 3 -5 6 6 6 11 1 17 -2 13 -5z m-862 -13 c6 -1 2 -6 -7 -12 -24
-14 -23 -29 3 -29 20 0 20 -2 7 -22 -22 -33 -78 -40 -100 -11 -22 26 -22 33
-2 33 8 0 12 5 9 11 -10 16 27 39 55 35 14 -3 30 -5 35 -5z m65 -11 c-8 -5
-17 -7 -19 -4 -3 3 1 9 9 14 8 5 17 7 19 4 3 -3 -1 -9 -9 -14z m-350 -10 c0
-14 -27 -19 -39 -7 -8 8 -11 8 -11 -2 0 -7 -5 -9 -10 -6 -19 12 8 33 35 27 14
-2 25 -8 25 -12z m348 -32 c-2 -7 7 -14 20 -16 12 -2 22 -10 22 -18 0 -8 5
-14 11 -14 19 0 5 -33 -16 -37 -33 -5 -67 6 -58 20 10 16 11 47 2 47 -5 0 -6
7 -3 15 7 18 25 20 22 3z m-408 -14 c0 -2 -9 -4 -21 -4 -11 0 -18 4 -14 10 5
8 35 3 35 -6z m77 -10 c-17 -16 -26 -19 -39 -10 -31 19 -21 34 22 33 l39 -2
-22 -21z m1453 2 c0 -3 -4 -8 -10 -11 -5 -3 -10 -1 -10 4 0 6 5 11 10 11 6 0
10 -2 10 -4z m-989 -38 c25 -31 24 -38 -7 -38 -22 0 -25 2 -14 15 10 12 10 18
0 30 -7 8 -9 15 -5 15 4 0 15 -10 26 -22z m35 -51 c-6 -27 -32 -42 -42 -26 -3
6 3 13 15 16 13 3 21 13 21 26 0 11 3 18 6 14 4 -3 4 -17 0 -30z m-601 3 c3
-5 1 -10 -4 -10 -6 0 -11 5 -11 10 0 6 2 10 4 10 3 0 8 -4 11 -10z m40 -10 c3
-5 -1 -10 -9 -10 -9 0 -16 5 -16 10 0 6 4 10 9 10 6 0 13 -4 16 -10z m8 -45
c-6 -17 -25 -15 -31 3 -2 7 5 12 17 12 14 0 19 -5 14 -15z m1891 -19 c-6 -15
-34 -23 -34 -10 0 8 34 34 38 30 1 -2 0 -11 -4 -20z m-1454 -21 c0 -8 -7 -15
-15 -15 -26 0 -18 20 13 29 1 1 2 -6 2 -14z m669 -40 c-2 -25 -7 -45 -12 -45
-5 0 -6 11 -3 24 4 15 1 26 -7 29 -9 3 -9 7 2 20 20 25 22 22 20 -28z m-49 21
c0 -13 -20 -26 -41 -26 -14 0 -11 28 4 33 23 10 37 7 37 -7z m-575 -18 c6 -4
2 -8 -7 -8 -10 0 -18 7 -18 17 0 9 3 12 8 7 4 -5 12 -12 17 -16z m-541 -26 c3
-5 -1 -9 -9 -9 -8 0 -15 4 -15 9 0 4 4 8 9 8 6 0 12 -4 15 -8z m1322 -70 c-18
-16 -18 -16 -6 6 6 13 14 21 18 18 3 -4 -2 -14 -12 -24z m-226 -127 c0 -2 -9
-9 -20 -15 -16 -9 -18 -8 -14 5 5 13 34 22 34 10z m-80 -51 c0 -8 -26 -29 -55
-46 -19 -10 -19 -10 -5 8 26 35 60 56 60 38z m50 -14 c0 -5 -7 -10 -16 -10
-13 0 -14 -3 -5 -14 14 -17 1 -28 -19 -16 -12 7 -11 12 4 29 20 23 36 27 36
11z m-160 -10 c0 -5 -7 -7 -15 -4 -8 4 -15 8 -15 10 0 2 7 4 15 4 8 0 15 -4
15 -10z m364 -26 c24 -24 19 -30 -6 -8 -13 10 -25 20 -27 21 -2 2 1 3 7 3 6 0
18 -7 26 -16z m385 -17 c11 -10 6 -13 -25 -19 -68 -12 -114 -9 -114 6 0 33
104 42 139 13z m-704 -7 c7 -12 -2 -12 -30 0 -19 8 -19 9 2 9 12 1 25 -3 28
-9z m-54 -48 c27 -23 20 -52 -13 -52 -40 0 -68 36 -45 59 16 16 31 14 58 -7z
m144 -2 c3 -5 2 -10 -4 -10 -5 0 -13 5 -16 10 -3 6 -2 10 4 10 5 0 13 -4 16
-10z m75 -55 c0 -8 -2 -15 -4 -15 -2 0 -6 7 -10 15 -3 8 -1 15 4 15 6 0 10 -7
10 -15z m210 11 c0 -2 -8 -10 -17 -17 -16 -13 -17 -12 -4 4 13 16 21 21 21 13z
m120 -21 c37 -19 39 -34 5 -27 -14 2 -38 -1 -54 -8 -16 -6 -61 -12 -100 -13
-71 -1 -99 7 -67 19 15 6 15 7 -1 21 -17 13 -16 13 4 4 30 -15 83 -13 113 3
34 19 65 19 100 1z m130 -45 c0 -28 -2 -30 -21 -20 -20 11 -20 12 -3 31 23 25
24 24 24 -11z m30 14 c0 -8 -4 -12 -10 -9 -5 3 -10 10 -10 16 0 5 5 9 10 9 6
0 10 -7 10 -16z m-410 2 c0 -2 -7 -7 -16 -10 -8 -3 -12 -2 -9 4 6 10 25 14 25
6z m580 -68 c25 -27 25 -43 0 -68 -36 -36 -78 -23 -82 27 -4 59 43 83 82 41z
m-423 -14 c28 -28 22 -39 -22 -44 -49 -5 -65 0 -71 26 -12 49 50 61 93 18z"/>
<path d="M5440 1739 c0 -5 5 -7 10 -4 6 3 10 8 10 11 0 2 -4 4 -10 4 -5 0 -10
-5 -10 -11z"/>
<path d="M5470 1740 c0 -5 5 -10 11 -10 5 0 7 5 4 10 -3 6 -8 10 -11 10 -2 0
-4 -4 -4 -10z"/>
<path d="M5470 2891 c0 -7 -4 -9 -10 -6 -6 4 -7 -1 -3 -11 6 -15 7 -15 15 1 6
9 7 19 4 22 -3 4 -6 1 -6 -6z"/>
<path d="M5617 2884 c-4 -4 -7 -14 -7 -23 0 -11 3 -12 11 -4 6 6 10 16 7 23
-2 6 -7 8 -11 4z"/>
<path d="M5420 2866 c0 -8 4 -17 9 -20 5 -4 7 3 4 14 -6 23 -13 26 -13 6z"/>
<path d="M5485 2837 c-5 -20 -10 -25 -20 -17 -9 8 -11 4 -7 -16 l5 -26 19 31
c11 17 18 36 15 43 -2 7 -8 1 -12 -15z"/>
<path d="M5220 2846 c0 -2 8 -10 18 -17 15 -13 16 -12 3 4 -13 16 -21 21 -21
13z"/>
<path d="M5602 2828 c-14 -14 -17 -52 -3 -44 7 5 22 56 17 56 -1 0 -7 -5 -14
-12z"/>
<path d="M2674 2777 c-2 -7 -3 -39 0 -72 3 -46 7 -59 21 -61 13 -2 15 0 6 9
-17 17 -13 24 12 22 12 -1 30 2 39 6 10 6 19 5 23 -1 3 -5 17 -10 31 -10 29 0
42 26 40 80 l-1 35 -83 2 c-59 2 -84 -1 -88 -10z"/>
<path d="M5630 2726 c0 -8 5 -18 10 -21 6 -3 10 3 10 14 0 12 -4 21 -10 21 -5
0 -10 -6 -10 -14z"/>
<path d="M2246 2707 c3 -10 9 -15 12 -12 3 3 0 11 -7 18 -10 9 -11 8 -5 -6z"/>
<path d="M2415 2690 c-3 -5 -1 -10 4 -10 6 0 11 5 11 10 0 6 -2 10 -4 10 -3 0
-8 -4 -11 -10z"/>
<path d="M5610 2676 c-11 -11 -14 -36 -4 -36 6 0 44 39 44 45 0 6 -31 0 -40
-9z"/>
<path d="M2247 2665 c-4 -8 -3 -16 1 -19 4 -3 9 4 9 15 2 23 -3 25 -10 4z"/>
<path d="M2810 2652 c0 -5 7 -9 15 -9 8 0 15 4 15 9 0 4 -7 8 -15 8 -8 0 -15
-4 -15 -8z"/>
<path d="M2245 2621 c-3 -5 -2 -12 3 -15 5 -3 9 1 9 9 0 17 -3 19 -12 6z"/>
<path d="M2000 2553 c7 -44 6 -124 -4 -246 -2 -29 2 -54 10 -65 7 -9 14 -12
15 -7 0 6 3 21 5 35 10 72 11 132 2 181 -5 30 -11 71 -12 92 -2 21 -8 43 -13
48 -7 7 -8 -6 -3 -38z"/>
<path d="M2485 2425 c-3 -31 -5 -59 -2 -61 3 -3 72 -6 153 -7 l149 -2 3 57 3
58 -98 -2 c-54 -1 -121 2 -149 6 l-52 8 -7 -57z m188 -32 c-7 -2 -19 -2 -25 0
-7 3 -2 5 12 5 14 0 19 -2 13 -5z m-3 -17 c0 -2 -7 -6 -15 -10 -8 -3 -15 -1
-15 4 0 6 7 10 15 10 8 0 15 -2 15 -4z"/>
<path d="M2380 2345 c-1 -11 -3 -28 -5 -37 -2 -10 1 -18 5 -18 16 0 19 16 10
46 -6 22 -9 24 -10 9z"/>
<path d="M2500 2335 c-7 -9 -8 -15 -2 -15 5 0 12 7 16 15 3 8 4 15 2 15 -2 0
-9 -7 -16 -15z"/>
<path d="M2440 2290 c-8 -5 -32 -12 -52 -15 -21 -3 -38 -9 -38 -14 0 -4 29 -3
63 2 42 7 64 14 64 23 0 16 -15 17 -37 4z"/>
<path d="M2700 2280 c14 -9 68 -15 59 -6 -3 3 -20 8 -39 11 -25 4 -31 3 -20
-5z"/>
<path d="M2800 2224 c-46 -10 -107 -13 -210 -9 -80 2 -139 2 -132 -1 8 -4 12
-31 12 -85 l0 -79 53 -1 c88 -3 282 3 290 8 4 2 7 38 7 79 0 67 2 74 20 74 17
0 20 -7 21 -52 0 -29 2 -48 4 -43 7 19 12 125 6 124 -3 -1 -35 -8 -71 -15z"/>
<path d="M1989 2204 c-9 -123 2 -162 18 -64 8 47 7 63 -4 71 -10 9 -13 7 -14
-7z"/>
<path d="M2296 2193 c-10 -3 -54 -10 -98 -16 l-80 -12 -3 -62 c-4 -80 -15
-144 -24 -138 -4 2 -8 -2 -8 -10 0 -8 5 -11 11 -8 6 4 5 -1 -3 -10 -7 -9 -11
-26 -8 -37 3 -11 2 -22 -2 -25 -5 -2 -8 -17 -9 -32 0 -16 -2 -35 -4 -43 -2 -8
4 -14 13 -15 18 0 69 -49 69 -66 0 -5 5 -9 10 -9 16 0 12 -93 -6 -118 -8 -12
-12 -22 -8 -22 4 0 -1 -6 -12 -14 -18 -14 -18 -16 13 -48 32 -33 32 -33 110
-28 l78 5 2 358 c2 278 0 357 -10 356 -6 -1 -20 -3 -31 -6z m-29 -35 c0 -7 2
-17 3 -23 1 -5 2 -21 1 -35 l-2 -25 -11 25 c-15 38 -16 54 -4 62 6 4 11 8 12
8 0 0 1 -6 1 -12z m-40 -37 c0 -11 -5 -18 -9 -15 -4 3 -5 11 -1 19 7 21 12 19
10 -4z m-6 -54 c-10 -9 -11 -8 -5 6 3 10 9 15 12 12 3 -3 0 -11 -7 -18z m100
-154 c-15 -29 -40 -59 -41 -50 0 10 39 67 46 67 3 0 0 -8 -5 -17z m-41 -20 c0
-3 -9 -25 -19 -51 -11 -26 -22 -55 -25 -66 -4 -10 -12 -16 -20 -13 -7 3 -19 0
-25 -6 -8 -8 -11 -6 -11 9 0 21 48 95 70 109 5 3 8 10 6 14 -3 4 1 8 9 8 8 0
15 -2 15 -4z m42 -35 c-7 -7 -12 -8 -12 -2 0 6 3 14 7 17 3 4 9 5 12 2 2 -3
-1 -11 -7 -17z"/>
<path d="M2859 2068 c0 -2 -2 -46 -4 -98 -2 -52 -4 -95 -5 -95 -1 0 -3 -10 -4
-22 -4 -32 10 -29 22 5 10 25 10 24 10 -16 -1 -40 -18 -74 -18 -36 0 10 -3 14
-7 10 -4 -4 -8 -46 -8 -94 -1 -48 -5 -93 -9 -100 -4 -7 -3 -12 2 -12 11 0 3
-111 -10 -127 -6 -7 -14 -10 -19 -8 -11 7 -30 -30 -21 -40 4 -4 -4 -5 -18 -2
-14 4 -29 7 -34 7 -5 0 -4 6 2 13 6 7 12 39 13 70 2 53 4 57 26 57 12 0 23 4
23 9 0 11 -131 2 -146 -10 -11 -9 -34 -8 -64 4 -8 3 -38 7 -67 10 -60 5 -63 1
-63 -78 0 -38 5 -59 17 -71 17 -16 15 -17 -47 -10 -75 9 -138 12 -195 7 -68
-5 -107 -2 -100 9 8 12 -25 13 -44 1 -17 -11 -4 -34 16 -27 8 3 21 -1 30 -9 8
-9 23 -13 32 -11 9 3 23 1 31 -4 24 -16 -38 -12 -85 5 -53 19 -54 19 -49 -11
3 -19 1 -24 -8 -18 -9 6 -9 3 1 -9 13 -17 9 -32 -10 -32 -5 0 -8 -4 -6 -8 1
-5 -6 -13 -15 -18 -10 -6 -18 -15 -18 -22 0 -7 4 -6 10 3 8 12 9 10 7 -7 -4
-31 -12 -36 -42 -29 -21 5 -24 10 -15 21 8 9 8 15 0 20 -6 4 -9 1 -8 -6 2 -7
-1 -13 -7 -14 -5 0 -20 -6 -31 -13 -12 -6 -25 -8 -29 -4 -5 4 -5 1 -1 -5 4 -7
2 -13 -5 -13 -6 0 -9 -8 -6 -20 3 -11 0 -23 -5 -27 -6 -3 -9 -2 -6 3 3 5 2 18
-3 29 -7 19 -8 19 -8 -2 -1 -14 -12 -28 -31 -38 -32 -17 -54 -20 -30 -5 11 7
11 10 2 10 -7 0 -10 5 -6 12 4 7 3 8 -4 4 -7 -4 -12 -16 -12 -27 0 -11 -5 -17
-10 -14 -6 4 -8 10 -5 15 3 5 0 12 -6 16 -7 4 -9 3 -6 -2 3 -6 2 -16 -4 -24
-7 -12 -9 -9 -9 10 l-1 25 -10 -23 c-9 -23 -29 -22 -29 1 0 7 4 6 10 -3 7 -12
9 -10 7 7 -1 20 -3 21 -18 7 -13 -12 -19 -12 -25 -3 -5 8 -3 10 6 4 9 -5 11
-4 6 4 -6 9 -11 9 -23 -1 -14 -11 -15 -10 -9 12 l7 25 -16 -25 c-9 -14 -14
-18 -12 -10 4 17 -23 51 -35 44 -4 -3 -8 -11 -8 -17 0 -8 3 -8 9 1 6 11 10 10
15 -4 3 -9 4 -19 1 -22 -3 -3 -5 0 -5 6 0 6 -8 9 -18 7 -19 -3 -24 18 -9 41 3
6 0 11 -8 11 -8 0 -12 -8 -10 -20 4 -15 2 -17 -10 -7 -14 12 -20 7 -16 -14 1
-5 -4 -6 -11 -3 -11 3 -13 -10 -13 -59 1 -35 -2 -64 -6 -64 -5 0 -20 12 -35
28 -15 15 -23 20 -17 12 6 -8 9 -23 8 -32 -2 -10 5 -20 15 -23 10 -3 21 -17
24 -30 8 -30 30 -32 70 -6 16 11 38 17 50 15 12 -3 34 -7 49 -9 16 -2 35 -9
42 -15 8 -7 20 -10 27 -7 7 3 4 6 -7 7 -18 0 -18 2 -4 10 12 7 25 5 43 -4 l27
-14 -28 -7 c-15 -5 -31 -8 -35 -7 -16 4 -7 -14 12 -26 11 -7 19 -9 18 -5 -2 5
-1 8 2 9 3 0 15 6 28 13 17 9 22 9 22 -1 0 -9 3 -9 10 2 14 22 12 33 -5 26 -8
-3 -15 -1 -15 3 0 18 33 21 56 6 13 -8 30 -15 39 -15 8 0 14 -3 12 -8 -3 -9 7
-12 36 -12 17 0 19 2 7 10 -18 11 -6 25 30 35 24 7 24 6 6 -8 -12 -8 -17 -20
-13 -31 4 -9 2 -16 -4 -16 -6 0 -8 -4 -4 -9 8 -13 55 32 55 53 0 15 7 16 48
10 26 -3 55 -13 64 -21 9 -8 21 -12 26 -9 13 8 43 -4 37 -14 -9 -14 20 -28 48
-23 21 4 26 10 22 24 -4 11 -2 19 4 19 7 0 7 8 1 25 -6 16 -6 27 2 31 7 4 8 3
4 -4 -4 -7 -1 -12 8 -12 8 0 16 -6 19 -12 3 -10 8 -9 22 2 15 12 17 12 10 1
-6 -11 -4 -13 8 -8 11 4 17 1 17 -8 0 -9 -9 -12 -30 -10 -16 2 -32 0 -34 -4
-3 -4 0 -8 7 -8 74 -4 130 -13 142 -23 8 -7 30 -13 49 -15 41 -4 59 -13 51
-26 -4 -5 1 -9 9 -9 8 0 19 -7 24 -16 6 -10 26 -18 53 -21 24 -2 49 -6 56 -8
6 -2 13 1 16 8 4 14 54 -5 122 -48 28 -17 58 -35 68 -38 9 -4 17 -13 17 -21 0
-8 9 -17 20 -21 13 -4 19 -14 17 -28 -1 -17 6 -24 33 -33 35 -12 55 -44 27
-44 -8 0 -17 -9 -20 -21 -5 -18 -8 -19 -27 -9 -13 7 -20 8 -16 2 3 -5 -1 -15
-9 -22 -8 -7 -13 -15 -11 -19 2 -3 -2 -14 -9 -25 -15 -19 -35 -14 -35 10 0 17
-5 17 -33 2 -12 -6 -30 -12 -40 -13 -11 -1 -22 -7 -27 -14 -5 -10 -13 -10 -27
-2 -11 5 -23 8 -27 6 -3 -3 -4 -2 -2 1 4 6 -30 44 -39 44 -3 0 -1 -9 5 -19 7
-13 7 -22 0 -26 -5 -3 -10 -3 -11 2 -2 29 -11 43 -44 76 -20 20 -41 34 -46 31
-5 -3 -9 -2 -8 3 1 4 1 15 0 23 -1 13 -2 13 -11 0 -7 -11 -10 -11 -10 -2 0 7
-5 10 -10 7 -6 -4 -9 -1 -8 7 2 8 -5 12 -18 11 -17 -2 -23 5 -28 27 -4 21 -10
28 -21 24 -8 -4 -15 -1 -15 6 0 7 -7 10 -15 6 -10 -4 -15 1 -16 17 -1 17 -2
18 -6 5 -2 -10 -12 -18 -21 -19 -14 0 -13 -2 3 -9 11 -5 14 -9 7 -9 -7 -1 -11
-5 -8 -9 2 -4 0 -14 -5 -22 -8 -12 -9 -11 -7 5 2 17 -3 20 -32 21 -19 1 -45
-5 -58 -13 -12 -7 -21 -10 -20 -6 1 4 -2 19 -6 32 -7 21 -10 22 -20 10 -16
-20 -34 -21 -32 -2 0 9 -5 18 -13 21 -9 3 -11 0 -7 -9 4 -8 0 -5 -9 6 -14 17
-17 18 -25 5 -14 -22 -12 -28 8 -33 16 -4 16 -4 -2 -12 -23 -10 -40 13 -24 33
8 10 7 17 -4 28 -14 14 -18 14 -42 -1 -23 -15 -39 -45 -17 -31 16 10 20 -21 6
-41 -13 -17 -14 -17 -10 5 2 14 -2 25 -11 29 -8 3 -13 12 -10 19 9 24 -18 15
-48 -16 -22 -22 -26 -33 -18 -43 7 -8 8 -18 1 -27 -8 -12 -9 -11 -7 5 2 14 -3
21 -19 23 -26 4 -32 21 -7 18 9 0 19 5 22 13 3 8 0 11 -7 7 -7 -5 -9 -1 -5 8
7 19 -7 21 -25 4 -10 -11 -11 -9 -5 6 4 11 2 21 -6 26 -19 12 -40 1 -40 -21 0
-12 -5 -16 -14 -13 -20 8 -16 42 6 47 10 3 18 11 18 18 0 7 -3 9 -7 6 -3 -4
-13 -1 -21 6 -13 10 -15 9 -9 -5 9 -25 -35 -23 -88 2 -49 24 -56 24 -49 5 4
-8 0 -23 -7 -32 -12 -15 -12 -16 3 -11 9 4 19 1 22 -7 3 -9 0 -12 -9 -9 -7 3
-16 -3 -20 -15 -6 -21 -45 -30 -45 -11 0 6 8 10 17 8 14 -2 17 5 18 33 0 35
-1 36 -23 21 -15 -10 -36 -13 -65 -9 -48 7 -81 -10 -66 -34 7 -11 9 -11 9 0 0
10 3 11 13 2 15 -12 16 -46 2 -58 -4 -5 -5 -2 -1 5 7 11 -5 17 -27 13 -5 -1
-6 3 -2 9 3 5 1 10 -5 10 -6 0 -9 4 -6 8 3 5 -4 16 -14 25 -18 15 -20 15 -29
-1 -9 -16 -11 -16 -25 3 -8 11 -16 26 -16 33 0 6 -7 12 -15 12 -8 0 -15 4 -15
9 0 4 -11 6 -25 3 -14 -2 -25 -8 -25 -12 0 -4 -15 -8 -34 -7 -18 0 -45 -7 -60
-16 -22 -15 -25 -21 -15 -38 8 -17 8 -20 -2 -17 -14 5 -21 30 -21 76 1 35 -11
42 -27 15 -10 -17 -10 -16 -11 2 -1 16 -4 14 -12 -7 -5 -16 -14 -28 -20 -28
-6 0 1 -11 16 -25 20 -19 25 -29 17 -38 -6 -7 -6 -18 -1 -26 4 -8 6 -20 3 -28
-3 -7 1 -13 8 -13 7 0 9 -3 6 -7 -4 -3 -2 -12 5 -20 6 -7 9 -16 6 -18 -8 -8
-39 6 -33 15 6 10 -44 31 -65 27 -8 -1 -21 -6 -27 -10 -12 -8 -17 -2 -14 16 0
4 -3 7 -8 7 -5 0 -11 9 -14 20 -3 11 -9 20 -14 19 -17 -3 -33 1 -33 9 0 11 31
9 49 -3 11 -6 13 -4 8 9 -4 10 -7 20 -7 22 0 3 -4 3 -9 0 -5 -3 -14 1 -21 8
-9 11 -9 20 1 38 6 13 8 20 4 16 -5 -5 -15 1 -22 12 -10 15 -21 19 -35 14 -17
-5 -20 -3 -14 12 6 15 4 16 -5 7 -6 -6 -17 -9 -24 -7 -15 6 -28 -23 -14 -32 6
-4 5 -12 -3 -22 -12 -15 -11 -16 5 -3 10 8 15 21 12 30 -4 12 -1 10 14 -4 11
-11 21 -29 23 -40 2 -11 10 -23 18 -27 9 -5 5 -6 -12 -5 -34 4 -47 15 -28 27
8 5 11 12 7 17 -10 10 -28 -18 -22 -34 3 -7 8 -19 11 -27 4 -11 0 -13 -15 -9
-15 4 -20 11 -16 24 4 12 -1 21 -14 29 -12 6 -20 16 -18 23 1 7 -8 12 -20 11
-12 0 -20 3 -17 8 8 12 -10 10 -24 -4 -20 -20 -14 1 9 31 22 30 19 51 -7 51
-16 0 -19 -16 -4 -25 6 -3 10 -11 10 -16 0 -6 -5 -7 -11 -4 -6 4 -17 -1 -25
-11 -15 -18 -15 -18 -10 1 5 16 1 15 -18 -7 -14 -16 -31 -28 -38 -28 -7 0 -2
-6 12 -13 14 -7 27 -9 28 -5 7 15 22 -3 22 -25 0 -27 11 -44 30 -49 8 -2 21
-11 28 -21 7 -9 18 -15 23 -12 5 4 9 2 9 -3 0 -6 -7 -12 -15 -16 -8 -3 -14 0
-12 7 1 7 -6 11 -15 11 -10 -1 -16 3 -15 8 1 6 -4 13 -11 15 -8 3 -10 -1 -5
-13 6 -16 5 -17 -9 -4 -9 8 -12 17 -7 18 6 2 5 10 -1 17 -6 8 -19 11 -28 8
-14 -5 -15 -3 -4 8 16 18 15 26 -4 33 -14 5 -15 4 -4 -9 10 -12 10 -15 -4 -15
-9 0 -16 5 -16 10 0 6 -7 10 -15 10 -9 0 -12 -6 -8 -17 4 -10 2 -14 -4 -10
-16 10 -9 -41 7 -56 10 -9 11 -9 5 2 -5 9 -4 12 3 7 7 -4 12 -14 12 -22 0 -8
3 -14 8 -15 4 0 15 -2 24 -4 10 -2 20 1 24 6 3 5 10 9 15 9 6 0 8 -4 4 -9 -3
-5 0 -13 6 -17 7 -4 9 -3 6 3 -4 6 0 13 8 17 9 3 15 0 15 -9 0 -8 3 -16 8 -16
33 -6 53 -5 58 2 10 17 53 9 59 -11 4 -11 15 -20 27 -20 12 0 18 5 15 13 -3 8
9 13 36 14 23 2 45 7 50 12 5 5 16 8 23 5 48 -14 46 -12 28 -41 -9 -16 -10
-21 -3 -12 13 14 15 14 30 0 8 -9 23 -33 33 -53 9 -21 21 -38 26 -38 14 0 12
12 -5 34 -15 20 -11 41 7 30 7 -4 8 8 4 35 -5 40 6 57 18 26 3 -8 1 -15 -3
-15 -5 0 -7 -9 -4 -20 6 -24 11 -25 34 -4 14 13 21 13 41 3 22 -12 22 -11 8 7
-14 18 -14 18 3 5 10 -8 17 -22 14 -31 -2 -10 2 -16 14 -16 10 0 15 4 13 8 -3
4 2 8 10 8 9 0 16 -8 16 -19 0 -27 26 -47 34 -26 3 9 2 14 -2 11 -5 -3 -9 1
-9 9 0 10 4 12 12 5 7 -5 15 -6 19 -2 4 4 6 0 4 -8 -1 -8 2 -14 7 -15 6 0 15
-4 22 -8 6 -4 14 -1 16 5 3 7 6 4 6 -7 1 -16 3 -17 10 -5 6 8 7 18 4 24 -3 5
-1 6 6 2 9 -6 8 -14 -4 -32 -15 -24 -15 -24 20 -24 19 0 35 -4 35 -10 0 -5 7
-10 16 -10 11 0 14 5 10 16 -6 14 -4 15 9 4 9 -7 15 -9 14 -4 -4 21 2 26 16
14 8 -7 15 -9 15 -5 0 5 9 0 19 -9 11 -10 17 -25 14 -37 -4 -15 -2 -18 11 -13
9 3 16 12 16 20 0 20 29 17 38 -4 7 -17 52 -27 52 -11 0 5 5 9 11 9 5 0 7 -6
4 -12 -4 -7 1 -4 9 6 9 11 16 15 16 9 0 -6 2 -17 5 -25 8 -20 -108 -18 -117 2
-5 12 -7 12 -7 -2 -1 -12 -6 -15 -18 -11 -13 4 -15 3 -8 -5 13 -14 276 -45
605 -71 115 -10 137 -8 110 9 -13 9 -13 10 0 11 8 1 18 1 22 0 4 0 5 6 2 14
-4 8 -2 15 4 15 6 0 17 2 25 5 16 7 20 -23 5 -42 -7 -9 -15 -10 -30 -2 -17 9
-18 8 -7 -9 9 -15 23 -20 55 -19 24 0 41 4 38 9 -3 5 -10 6 -15 3 -5 -4 -9 1
-9 9 0 9 0 18 0 21 0 3 3 4 8 3 4 -2 6 -6 5 -10 -2 -4 3 -5 11 -2 8 3 21 -5
30 -17 14 -21 24 -23 148 -26 81 -3 128 -1 120 5 -7 5 -51 8 -98 6 -46 -1 -84
1 -84 6 0 5 -8 7 -17 6 -10 -2 -21 2 -25 8 -5 8 -8 7 -8 -1 0 -7 -5 -13 -11
-13 -5 0 -7 4 -4 10 3 6 -1 10 -9 10 -9 0 -16 5 -16 10 0 7 6 8 17 2 10 -6 27
-6 45 0 16 6 42 8 58 4 24 -4 30 -2 31 12 0 14 2 14 8 -3 8 -19 9 -18 12 5 3
20 9 24 29 22 14 -2 40 -4 58 -5 22 -1 31 -6 27 -15 -3 -8 0 -10 8 -5 6 4 21
6 31 4 14 -2 17 2 12 16 -6 17 -5 17 7 1 13 -16 15 -15 35 9 12 15 22 36 22
47 0 18 3 17 32 -10 21 -20 29 -23 25 -11 -4 11 -3 16 3 12 6 -3 13 1 16 9 4
11 19 16 49 16 25 0 60 10 88 24 l45 24 6 -34 c4 -18 10 -33 14 -31 4 1 8 -2
10 -8 5 -16 43 -33 63 -28 11 3 16 9 13 14 -3 5 2 6 10 3 16 -6 40 28 28 41
-4 5 -1 4 7 0 11 -6 13 -4 8 9 -5 11 -3 15 5 10 7 -5 9 -2 5 9 -4 12 -1 14 16
11 12 -3 27 -6 34 -6 7 -1 9 -6 6 -11 -4 -6 0 -8 10 -4 8 3 20 0 26 -7 6 -7
32 -13 58 -15 25 -1 51 -5 56 -8 6 -4 7 -1 2 7 -6 10 -1 12 19 8 14 -3 29 -1
33 5 4 6 1 7 -7 2 -9 -5 -11 -4 -6 4 6 9 11 9 21 1 13 -11 29 2 30 25 1 6 6 9
13 8 7 -2 12 4 12 13 0 9 5 12 12 8 8 -5 9 -2 4 11 -5 15 -4 16 8 6 10 -8 16
-9 21 -1 11 17 -20 22 -125 18 -55 -2 -100 -1 -100 3 0 3 -31 4 -69 1 -38 -2
-71 0 -74 5 -3 4 16 8 41 9 26 0 85 3 131 6 l85 5 2 42 c1 22 -1 41 -5 42 -13
2 -79 7 -144 9 -37 2 -69 6 -71 9 -6 12 22 53 28 42 4 -6 42 -11 89 -12 49 0
74 -3 62 -8 -17 -7 -16 -9 10 -16 17 -5 35 -9 40 -10 6 0 17 -5 25 -10 8 -5
20 -10 25 -11 6 -1 19 -5 30 -9 l20 -8 -20 16 c-30 24 2 16 53 -13 23 -13 42
-27 42 -31 0 -4 -28 -14 -62 -22 -35 -9 -54 -16 -43 -16 11 -1 35 3 53 8 31 9
32 8 28 -15 -3 -14 0 -24 7 -24 8 0 8 -3 2 -8 -5 -4 -11 -13 -13 -21 -2 -11 0
-12 10 -3 11 8 14 7 14 -8 0 -10 -4 -17 -7 -14 -4 2 -1 -9 7 -26 9 -16 17 -30
18 -30 2 0 1 31 -1 70 -2 38 0 85 6 104 7 28 6 38 -9 51 -17 16 -133 45 -181
45 -23 0 -26 4 -21 25 3 18 0 25 -11 25 -23 0 -27 12 -17 53 4 20 4 35 0 32
-5 -3 -11 8 -15 24 -10 47 -102 135 -160 154 -63 21 -118 28 -136 17 -8 -5
-19 -4 -28 3 -12 9 -13 9 -8 0 5 -8 -6 -16 -35 -24 -24 -7 -46 -12 -50 -11 -3
1 -12 -5 -18 -13 -17 -20 -33 -19 -26 3 7 22 8 65 7 386 0 149 -2 268 -5 265
-2 -2 -6 -22 -9 -44 -5 -33 -46 -193 -52 -203 -1 -1 -9 0 -18 4 -13 5 -15 25
-12 137 4 132 4 132 -28 197 -20 40 -57 90 -96 130 l-65 65 -7 -35 c-6 -32 -7
-30 -9 20 -1 30 -2 58 -1 63 1 6 -8 11 -10 5z m66 -578 c3 -5 27 -11 53 -11
46 -1 46 -2 12 -8 -19 -4 -59 -6 -88 -5 -33 1 -56 -4 -63 -12 -15 -19 -30 -18
-23 1 4 8 17 18 30 21 13 3 24 10 24 15 0 12 47 11 55 -1z m175 -59 c0 -5 -7
-12 -16 -15 -14 -5 -15 -4 -4 9 14 17 20 19 20 6z m-573 -7 c-3 -3 -12 -4 -19
-1 -8 3 -5 6 6 6 11 1 17 -2 13 -5z m168 -4 c-45 -11 -123 -11 -130 0 -4 6 24
10 77 9 59 -1 75 -4 53 -9z m310 -20 c3 -5 14 -10 23 -10 15 0 15 2 2 10 -12
7 -11 9 6 8 17 -2 21 -8 19 -33 -1 -16 1 -34 4 -40 11 -21 9 -65 -4 -65 -7 0
-12 -11 -12 -25 0 -13 3 -22 8 -19 16 10 9 -9 -8 -23 -10 -8 -12 -11 -4 -7 11
5 13 3 8 -9 -4 -10 -1 -17 6 -17 8 0 6 -4 -3 -10 -25 -16 -31 -11 -27 25 3 19
0 35 -6 35 -5 0 -4 7 3 15 13 16 7 19 -30 16 -8 0 -2 6 14 13 23 11 25 14 11
20 -13 5 -16 14 -11 46 3 21 1 42 -5 45 -5 4 -7 11 -3 16 4 6 -14 8 -48 5 -29
-2 -73 -1 -98 4 -38 6 -29 8 52 9 55 0 99 -3 103 -9z m-474 -9 c-26 -16 -130
-23 -209 -15 l-77 9 140 5 c77 3 145 7 150 8 6 1 4 -2 -4 -7z m574 -11 c4 -6
-1 -7 -12 -3 -14 5 -16 4 -7 -8 5 -8 10 -23 9 -34 0 -11 3 -28 8 -37 5 -11 4
-18 -3 -18 -5 0 -10 5 -10 11 0 5 -5 7 -11 3 -8 -4 -8 -1 -1 12 10 21 5 47 -8
39 -5 -3 -7 3 -5 12 2 10 4 21 4 26 1 10 29 9 36 -3z m-563 -50 c4 -19 5 -52
2 -73 -5 -33 -9 -37 -27 -31 -12 4 -23 8 -25 9 -7 6 -8 93 -1 113 13 34 42 24
51 -18z m-582 -95 c0 -5 -5 -3 -10 5 -5 8 -10 20 -10 25 0 6 5 3 10 -5 5 -8
10 -19 10 -25z m1140 25 c0 -5 -10 -10 -22 -9 -22 0 -22 1 -3 9 11 5 21 9 23
9 1 1 2 -3 2 -9z m-194 -15 c14 -13 13 -15 -10 -15 -18 0 -24 4 -20 15 4 8 8
15 11 15 2 0 11 -7 19 -15z m219 -35 c-3 -5 -14 -10 -23 -9 -14 0 -13 2 3 9
27 11 27 11 20 0z m-737 -7 c-21 -2 -57 -2 -80 0 -24 2 -7 4 37 4 44 0 63 -2
43 -4z m149 1 c-3 -3 -12 -4 -19 -1 -8 3 -5 6 6 6 11 1 17 -2 13 -5z m-194
-31 c-13 -2 -35 -2 -50 0 -16 2 -5 4 22 4 28 0 40 -2 28 -4z m194 1 c-3 -3
-12 -4 -19 -1 -8 3 -5 6 6 6 11 1 17 -2 13 -5z m143 -4 c0 -5 -2 -10 -4 -10
-3 0 -8 5 -11 10 -3 6 -1 10 4 10 6 0 11 -4 11 -10z m427 4 c-3 -3 -12 -4 -19
-1 -8 3 -5 6 6 6 11 1 17 -2 13 -5z m-810 -30 c-3 -3 -12 -4 -19 -1 -8 3 -5 6
6 6 11 1 17 -2 13 -5z m240 0 c-3 -3 -12 -4 -19 -1 -8 3 -5 6 6 6 11 1 17 -2
13 -5z m570 0 c-3 -3 -12 -4 -19 -1 -8 3 -5 6 6 6 11 1 17 -2 13 -5z m-57 -8
c0 -2 -7 -6 -15 -10 -8 -3 -15 -1 -15 4 0 6 7 10 15 10 8 0 15 -2 15 -4z
m-727 -23 c-7 -2 -21 -2 -30 0 -10 3 -4 5 12 5 17 0 24 -2 18 -5z m214 1 c-3
-3 -12 -4 -19 -1 -8 3 -5 6 6 6 11 1 17 -2 13 -5z m508 -14 c-3 -5 -10 -10
-16 -10 -5 0 -9 5 -9 10 0 6 7 10 16 10 8 0 12 -4 9 -10z m-105 -17 c33 -23
41 -36 29 -48 -7 -7 -17 -1 -31 18 -11 15 -26 27 -33 27 -8 0 -17 5 -20 10
-10 16 28 11 55 -7z m-460 -3 c0 -5 -5 -10 -11 -10 -5 0 -7 5 -4 10 3 6 8 10
11 10 2 0 4 -4 4 -10z m863 -25 c4 3 5 2 2 -2 -17 -22 -53 -4 -39 19 5 8 11 6
19 -5 7 -9 15 -15 18 -12z m-863 1 c0 -3 -4 -8 -10 -11 -5 -3 -10 -1 -10 4 0
6 5 11 10 11 6 0 10 -2 10 -4z m419 -5 c8 -5 9 -11 3 -15 -5 -3 -15 1 -22 9
-14 16 -3 20 19 6z m431 -37 c0 -2 -10 1 -22 7 -19 9 -21 9 -11 -1 13 -15 2
-31 -32 -44 -11 -4 -16 -4 -12 0 4 4 2 13 -4 20 -15 18 39 46 63 33 10 -5 18
-12 18 -15z m65 -73 c-3 -5 -1 -12 5 -16 5 -3 10 2 10 12 1 17 1 17 11 0 6 -9
14 -15 20 -12 5 4 9 -4 9 -17 0 -13 3 -34 7 -48 6 -25 6 -25 -26 5 -20 19 -30
24 -26 12 13 -31 -2 -18 -19 18 -17 35 -15 55 5 55 6 0 8 -4 4 -9z m-375 -11
c0 -5 5 -10 11 -10 13 0 39 -25 39 -38 0 -16 -28 -22 -55 -12 -22 8 -24 13
-15 30 6 11 7 20 3 19 -20 -3 -27 2 -13 11 19 13 30 13 30 0z m-1976 -55 c3
-8 1 -17 -4 -20 -6 -4 -10 -1 -10 5 0 6 -4 9 -9 5 -12 -7 -24 12 -16 25 7 12
32 2 39 -15z m391 -5 c-3 -5 -12 -7 -20 -3 -21 7 -19 13 6 13 11 0 18 -4 14
-10z m1650 -10 c-10 -11 -20 -18 -23 -15 -7 6 18 35 31 35 5 0 2 -9 -8 -20z
m-1705 -11 c0 -5 5 -7 10 -4 6 3 10 -1 10 -9 0 -22 -13 -20 -28 4 -7 12 -8 20
-2 20 5 0 10 -5 10 -11z m113 -51 c5 -14 2 -17 -16 -14 -12 2 -21 9 -19 15 1
6 -2 11 -6 11 -4 0 -9 12 -10 26 l-2 27 23 -24 c13 -13 26 -32 30 -41z m1891
46 c3 -8 2 -12 -4 -9 -6 3 -10 10 -10 16 0 14 7 11 14 -7z m-2522 -5 c2 -2 1
-3 -1 -2 -2 2 -9 -4 -15 -13 -10 -13 -12 -13 -12 4 0 17 20 25 28 11z m568
-21 c0 -18 -2 -20 -9 -8 -6 8 -7 18 -5 22 9 14 14 9 14 -14z m720 18 c0 -3 -4
-8 -10 -11 -5 -3 -10 -1 -10 4 0 6 5 11 10 11 6 0 10 -2 10 -4z m-1250 -16 c0
-5 -7 -10 -16 -10 -8 0 -12 5 -9 10 3 6 10 10 16 10 5 0 9 -4 9 -10z m900 0
c0 -5 -2 -10 -4 -10 -3 0 -8 5 -11 10 -3 6 -1 10 4 10 6 0 11 -4 11 -10z m140
0 c0 -5 -4 -10 -10 -10 -5 0 -10 5 -10 10 0 6 5 10 10 10 6 0 10 -4 10 -10z
m-600 -30 c0 -5 -5 -10 -11 -10 -5 0 -7 5 -4 10 3 6 8 10 11 10 2 0 4 -4 4
-10z m-304 -25 c10 -8 14 -15 8 -15 -5 0 -19 7 -30 15 -10 8 -14 15 -8 15 5 0
19 -7 30 -15z m608 0 c-4 -8 -10 -12 -15 -9 -11 6 -2 24 11 24 5 0 7 -7 4 -15z
m-847 -10 c0 -8 -4 -15 -9 -15 -5 0 -6 -6 -2 -12 5 -10 4 -10 -6 -1 -11 10
-11 15 0 28 15 19 17 19 17 0z m781 3 c20 -20 15 -47 -8 -41 -11 3 -23 10 -27
16 -4 6 0 8 9 5 8 -4 15 -1 15 7 0 10 -7 11 -23 5 -18 -7 -22 -6 -17 5 6 18
35 19 51 3z m-617 -8 c20 -11 26 -30 8 -30 -5 0 -7 5 -4 10 6 9 -8 14 -27 11
-5 0 -8 4 -8 9 0 13 6 13 31 0z m973 -21 c5 -4 -12 -7 -37 -6 -25 0 -44 4 -41
9 4 5 12 7 18 5 7 -3 19 -1 27 3 7 5 16 6 19 2 3 -4 9 -10 14 -13z m-524 -2
c0 -8 -7 -14 -15 -14 -25 0 -17 17 13 26 1 1 2 -5 2 -12z m-483 -19 c-3 -8 -6
-5 -6 6 -1 11 2 17 5 13 3 -3 4 -12 1 -19z m1403 18 c0 -2 -8 -10 -17 -17 -16
-13 -17 -12 -4 4 13 16 21 21 21 13z m-995 -26 c3 -5 1 -10 -4 -10 -6 0 -11 5
-11 10 0 6 2 10 4 10 3 0 8 -4 11 -10z m2011 -18 c-7 -7 -46 9 -46 18 0 5 11
4 25 -2 14 -6 23 -13 21 -16z m41 -8 c-3 -3 -12 -4 -19 -1 -8 3 -5 6 6 6 11 1
17 -2 13 -5z m-1767 -96 c0 -6 -6 -5 -15 2 -8 7 -15 14 -15 16 0 2 7 1 15 -2
8 -4 15 -11 15 -16z m1260 8 c0 -7 -10 -16 -22 -20 -19 -5 -20 -8 -8 -16 12
-7 10 -9 -8 -7 -28 2 -28 3 6 32 32 29 32 29 32 11z m-195 -26 c3 -5 1 -10 -4
-10 -6 0 -11 5 -11 10 0 6 2 10 4 10 3 0 8 -4 11 -10z m-930 -10 c3 -5 -3 -10
-14 -10 -12 0 -21 5 -21 10 0 6 6 10 14 10 8 0 18 -4 21 -10z m230 -65 c14
-14 25 -31 25 -38 0 -7 -12 2 -26 18 -14 17 -29 29 -32 27 -4 -2 -8 1 -10 7
-7 20 17 12 43 -14z m148 -15 c4 0 7 -3 6 -6 0 -4 5 -11 13 -16 10 -8 9 -9 -3
-5 -9 3 -22 0 -29 -6 -10 -9 -11 -9 -5 2 6 11 2 13 -21 7 -27 -6 -28 -5 -10 9
11 8 14 15 8 15 -7 0 -12 7 -12 15 0 14 3 14 23 1 12 -8 25 -15 30 -16z m134
6 c0 -8 -6 -12 -15 -9 -11 5 -11 7 0 14 7 5 13 9 14 9 0 0 1 -6 1 -14z m-334
-3 c-7 -2 -19 -2 -25 0 -7 3 -2 5 12 5 14 0 19 -2 13 -5z m131 -1 c2 -4 -7 -8
-22 -9 -24 -2 -24 -1 -7 7 11 5 21 9 22 9 1 1 4 -3 7 -7z m249 -16 c4 -10 0
-14 -14 -13 -10 1 -19 7 -19 14 0 18 27 16 33 -1z m51 6 c2 -4 -5 -9 -17 -9
-17 -2 -19 0 -7 7 18 12 18 12 24 2z m-158 -17 c9 -8 11 -15 6 -15 -5 0 -15 7
-22 15 -7 8 -9 15 -6 15 4 0 14 -7 22 -15z m164 -19 c0 -3 -4 -8 -10 -11 -5
-3 -10 -1 -10 4 0 6 5 11 10 11 6 0 10 -2 10 -4z"/>
<path d="M2470 2030 c0 -6 26 -10 57 -10 68 0 67 5 -4 13 -31 4 -53 2 -53 -3z"/>
<path d="M2735 2030 l-50 -7 63 -1 c36 -1 62 2 62 8 0 6 -6 9 -12 8 -7 0 -35
-4 -63 -8z"/>
<path d="M2735 2000 l-50 -7 63 -1 c36 -1 62 2 62 8 0 6 -6 9 -12 8 -7 0 -35
-4 -63 -8z"/>
<path d="M2471 1996 c8 -8 98 -10 105 -3 4 4 -19 7 -51 7 -32 0 -56 -2 -54 -4z"/>
<path d="M2735 1973 c-27 -3 -44 -7 -38 -11 16 -10 113 -2 113 9 0 5 -6 8 -12
7 -7 -1 -35 -3 -63 -5z"/>
<path d="M2513 1958 c35 -8 52 -7 60 1 8 8 -5 11 -48 10 l-60 -1 48 -10z"/>
<path d="M2740 1940 c-40 -4 -50 -8 -37 -14 10 -5 33 -6 52 -3 19 3 35 2 35
-4 0 -5 -20 -9 -44 -9 -65 0 -69 -20 -4 -21 l53 -1 -50 -12 -50 -13 50 -4 50
-4 -55 -11 -55 -12 61 -1 62 -1 -3 55 c-1 30 -4 56 -6 58 -2 1 -29 0 -59 -3z"/>
<path d="M2485 1930 c28 -12 83 -12 90 0 4 6 -16 10 -52 9 -42 0 -52 -3 -38
-9z"/>
<path d="M5640 1921 c0 -6 4 -13 10 -16 6 -3 7 1 4 9 -7 18 -14 21 -14 7z"/>
<path d="M2475 1901 c7 -13 95 -15 95 -3 0 5 -23 9 -51 11 -34 1 -49 -2 -44
-8z"/>
<path d="M5256 1893 c-6 -14 -5 -15 5 -6 7 7 10 15 7 18 -3 3 -9 -2 -12 -12z"/>
<path d="M2470 1870 c0 -6 24 -10 53 -9 41 1 47 3 27 9 -36 12 -80 12 -80 0z"/>
<path d="M5733 1863 c-15 -5 -18 -33 -4 -33 8 0 25 30 19 35 -2 1 -9 0 -15 -2z"/>
<path d="M2470 1840 c0 -6 23 -9 53 -9 44 1 48 2 22 9 -44 11 -75 11 -75 0z"/>
<path d="M2470 1810 c0 -6 26 -10 57 -10 68 0 67 5 -4 13 -31 4 -53 2 -53 -3z"/>
<path d="M2725 1811 c-38 -7 -37 -7 23 -12 45 -3 62 -1 62 9 0 13 -20 13 -85
3z"/>
<path d="M5770 1790 c0 -5 4 -10 8 -10 5 0 14 -12 20 -26 7 -14 8 -23 2 -19
-5 3 -11 0 -11 -7 -1 -7 -3 -23 -4 -35 -2 -19 1 -21 17 -12 16 9 17 13 6 26
-11 14 -10 16 8 11 28 -7 26 15 -4 42 -12 12 -22 25 -22 30 0 6 -4 10 -10 10
-5 0 -10 -4 -10 -10z"/>
<path d="M2470 1782 c0 -14 78 -24 98 -13 13 8 8 10 -25 11 -23 0 -48 3 -57 6
-9 3 -16 2 -16 -4z"/>
<path d="M2735 1780 l-50 -7 53 -1 c65 -2 61 -22 -4 -22 -27 0 -43 -4 -39 -10
3 -5 28 -7 57 -4 34 4 48 2 43 -5 -3 -6 -28 -11 -56 -11 -30 0 -49 -4 -49 -11
0 -16 101 -4 111 12 10 16 4 63 -7 64 -5 1 -31 -1 -59 -5z"/>
<path d="M6620 1760 c0 -5 10 -10 23 -10 18 0 19 2 7 10 -19 13 -30 13 -30 0z"/>
<path d="M2470 1749 c0 -11 29 -19 65 -19 57 0 48 18 -10 22 -30 1 -55 0 -55
-3z"/>
<path d="M2473 1715 c5 -13 87 -19 99 -7 7 7 -10 11 -46 14 -34 2 -55 -1 -53
-7z"/>
<path d="M5760 1720 c0 -5 5 -10 10 -10 6 0 10 5 10 10 0 6 -4 10 -10 10 -5 0
-10 -4 -10 -10z"/>
<path d="M2750 1692 c-25 -2 -49 -8 -55 -14 -7 -7 7 -9 48 -5 34 3 55 2 52 -4
-4 -5 -23 -9 -43 -9 -20 0 -44 -5 -52 -10 -11 -8 2 -10 46 -8 57 3 61 4 58 26
-3 29 0 28 -54 24z"/>
<path d="M2470 1680 c0 -5 23 -10 50 -10 28 0 50 5 50 10 0 6 -22 10 -50 10
-27 0 -50 -4 -50 -10z"/>
<path d="M2470 1650 c0 -5 22 -10 50 -10 28 0 50 4 50 8 0 5 -22 9 -50 11 -30
1 -50 -2 -50 -9z"/>
<path d="M2470 1621 c0 -6 10 -11 23 -12 12 0 34 -3 50 -5 15 -3 27 0 27 6 0
5 -1 10 -2 11 -36 8 -98 9 -98 0z"/>
<path d="M2721 1623 c-19 -3 -30 -8 -24 -11 16 -10 103 -2 103 9 0 9 -16 9
-79 2z"/>
<path d="M2399 1532 c-21 -25 -30 -62 -16 -63 21 -2 62 3 67 8 3 2 -6 13 -20
25 -14 11 -18 16 -10 12 12 -6 13 -5 3 8 -7 8 -10 18 -6 21 3 4 4 7 2 7 -3 0
-12 -8 -20 -18z"/>
<path d="M5540 1500 c0 -5 7 -10 16 -10 8 0 12 5 9 10 -3 6 -10 10 -16 10 -5
0 -9 -4 -9 -10z"/>
<path d="M6972 1501 c-11 -7 -11 -9 2 -14 10 -4 16 -1 16 8 0 17 -1 17 -18 6z"/>
<path d="M1271 1464 c-21 -25 -3 -30 22 -6 15 16 17 22 7 22 -8 -1 -21 -8 -29
-16z"/>
<path d="M7371 1334 c-24 -10 -38 -11 -45 -4 -15 15 -39 12 -32 -5 3 -8 -2
-19 -12 -24 -9 -6 -12 -11 -5 -11 19 0 108 -80 128 -115 10 -16 14 -15 48 17
31 29 37 42 37 76 0 26 -7 48 -21 63 -11 13 -18 19 -15 12 4 -6 2 -14 -4 -18
-5 -3 -10 1 -10 9 0 20 -25 20 -69 0z m55 -16 c-4 -29 -17 -40 -33 -27 -13 11
-13 14 3 26 22 16 33 17 30 1z"/>
<path d="M7239 1320 l-24 -19 23 -1 c12 0 21 5 20 13 -2 6 3 11 10 10 6 -2 12
2 12 7 0 16 -16 12 -41 -10z"/>
<path d="M5517 1308 c-8 -12 -31 -54 -50 -93 l-36 -70 30 35 c33 39 85 138 76
146 -3 3 -12 -5 -20 -18z"/>
<path d="M3212 1294 c-43 -17 -17 -21 165 -28 72 -3 96 6 74 26 -10 10 -12 10
-7 1 9 -16 -6 -17 -22 -1 -9 9 -12 9 -12 -2 0 -11 -3 -11 -12 -2 -16 16 -31
15 -23 0 4 -7 0 -5 -8 5 -8 9 -17 17 -20 17 -3 0 -8 -8 -10 -17 -4 -15 -5 -15
-6 -2 -1 12 -12 16 -47 15 -25 -1 -58 -6 -72 -12z"/>
<path d="M1988 1282 c-5 -18 -2 -22 15 -22 13 0 17 3 11 8 -6 4 -13 14 -16 22
-3 10 -6 8 -10 -8z"/>
<path d="M3560 1286 c0 -2 8 -10 18 -17 15 -13 16 -12 3 4 -13 16 -21 21 -21
13z"/>
<path d="M3496 1272 c-5 -9 39 -10 48 -2 3 3 -6 7 -19 8 -13 1 -26 -2 -29 -6z"/>
<path d="M4906 1272 c-3 -5 1 -9 9 -9 8 0 15 4 15 9 0 4 -4 8 -9 8 -6 0 -12
-4 -15 -8z"/>
<path d="M1670 1226 c0 -2 7 -7 16 -10 8 -3 12 -2 9 4 -6 10 -25 14 -25 6z"/>
<path d="M1813 1215 c-7 -20 0 -27 21 -19 9 3 16 13 16 22 0 13 -3 12 -16 -4
-13 -16 -15 -16 -10 -1 7 21 -2 23 -11 2z"/>
<path d="M1353 1183 c-55 -4 -75 -23 -24 -23 17 0 33 -4 36 -10 11 -18 40 -10
52 15 8 19 8 25 0 23 -7 -1 -36 -3 -64 -5z"/>
<path d="M1267 1142 c-22 -24 -21 -31 3 -25 11 3 28 -1 38 -8 9 -7 7 -2 -6 12
-12 14 -19 29 -15 32 3 4 4 7 1 7 -3 0 -12 -8 -21 -18z"/>
<path d="M7426 1141 c-4 -6 -2 -19 4 -30 5 -11 10 -49 10 -85 0 -79 15 -86 56
-28 17 24 24 29 19 15 -8 -30 6 -29 35 2 l24 25 -22 46 c-12 25 -26 43 -31 39
-5 -3 -11 0 -13 5 -5 15 -74 24 -82 11z"/>
<path d="M5723 1127 c-4 -9 -44 -58 -88 -110 -58 -69 -99 -106 -148 -136 l-69
-42 -20 26 c-25 32 -73 32 -73 0 -1 -11 -4 -25 -8 -31 -20 -33 41 -26 163 19
47 17 87 34 90 37 3 3 23 14 44 25 49 25 102 78 127 127 22 44 23 57 5 81 -12
16 -15 16 -23 4z"/>
<path d="M7392 1110 c-7 -11 -9 -20 -5 -19 20 3 27 -2 13 -11 -12 -8 -12 -10
-1 -10 10 0 11 -3 2 -14 -9 -11 -9 -16 0 -22 8 -5 9 -3 4 6 -5 9 -4 11 4 6 8
-5 9 -12 2 -20 -6 -7 -6 -17 -1 -26 5 -8 6 -18 3 -24 -3 -5 -1 -6 5 -2 14 9
16 82 2 91 -5 3 -7 12 -3 20 3 8 0 15 -6 15 -6 0 -8 7 -5 15 9 21 1 19 -14 -5z"/>
<path d="M3950 1096 c0 -2 7 -7 16 -10 8 -3 12 -2 9 4 -6 10 -25 14 -25 6z"/>
<path d="M1445 1070 c-3 -5 -1 -10 4 -10 6 0 11 5 11 10 0 6 -2 10 -4 10 -3 0
-8 -4 -11 -10z"/>
<path d="M1053 1063 c-13 -2 -23 -8 -23 -13 0 -10 38 -1 46 11 3 5 4 8 2 8 -2
-1 -13 -4 -25 -6z"/>
<path d="M5341 1035 c-17 -19 -38 -49 -47 -66 -13 -26 -17 -29 -27 -16 -17 21
-77 40 -77 24 0 -9 -2 -9 -8 0 -5 9 -13 1 -24 -22 -17 -39 -16 -40 11 -23 15
9 23 9 36 -2 29 -24 53 -21 88 10 19 16 37 27 41 23 3 -3 6 -3 6 0 0 3 9 29
20 57 11 27 18 50 16 50 -2 0 -18 -16 -35 -35z"/>
<path d="M1300 1050 c-17 -11 -8 -23 14 -18 9 2 12 8 8 15 -5 8 -13 9 -22 3z"/>
<path d="M1040 1030 c-9 -6 -10 -10 -3 -10 6 0 15 5 18 10 8 12 4 12 -15 0z"/>
<path d="M1200 1030 c0 -5 5 -10 11 -10 5 0 7 5 4 10 -3 6 -8 10 -11 10 -2 0
-4 -4 -4 -10z"/>
<path d="M1470 1020 c0 -5 5 -10 11 -10 5 0 7 5 4 10 -3 6 -8 10 -11 10 -2 0
-4 -4 -4 -10z"/>
<path d="M2030 1010 c0 -5 5 -10 10 -10 6 0 10 5 10 10 0 6 -4 10 -10 10 -5 0
-10 -4 -10 -10z"/>
<path d="M2142 999 c2 -7 10 -15 17 -17 8 -3 12 1 9 9 -2 7 -10 15 -17 17 -8
3 -12 -1 -9 -9z"/>
<path d="M4034 1001 c4 -5 0 -12 -6 -14 -10 -4 -10 -6 0 -6 7 -1 10 -5 7 -11
-4 -6 12 -10 39 -10 48 0 57 9 30 30 -18 15 -78 24 -70 11z"/>
<path d="M1350 990 c0 -6 7 -10 15 -10 8 0 15 2 15 4 0 2 -7 6 -15 10 -8 3
-15 1 -15 -4z"/>
<path d="M1422 984 c-7 -8 -8 -14 -3 -14 10 0 25 19 20 25 -2 1 -10 -3 -17
-11z"/>
<path d="M1505 990 c3 -5 10 -10 16 -10 5 0 9 5 9 10 0 6 -7 10 -16 10 -8 0
-12 -4 -9 -10z"/>
<path d="M1223 975 c-3 -9 -3 -18 0 -22 9 -8 37 4 37 16 0 6 -7 7 -17 4 -11
-4 -14 -3 -9 5 4 7 5 12 1 12 -3 0 -8 -7 -12 -15z"/>
<path d="M2005 980 c3 -5 8 -10 11 -10 2 0 4 5 4 10 0 6 -5 10 -11 10 -5 0 -7
-4 -4 -10z"/>
<path d="M2310 983 c0 -6 8 -17 18 -24 16 -13 16 -13 2 6 -8 11 -16 22 -17 24
-2 2 -3 0 -3 -6z"/>
<path d="M2435 980 c3 -5 8 -10 11 -10 2 0 4 5 4 10 0 6 -5 10 -11 10 -5 0 -7
-4 -4 -10z"/>
<path d="M3660 980 c-8 -5 -11 -12 -7 -16 4 -4 13 -2 19 4 15 15 7 24 -12 12z"/>
<path d="M1318 973 c7 -3 16 -2 19 1 4 3 -2 6 -13 5 -11 0 -14 -3 -6 -6z"/>
<path d="M1656 965 c7 -17 48 -21 42 -3 -2 6 -14 13 -26 14 -15 3 -20 0 -16
-11z"/>
<path d="M1583 954 c-17 -17 -16 -24 1 -24 19 0 27 13 18 27 -5 7 -11 7 -19
-3z"/>
<path d="M1728 950 c-10 -10 -13 -22 -8 -25 9 -6 23 11 26 33 3 16 1 15 -18
-8z"/>
<path d="M4138 963 c7 -3 16 -2 19 1 4 3 -2 6 -13 5 -11 0 -14 -3 -6 -6z"/>
<path d="M4178 963 c6 -2 18 -2 25 0 6 3 1 5 -13 5 -14 0 -19 -2 -12 -5z"/>
<path d="M740 946 c-8 -11 -33 -15 -91 -14 -72 0 -112 -11 -107 -30 1 -4 -4
-17 -11 -30 -10 -20 -10 -29 4 -58 9 -19 20 -34 25 -34 6 0 9 -3 9 -7 -5 -32
37 -63 84 -63 23 0 25 4 29 68 5 64 17 99 46 130 14 16 34 52 29 52 -3 0 -10
-7 -17 -14z m-76 -74 c-2 -28 -5 -32 -23 -32 -13 0 -18 6 -16 23 3 27 2 26 23
23 9 -2 17 -8 16 -14z m-69 -62 c3 -5 1 -10 -4 -10 -6 0 -11 5 -11 10 0 6 2
10 4 10 3 0 8 -4 11 -10z"/>
<path d="M1000 951 c0 -6 5 -13 10 -16 6 -3 10 1 10 9 0 9 -4 16 -10 16 -5 0
-10 -4 -10 -9z"/>
<path d="M1841 951 c-9 -6 -4 -8 18 -6 17 1 34 5 38 9 10 9 -40 7 -56 -3z"/>
<path d="M2030 956 c0 -2 7 -6 15 -10 8 -3 15 -1 15 4 0 6 -7 10 -15 10 -8 0
-15 -2 -15 -4z"/>
<path d="M2087 949 c7 -7 15 -10 18 -7 3 3 -2 9 -12 12 -14 6 -15 5 -6 -5z"/>
<path d="M1345 940 c8 -13 46 -19 42 -7 -2 7 -13 13 -25 13 -12 1 -19 -2 -17
-6z"/>
<path d="M1945 930 c-3 -5 -1 -10 4 -10 6 0 11 5 11 10 0 6 -2 10 -4 10 -3 0
-8 -4 -11 -10z"/>
<path d="M2260 926 c0 -2 7 -7 16 -10 8 -3 12 -2 9 4 -6 10 -25 14 -25 6z"/>
<path d="M915 909 c-4 -6 -5 -13 -2 -16 7 -7 27 6 27 18 0 12 -17 12 -25 -2z"/>
<path d="M1645 910 c3 -5 10 -10 16 -10 5 0 9 5 9 10 0 6 -7 10 -16 10 -8 0
-12 -4 -9 -10z"/>
<path d="M2215 910 c-3 -5 1 -10 9 -10 9 0 16 5 16 10 0 6 -4 10 -9 10 -6 0
-13 -4 -16 -10z"/>
<path d="M2385 910 c-3 -5 -1 -10 4 -10 6 0 11 5 11 10 0 6 -2 10 -4 10 -3 0
-8 -4 -11 -10z"/>
<path d="M1530 903 c0 -14 15 -29 33 -36 19 -7 24 9 5 16 -7 3 -2 6 12 7 23 1
23 2 5 10 -25 11 -55 12 -55 3z"/>
<path d="M2124 903 c3 -4 17 -8 29 -10 17 -2 19 -1 7 7 -17 11 -47 14 -36 3z"/>
<path d="M2430 900 c0 -5 7 -10 15 -10 8 0 15 5 15 10 0 6 -7 10 -15 10 -8 0
-15 -4 -15 -10z"/>
<path d="M1480 885 c0 -8 5 -15 10 -15 6 0 10 7 10 15 0 8 -4 15 -10 15 -5 0
-10 -7 -10 -15z"/>
<path d="M1270 880 c0 -5 5 -10 11 -10 5 0 7 5 4 10 -3 6 -8 10 -11 10 -2 0
-4 -4 -4 -10z"/>
<path d="M1970 886 c0 -2 7 -7 16 -10 8 -3 12 -2 9 4 -6 10 -25 14 -25 6z"/>
<path d="M2010 864 c0 -8 5 -12 10 -9 6 4 8 11 5 16 -9 14 -15 11 -15 -7z"/>
<path d="M2775 870 c-3 -5 1 -10 10 -10 9 0 13 5 10 10 -3 6 -8 10 -10 10 -2
0 -7 -4 -10 -10z"/>
<path d="M7420 866 c0 -10 9 -16 21 -16 24 0 21 23 -4 28 -10 2 -17 -3 -17
-12z"/>
<path d="M2077 864 c-8 -8 1 -24 14 -24 5 0 9 7 9 15 0 15 -12 20 -23 9z"/>
<path d="M2532 849 c2 -7 10 -15 17 -17 8 -3 12 1 9 9 -2 7 -10 15 -17 17 -8
3 -12 -1 -9 -9z"/>
<path d="M1070 840 c-13 -8 -12 -10 3 -10 9 0 17 5 17 10 0 12 -1 12 -20 0z"/>
<path d="M2246 835 c4 -8 11 -15 16 -15 6 0 5 6 -2 15 -7 8 -14 15 -16 15 -2
0 -1 -7 2 -15z"/>
<path d="M1119 834 c-6 -26 0 -58 12 -62 12 -3 11 -2 -1 7 -13 9 -13 11 1 11
9 0 19 -7 23 -15 3 -8 1 -15 -5 -15 -6 0 -7 -5 -3 -11 5 -8 10 -6 16 5 7 13 5
23 -8 37 -14 16 -15 22 -5 28 9 6 7 10 -8 14 -12 3 -21 3 -22 1z"/>
<path d="M2330 836 c0 -2 7 -7 16 -10 8 -3 12 -2 9 4 -6 10 -25 14 -25 6z"/>
<path d="M2695 810 c-3 -5 -1 -10 4 -10 6 0 11 5 11 10 0 6 -2 10 -4 10 -3 0
-8 -4 -11 -10z"/>
<path d="M5624 805 c-10 -25 15 -75 34 -68 33 11 42 33 25 59 -17 27 -51 32
-59 9z"/>
<path d="M2540 775 c0 -9 5 -15 11 -13 6 2 11 8 11 13 0 5 -5 11 -11 13 -6 2
-11 -4 -11 -13z"/>
<path d="M2790 779 c0 -5 5 -7 10 -4 6 3 10 8 10 11 0 2 -4 4 -10 4 -5 0 -10
-5 -10 -11z"/>
<path d="M2840 776 c0 -10 28 -13 41 -5 10 6 7 9 -13 9 -16 0 -28 -2 -28 -4z"/>
<path d="M700 754 c0 -8 5 -12 10 -9 6 4 8 11 5 16 -9 14 -15 11 -15 -7z"/>
<path d="M2600 760 c0 -5 5 -10 11 -10 5 0 7 5 4 10 -3 6 -8 10 -11 10 -2 0
-4 -4 -4 -10z"/>
<path d="M4959 743 c-13 -16 -12 -17 4 -4 9 7 17 15 17 17 0 8 -8 3 -21 -13z"/>
<path d="M5741 748 c-29 -6 -40 -13 -31 -18 14 -9 66 6 76 21 3 5 4 9 2 8 -2
-1 -23 -6 -47 -11z"/>
<path d="M2627 743 c-4 -3 0 -15 10 -25 9 -10 11 -18 5 -18 -11 0 -11 -25 1
-36 4 -4 7 2 7 14 0 11 4 23 9 26 13 8 1 46 -13 46 -7 0 -16 -3 -19 -7z"/>
<path d="M3690 720 c8 -5 20 -10 25 -10 6 0 3 5 -5 10 -8 5 -19 10 -25 10 -5
0 -3 -5 5 -10z"/>
<path d="M2950 711 c0 -6 5 -13 10 -16 6 -3 10 1 10 9 0 9 -4 16 -10 16 -5 0
-10 -4 -10 -9z"/>
<path d="M4690 702 c0 -19 49 -72 67 -72 18 0 23 43 7 67 -19 29 -74 33 -74 5z"/>
<path d="M2770 700 c-8 -5 -10 -10 -5 -10 6 0 17 5 25 10 8 5 11 10 5 10 -5 0
-17 -5 -25 -10z"/>
<path d="M2853 693 c9 -9 19 -14 23 -11 10 10 -6 28 -24 28 -15 0 -15 -1 1
-17z"/>
<path d="M2895 700 c-3 -5 -1 -10 4 -10 6 0 11 5 11 10 0 6 -2 10 -4 10 -3 0
-8 -4 -11 -10z"/>
<path d="M2990 700 c0 -5 7 -10 16 -10 8 0 12 5 9 10 -3 6 -10 10 -16 10 -5 0
-9 -4 -9 -10z"/>
<path d="M1118 693 c-23 -6 -23 -19 -1 -27 10 -4 14 -4 10 0 -4 4 1 13 11 20
17 14 11 15 -20 7z"/>
<path d="M1060 680 c-13 -8 -12 -10 3 -10 9 0 17 -5 17 -11 0 -5 4 -8 10 -4 9
6 3 35 -9 35 -3 0 -13 -5 -21 -10z"/>
<path d="M2890 676 c0 -9 32 -36 42 -36 6 0 1 9 -12 20 -23 20 -30 24 -30 16z"/>
<path d="M3715 660 c-3 -5 -1 -10 4 -10 6 0 11 5 11 10 0 6 -2 10 -4 10 -3 0
-8 -4 -11 -10z"/>
<path d="M5815 647 c-14 -20 -13 -23 7 -39 19 -14 26 -15 48 -3 27 14 61 48
44 44 -5 -1 -16 0 -24 4 -43 16 -61 14 -75 -6z"/>
<path d="M5214 646 c-6 -16 17 -66 40 -85 12 -10 17 -7 30 18 9 16 16 35 16
42 0 31 -75 53 -86 25z"/>
<path d="M4913 625 c-4 -11 5 -28 26 -48 27 -28 33 -30 45 -17 8 8 16 29 18
45 3 29 1 30 -40 33 -32 2 -44 -1 -49 -13z"/>
<path d="M2740 614 c-10 -11 -9 -14 8 -14 25 0 37 16 18 23 -8 3 -20 -1 -26
-9z"/>
<path d="M1165 601 c-9 -16 11 -36 45 -46 22 -6 23 -6 8 6 -10 8 -24 23 -31
33 -10 14 -16 16 -22 7z"/>
<path d="M1400 555 c7 -9 15 -13 17 -11 7 7 -7 26 -19 26 -6 0 -6 -6 2 -15z"/>
<path d="M3427 556 c-4 -11 -5 -21 -2 -24 3 -3 5 0 5 7 0 7 4 10 9 6 5 -3 13
0 17 6 4 7 3 9 -4 5 -5 -3 -12 -1 -14 6 -3 7 -7 5 -11 -6z"/>
<path d="M1493 531 c-2 -20 22 -36 32 -21 8 12 -5 40 -19 40 -6 0 -12 -9 -13
-19z"/>
<path d="M1692 533 c2 -11 -2 -17 -10 -15 -8 1 -11 -2 -7 -8 10 -16 35 8 28
26 -7 20 -14 18 -11 -3z"/>
<path d="M3486 542 c-3 -5 1 -9 9 -9 8 0 12 4 9 9 -3 4 -7 8 -9 8 -2 0 -6 -4
-9 -8z"/>
<path d="M1586 527 c3 -10 9 -15 12 -12 3 3 0 11 -7 18 -10 9 -11 8 -5 -6z"/>
<path d="M1625 510 c-3 -5 1 -10 9 -10 9 0 16 5 16 10 0 6 -4 10 -9 10 -6 0
-13 -4 -16 -10z"/>
<path d="M1635 490 l-30 -6 38 -5 c20 -3 37 -2 37 2 0 13 -14 16 -45 9z"/>
<path d="M2780 450 c-25 -16 6 -34 52 -31 11 1 15 6 12 16 -4 8 -10 12 -15 9
-6 -3 -15 -1 -22 5 -8 6 -18 6 -27 1z"/>
<path d="M2693 408 c-3 -7 -1 -8 5 -4 7 4 12 3 12 -1 0 -5 9 -9 19 -9 24 0 18
12 -9 19 -11 3 -23 0 -27 -5z"/>
<path d="M2905 390 c-19 -8 -19 -9 3 -9 12 -1 22 4 22 9 0 6 -1 10 -2 9 -2 0
-12 -4 -23 -9z"/>
</g>
</svg>
