<?xml version="1.0" encoding="UTF-8" standalone="no"?>
<!-- Created with Inkscape (http://www.inkscape.org/) -->

<svg
   version="1.1"
   id="svg2"
   width="1024"
   height="1024"
   viewBox="0 0 1024 1024"
   sodipodi:docname="weltkugel.svg"
   inkscape:version="1.2.1 (9c6d41e410, 2022-07-14)"
   xmlns:inkscape="http://www.inkscape.org/namespaces/inkscape"
   xmlns:sodipodi="http://sodipodi.sourceforge.net/DTD/sodipodi-0.dtd"
   xmlns="http://www.w3.org/2000/svg"
   xmlns:svg="http://www.w3.org/2000/svg">
  <defs
     id="defs6" />
  <sodipodi:namedview
     id="namedview4"
     pagecolor="#ffffff"
     bordercolor="#000000"
     borderopacity="0.25"
     inkscape:showpageshadow="2"
     inkscape:pageopacity="0.0"
     inkscape:pagecheckerboard="0"
     inkscape:deskcolor="#d1d1d1"
     showgrid="false"
     inkscape:zoom="0.81738281"
     inkscape:cx="513.22342"
     inkscape:cy="512.61171"
     inkscape:window-width="1920"
     inkscape:window-height="1017"
     inkscape:window-x="-8"
     inkscape:window-y="-8"
     inkscape:window-maximized="1"
     inkscape:current-layer="g8" />
  <g
     inkscape:groupmode="layer"
     inkscape:label="Image"
     id="g8">
    <g
       id="g170"
       transform="translate(-11.010748,11.010756)">
      <path
         style="fill:#f9f9f9"
         d="m 454.89367,852.94853 c -117.98051,-3.66786 -193.59664,-12.79862 -207.98498,-25.1145 -4.71469,-4.0356 -5.04513,-6.49607 -1.51502,-11.28086 1.375,-1.86371 2.5,-3.06576 2.5,-2.67123 0,0.39454 1.03967,0.0361 2.31037,-0.79648 11.55892,-7.57369 71.09951,-16.34225 135.68963,-19.98306 5.225,-0.29452 13.80959,-0.79086 19.07686,-1.10297 47.59763,-2.8204 179.08388,-2.84659 222.92314,-0.0444 4.675,0.29883 13.225,0.79345 19,1.09917 5.775,0.30571 12.75,0.75969 15.5,1.00883 2.75,0.24914 8.825,0.71423 13.5,1.03354 37.4865,2.56038 94,10.76444 94,13.64597 0,0.51077 0.39447,0.68487 0.87659,0.3869 1.22565,-0.75749 11.12341,2.29553 11.12341,3.43109 0,0.51143 0.62864,0.68864 1.39698,0.3938 1.69845,-0.65176 6.24654,4.04238 7.0611,7.28783 0.32468,1.29363 0.0338,3.35532 -0.64633,4.58153 -0.68016,1.22621 -1.14105,2.56698 -1.0242,2.97948 0.11685,0.4125 -0.12505,0.65904 -0.53755,0.54786 -0.4125,-0.11118 -2.66877,0.80116 -5.01393,2.02742 -17.7566,9.28479 -76.69273,16.89683 -164.23607,21.2123 -20.70161,1.0205 -142.43158,2.02831 -164,1.35778 z m 103.5,-1.40278 c 48.57251,-0.98115 55.44972,-1.22493 86,-3.04852 50.14212,-2.99306 87.14739,-6.95131 104,-11.1243 4.4,-1.08951 9.91794,-2.43228 12.2621,-2.98391 2.34415,-0.55164 6.38643,-2.42788 8.98285,-4.16942 13.30489,-8.92423 4.94985,-18.96351 -20.1933,-24.26394 -3.87841,-0.81761 -8.62665,-1.7144 -10.55165,-1.99286 -1.925,-0.27847 -4.05962,-0.69432 -4.74359,-0.92412 -2.97647,-1.00003 -26.67935,-3.57156 -49.75641,-5.39809 -40.8685,-3.2347 -66.51849,-4.52217 -112.5,-5.6468 -64.401,-1.57513 -126.10019,-0.54344 -187.5,3.13524 -76.30895,4.57195 -113.39923,10.70073 -123.62432,20.42762 -3.49193,3.32179 -4.0162,4.33485 -3.46983,6.70478 0.35399,1.53546 2.41581,4.41308 4.58183,6.39473 12.99859,11.89214 80.12832,19.3348 206.01232,22.84054 39.33592,1.09547 38.71237,1.09513 90.5,0.049 z m 20.57895,-294.57591 c 0.048,-1.16495 0.28494,-1.4019 0.60416,-0.60417 0.28887,0.72187 0.25335,1.58438 -0.0789,1.91667 -0.33229,0.33229 -0.56864,-0.25834 -0.52522,-1.3125 z m 24.32604,-193.66667 -1.90499,-2.25 2.25,1.90499 c 1.2375,1.04774 2.25,2.06024 2.25,2.25 0,0.80025 -0.80479,0.20945 -2.59501,-1.90499 z m -13.40499,-91.12756 c 0,-0.20765 0.7875,-0.99515 1.75,-1.75 1.58606,-1.24387 1.62143,-1.2085 0.37756,0.37756 -1.30637,1.66575 -2.12756,2.19548 -2.12756,1.37244 z M 457.97262,241.96984 c 0.048,-1.16495 0.28494,-1.4019 0.60416,-0.60417 0.28887,0.72187 0.25335,1.58437 -0.0789,1.91667 -0.33229,0.33229 -0.56864,-0.25834 -0.52522,-1.3125 z m 163.73355,-61.09978 c 0.72187,-0.28887 1.58438,-0.25335 1.91667,0.0789 0.33229,0.33229 -0.25834,0.56864 -1.3125,0.52522 -1.16495,-0.048 -1.4019,-0.28494 -0.60417,-0.60416 z"
         id="path240" />
      <path
         style="fill:#f5f6f6"
         d="m 467.89367,851.4967 c -103.27264,-2.87604 -161.91196,-7.9323 -192.78706,-16.62334 -10.23937,-2.88229 -16.60307,-7.3894 -17.80709,-12.61193 -0.54637,-2.36993 -0.0221,-3.38299 3.46983,-6.70478 10.22509,-9.72689 47.31537,-15.85567 123.62432,-20.42762 61.39981,-3.67868 123.099,-4.71037 187.5,-3.13524 45.98151,1.12463 71.6315,2.4121 112.5,5.6468 23.07706,1.82653 46.77994,4.39806 49.75641,5.39809 0.68397,0.2298 2.81859,0.64565 4.74359,0.92412 14.38403,2.08076 25.85847,5.65611 31.77866,9.90198 7.25928,5.20625 6.89058,11.03962 -1.03371,16.35482 -2.59642,1.74154 -6.6387,3.61778 -8.98285,4.16942 -2.34416,0.55163 -7.8621,1.8944 -12.2621,2.98391 -19.69082,4.87578 -66.30298,9.36726 -131.5,12.67115 -13.3179,0.67489 -103.84539,2.5178 -114.5,2.33093 -4.4,-0.0772 -19.925,-0.47241 -34.5,-0.87831 z m 82.5,-1.44731 c 122.34348,-2.41789 190.76605,-9.04091 207.44731,-20.08005 7.86748,-5.20645 7.10532,-12.91335 -1.74925,-17.68839 -18.93459,-10.21093 -79.17925,-16.14834 -191.19806,-18.84355 -100.91717,-2.42809 -229.81716,3.62091 -268.5,12.60013 -21.92553,5.08944 -29.79232,10.88269 -25.90419,19.0763 2.48333,5.23322 11.33485,9.03256 29.90419,12.83576 28.07431,5.74993 85.58514,9.87109 162,11.60874 25.85,0.58782 48.35,1.19335 50,1.34562 1.65,0.15228 3.9,0.16014 5,0.0175 1.1,-0.14266 15.95,-0.53507 33,-0.87204 z M 770.97262,416.96984 c 0.048,-1.16495 0.28494,-1.4019 0.60416,-0.60417 0.28887,0.72187 0.25335,1.58438 -0.0789,1.91667 -0.33229,0.33229 -0.56864,-0.25834 -0.52522,-1.3125 z"
         id="path238" />
      <path
         style="fill:#f1f1f1"
         d="m 512.39367,850.90395 c -1.65,-0.15227 -24.15,-0.7578 -50,-1.34562 -123.06917,-2.79855 -185.40012,-10.73818 -191.90419,-24.4445 -8.971,-18.90498 47.68794,-27.90816 199.40419,-31.68559 77.44138,-1.92814 181.06166,1.45132 235.5,7.68057 43.42435,4.96894 61.27302,12.19121 57.42294,23.23558 -5.22277,14.98204 -70.68784,22.90387 -212.42294,25.705 -17.05,0.33697 -31.9,0.72938 -33,0.87204 -1.1,0.14266 -3.35,0.1348 -5,-0.0175 z m 56,-2.85793 c 45.28997,-0.96175 77.14698,-2.54136 111.33727,-5.5206 25.98493,-2.26424 38.01477,-4.05833 51.11127,-7.62254 17.29659,-4.70727 18.25023,-5.72803 17.18152,-18.3908 -0.16849,-1.99642 -8.94108,-6.38035 -16.78755,-8.38925 -20.1279,-5.15325 -57.44326,-9.07884 -105.34251,-11.08207 -25.75458,-1.0771 -117.55809,-3.29216 -120.06717,-2.89701 -1.33806,0.21073 -22.00783,0.83465 -45.93283,1.38649 -81.36697,1.87676 -132.04553,5.96426 -156.96723,12.66026 -16.27492,4.37277 -19.62001,7.1172 -18.63505,15.28882 0.28681,2.37951 0.65216,4.41326 0.81188,4.51945 17.75391,11.80317 71.96902,17.63395 187.2904,20.14291 16.5,0.35898 30.225,0.87763 30.5,1.15255 0.275,0.27492 9.95,0.21643 21.5,-0.12997 11.55,-0.3464 31.35,-0.84961 44,-1.11824 z"
         id="path236" />
      <path
         style="fill:#ededed"
         d="m 502.89367,849.29423 c -0.275,-0.27492 -14,-0.79357 -30.5,-1.15255 -115.32138,-2.50896 -169.53649,-8.33974 -187.2904,-20.14291 -0.15972,-0.10619 -0.52507,-2.13994 -0.81188,-4.51945 -0.98496,-8.17162 2.36013,-10.91605 18.63505,-15.28882 24.9217,-6.696 75.60026,-10.7835 156.96723,-12.66026 23.925,-0.55184 44.59477,-1.17576 45.93283,-1.38649 2.50908,-0.39515 94.31259,1.81991 120.06717,2.89701 47.89925,2.00323 85.21461,5.92882 105.34251,11.08207 7.84647,2.0089 16.61906,6.39283 16.78755,8.38925 1.06871,12.66277 0.11507,13.68353 -17.18152,18.3908 -13.0965,3.56421 -25.12634,5.3583 -51.11127,7.62254 -34.19029,2.97924 -66.0473,4.55885 -111.33727,5.5206 -12.65,0.26863 -32.45,0.77184 -44,1.11824 -11.55,0.3464 -21.225,0.40489 -21.5,0.12997 z m 64,-2.72943 c 103.1287,-2.65862 158.94358,-8.80424 166.88701,-18.37548 1.4253,-1.71738 2.34265,-10.74114 1.24888,-12.28487 -1.78214,-2.51527 -11.96278,-6.67838 -21.63589,-8.84745 -11.71122,-2.62608 -43.00771,-6.00348 -65.32733,-7.04987 -6.96997,-0.32677 -13.28671,-0.79324 -14.03721,-1.03661 -0.7505,-0.24337 -27.0755,-1.11746 -58.5,-1.94243 -67.1247,-1.76218 -142.32877,-0.55968 -192.13546,3.07223 -52.57782,3.83398 -79.34652,8.62839 -84.45826,15.12692 -1.98368,2.52183 -2.50947,7.04477 -1.34766,11.5927 1.73681,6.79876 33.48434,12.85677 84.80592,16.18252 4.95,0.32077 12.6,0.8622 17,1.20318 11.05874,0.857 84.66611,3.01905 109,3.20162 11,0.0825 37.325,-0.29657 58.5,-0.84246 z"
         id="path234" />
      <path
         style="fill:#e9e9e9"
         d="m 447.89367,846.04141 c -22.275,-0.66869 -44.1,-1.49479 -48.5,-1.83577 -4.4,-0.34098 -12.05,-0.88241 -17,-1.20318 -51.32158,-3.32575 -83.06911,-9.38376 -84.80592,-16.18252 -1.16181,-4.54793 -0.63602,-9.07087 1.34766,-11.5927 5.16472,-6.56588 37.90184,-12.31627 86.45826,-15.18668 5.5,-0.32514 16.075,-1.01598 23.5,-1.53521 7.425,-0.51922 20.7,-0.8711 29.5,-0.78196 l 16,0.1621 -21.5,0.73189 c -68.63098,2.33631 -115.39618,8.50816 -124.86986,16.47974 -2.40563,2.02421 -2.78321,3.0387 -2.66256,7.15398 0.12451,4.2467 0.52135,5.0519 3.46887,7.03823 3.98072,2.68261 6.85851,3.54277 22.56355,6.7442 22.15406,4.51605 57.10292,7.00617 128,9.12006 44.10374,1.315 60.97306,1.39265 100.5,0.4626 26.125,-0.61471 54.7,-1.55961 63.5,-2.09979 8.8,-0.54017 20.05,-1.20703 25,-1.48191 37.15643,-2.06331 69.84012,-7.95009 76.18674,-13.72227 1.79786,-1.63514 2.14706,-2.93811 1.96363,-7.32697 -0.25653,-6.13763 0.1391,-5.53578 -5.51312,-8.387 -16.24316,-8.19377 -70.35489,-13.02656 -169.13683,-15.10584 -28.87477,-0.60779 -52.68727,-1.29276 -52.91667,-1.52216 -0.2294,-0.22939 4.27042,-0.41137 9.99958,-0.40439 16.96585,0.0207 123.56619,2.9227 125.05126,3.40433 0.75097,0.24355 7.06811,0.71017 14.03808,1.03694 22.31962,1.04639 53.61611,4.42379 65.32733,7.04987 9.67311,2.16907 19.85375,6.33218 21.63589,8.84745 1.09377,1.54373 0.17642,10.56749 -1.24888,12.28487 -7.94343,9.57124 -63.75831,15.71686 -166.88701,18.37548 -45.73214,1.17896 -65.13491,1.09362 -119,-0.52339 z m 21.30194,-49.23437 c 5.39107,-0.18015 13.94107,-0.17936 19,0.002 5.05893,0.18111 0.64806,0.32851 -9.80194,0.32755 -10.45,-9.6e-4 -14.58913,-0.14915 -9.19806,-0.3293 z M 719.65533,399.84591 c 1.24391,-0.23919 3.04391,-0.23011 4,0.0202 0.95609,0.25029 -0.0617,0.446 -2.26166,0.4349 -2.2,-0.0111 -2.98225,-0.21589 -1.73834,-0.45508 z"
         id="path232" />
      <path
         style="fill:#e4e6e8"
         d="m 496.64367,845.82096 c 2.3375,-0.21053 6.1625,-0.21053 8.5,0 2.3375,0.21054 0.425,0.3828 -4.25,0.3828 -4.675,0 -6.5875,-0.17226 -4.25,-0.3828 z m 28.5,-0.007 c 3.1625,-0.19845 8.3375,-0.19845 11.5,0 3.1625,0.19845 0.575,0.36082 -5.75,0.36082 -6.325,0 -8.9125,-0.16237 -5.75,-0.36082 z m -62.96349,-1.00109 c 3.18258,-0.19905 8.13258,-0.1972 11,0.004 2.86742,0.20131 0.26349,0.36417 -5.78651,0.36191 -6.05,-0.002 -8.39607,-0.16696 -5.21349,-0.36601 z m 102.50268,-10e-4 c 3.45905,-0.19583 8.85905,-0.19422 12,0.004 3.14094,0.19781 0.31081,0.35803 -6.28919,0.35606 -6.6,-0.002 -9.16987,-0.16382 -5.71081,-0.35965 z m -141.00567,-0.9971 c 2.90594,-0.20265 7.40594,-0.20052 10,0.005 2.59406,0.20525 0.21648,0.37104 -5.28352,0.36844 -5.5,-0.003 -7.62242,-0.17053 -4.71648,-0.37317 z m 180.94418,0.0167 c 1.77523,-0.22091 4.92523,-0.22454 7,-0.008 2.07476,0.21648 0.6223,0.39722 -3.2277,0.40166 -3.85,0.004 -5.54754,-0.17268 -3.7723,-0.39359 z m -202.4777,-0.96763 c 0.9625,-0.25152 2.5375,-0.25152 3.5,0 0.9625,0.25153 0.175,0.45733 -1.75,0.45733 -1.925,0 -2.7125,-0.2058 -1.75,-0.45733 z m 224,0 c 0.9625,-0.25152 2.5375,-0.25152 3.5,0 0.9625,0.25153 0.175,0.45733 -1.75,0.45733 -1.925,0 -2.7125,-0.2058 -1.75,-0.45733 z m -238,-1 c 0.9625,-0.25152 2.5375,-0.25152 3.5,0 0.9625,0.25153 0.175,0.45733 -1.75,0.45733 -1.925,0 -2.7125,-0.2058 -1.75,-0.45733 z m 251.5,-0.0164 c 1.2375,-0.23836 3.2625,-0.23836 4.5,0 1.2375,0.23835 0.225,0.43337 -2.25,0.43337 -2.475,0 -3.4875,-0.19502 -2.25,-0.43337 z m -267.98834,-1.00153 c 1.24391,-0.23919 3.04391,-0.23011 4,0.0202 0.95609,0.25029 -0.0617,0.446 -2.26166,0.4349 -2.2,-0.0111 -2.98225,-0.21589 -1.73834,-0.45508 z m 287.48834,0.0179 c 0.9625,-0.25152 2.5375,-0.25152 3.5,0 0.9625,0.25153 0.175,0.45733 -1.75,0.45733 -1.925,0 -2.7125,-0.2058 -1.75,-0.45733 z m -298,-1 c 0.9625,-0.25152 2.5375,-0.25152 3.5,0 0.9625,0.25153 0.175,0.45733 -1.75,0.45733 -1.925,0 -2.7125,-0.2058 -1.75,-0.45733 z m 308,0 c 0.9625,-0.25152 2.5375,-0.25152 3.5,0 0.9625,0.25153 0.175,0.45733 -1.75,0.45733 -1.925,0 -2.7125,-0.2058 -1.75,-0.45733 z m -319,-1 c 0.9625,-0.25152 2.5375,-0.25152 3.5,0 0.9625,0.25153 0.175,0.45733 -1.75,0.45733 -1.925,0 -2.7125,-0.2058 -1.75,-0.45733 z m 329.51166,-0.0179 c 1.24391,-0.23919 3.04391,-0.23011 4,0.0202 0.95609,0.25029 -0.0617,0.446 -2.26166,0.4349 -2.2,-0.0111 -2.98225,-0.21589 -1.73834,-0.45508 z m -337.01166,-0.95502 c 0.6875,-0.27741 1.8125,-0.27741 2.5,0 0.6875,0.27741 0.125,0.50439 -1.25,0.50439 -1.375,0 -1.9375,-0.22698 -1.25,-0.50439 z m 345.0625,-0.0208 c 0.72187,-0.28887 1.58438,-0.25335 1.91667,0.0789 0.33229,0.33229 -0.25834,0.56864 -1.3125,0.52522 -1.16495,-0.048 -1.4019,-0.28494 -0.60417,-0.60416 z m -351.0625,-0.9792 c 0.6875,-0.27741 1.8125,-0.27741 2.5,0 0.6875,0.27741 0.125,0.50439 -1.25,0.50439 -1.375,0 -1.9375,-0.22698 -1.25,-0.50439 z m 356.0625,-0.0208 c 0.72187,-0.28887 1.58438,-0.25335 1.91667,0.0789 0.33229,0.33229 -0.25834,0.56864 -1.3125,0.52522 -1.16495,-0.048 -1.4019,-0.28494 -0.60417,-0.60416 z m -361.0625,-0.9792 c 0.6875,-0.27741 1.8125,-0.27741 2.5,0 0.6875,0.27741 0.125,0.50439 -1.25,0.50439 -1.375,0 -1.9375,-0.22698 -1.25,-0.50439 z m 366,0 c 0.6875,-0.27741 1.8125,-0.27741 2.5,0 0.6875,0.27741 0.125,0.50439 -1.25,0.50439 -1.375,0 -1.9375,-0.22698 -1.25,-0.50439 z m -373.75,-1.33772 c -1.97958,-0.63397 -2.08367,-0.80064 -0.5,-0.80064 1.1,0 3.125,0.36029 4.5,0.80064 1.97958,0.63397 2.08367,0.80064 0.5,0.80064 -1.1,0 -3.125,-0.36029 -4.5,-0.80064 z m 386,-1.35495 c 8.32579,-2.49527 11.10529,-3.98274 12.9441,-6.92714 1.00061,-1.60223 0.98091,-2.15031 -0.10193,-2.83662 -0.74863,-0.47448 -0.85668,-0.85744 -0.24435,-0.86598 0.6038,-0.008 1.13646,-1.37449 1.1837,-3.0357 0.0985,-3.46526 -1.59258,-4.85315 -10.51795,-8.63212 -4.45363,-1.88565 -4.96809,-2.29384 -2.26357,-1.79598 3.81631,0.70253 14.91434,5.34629 15.14001,6.33505 0.077,0.33739 0.26007,2.9369 0.4068,5.77668 0.2179,4.21693 -0.1285,5.52744 -1.89001,7.15036 -2.14738,1.97844 -17.22391,7.23486 -20.45842,7.13282 -0.93411,-0.0295 1.67662,-1.06509 5.80162,-2.30137 z m -395.44218,-1.13717 c -7.0196,-2.50062 -8.93658,-4.56898 -9.09018,-9.808 -0.10705,-3.65149 0.35053,-5.11988 2.11076,-6.77353 2.34971,-2.20744 14.27251,-6.96609 17.21709,-6.87172 0.93748,0.0301 -1.44549,1.19942 -5.29549,2.59862 -8.63348,3.13764 -9.62132,4.05693 -10.48665,9.75881 -0.80743,5.32036 0.58112,7.14656 7.98665,10.50391 5.11335,2.31817 3.50081,2.709 -2.44218,0.59191 z m 13.19218,-24.17016 c 0.6875,-0.27741 1.8125,-0.27741 2.5,0 0.6875,0.27741 0.125,0.50439 -1.25,0.50439 -1.375,0 -1.9375,-0.22698 -1.25,-0.50439 z m 376,0 c 0.6875,-0.27741 1.8125,-0.27741 2.5,0 0.6875,0.27741 0.125,0.50439 -1.25,0.50439 -1.375,0 -1.9375,-0.22698 -1.25,-0.50439 z m -370,-1 c 0.6875,-0.27741 1.8125,-0.27741 2.5,0 0.6875,0.27741 0.125,0.50439 -1.25,0.50439 -1.375,0 -1.9375,-0.22698 -1.25,-0.50439 z m 365,0 c 0.6875,-0.27741 1.8125,-0.27741 2.5,0 0.6875,0.27741 0.125,0.50439 -1.25,0.50439 -1.375,0 -1.9375,-0.22698 -1.25,-0.50439 z m -358.9375,-1.02083 c 0.72187,-0.28887 1.58438,-0.25335 1.91667,0.0789 0.33229,0.33229 -0.25834,0.56864 -1.3125,0.52522 -1.16495,-0.048 -1.4019,-0.28494 -0.60417,-0.60416 z m 353.9375,0.0208 c 0.6875,-0.27741 1.8125,-0.27741 2.5,0 0.6875,0.27741 0.125,0.50439 -1.25,0.50439 -1.375,0 -1.9375,-0.22698 -1.25,-0.50439 z m -347.9375,-1.02083 c 0.72187,-0.28887 1.58438,-0.25335 1.91667,0.0789 0.33229,0.33229 -0.25834,0.56864 -1.3125,0.52522 -1.16495,-0.048 -1.4019,-0.28494 -0.60417,-0.60416 z m 341.45653,-0.01 c 0.97297,-0.25354 2.32297,-0.23687 3,0.0371 0.67703,0.27393 -0.11903,0.48137 -1.76903,0.46099 -1.65,-0.0204 -2.20394,-0.2445 -1.23097,-0.49804 z m -334,-1 c 0.97297,-0.25354 2.32297,-0.23687 3,0.0371 0.67703,0.27393 -0.11903,0.48137 -1.76903,0.46099 -1.65,-0.0204 -2.20394,-0.2445 -1.23097,-0.49804 z m 323.98097,0.004 c 0.9625,-0.25152 2.5375,-0.25152 3.5,0 0.9625,0.25153 0.175,0.45733 -1.75,0.45733 -1.925,0 -2.7125,-0.2058 -1.75,-0.45733 z M 363.1627,802.86037 c 0.97297,-0.25354 2.32297,-0.23687 3,0.0371 0.67703,0.27393 -0.11903,0.48137 -1.76903,0.46099 -1.65,-0.0204 -2.20394,-0.2445 -1.23097,-0.49804 z m 302.98097,0.004 c 0.9625,-0.25152 2.5375,-0.25152 3.5,0 0.9625,0.25153 0.175,0.45733 -1.75,0.45733 -1.925,0 -2.7125,-0.2058 -1.75,-0.45733 z M 374.1627,801.86071 c 0.97297,-0.25354 2.32297,-0.23687 3,0.0371 0.67703,0.27393 -0.11903,0.48137 -1.76903,0.46099 -1.65,-0.0204 -2.20394,-0.2445 -1.23097,-0.49804 z m 282.98097,0.004 c 0.9625,-0.25152 2.5375,-0.25152 3.5,0 0.9625,0.25153 0.175,0.45733 -1.75,0.45733 -1.925,0 -2.7125,-0.2058 -1.75,-0.45733 z m -267.5,-1.0164 c 1.2375,-0.23836 3.2625,-0.23836 4.5,0 1.2375,0.23835 0.225,0.43337 -2.25,0.43337 -2.475,0 -3.4875,-0.19502 -2.25,-0.43337 z m 252.5,0.0164 c 0.9625,-0.25152 2.5375,-0.25152 3.5,0 0.9625,0.25153 0.175,0.45733 -1.75,0.45733 -1.925,0 -2.7125,-0.2058 -1.75,-0.45733 z m -235.98625,-1.02825 c 1.52006,-0.22986 3.77006,-0.22371 5,0.0136 1.22994,0.23736 -0.0138,0.42542 -2.76375,0.41792 -2.75,-0.008 -3.75631,-0.20172 -2.23625,-0.43157 z m 218.98625,0.0282 c 0.9625,-0.25152 2.5375,-0.25152 3.5,0 0.9625,0.25153 0.175,0.45733 -1.75,0.45733 -1.925,0 -2.7125,-0.2058 -1.75,-0.45733 z M 422.6701,798.81967 c 2.35204,-0.21124 5.95204,-0.20827 8,0.007 2.04796,0.21487 0.12357,0.38771 -4.27643,0.38408 -4.4,-0.004 -6.07561,-0.17944 -3.72357,-0.39069 z m 175.97357,-0.004 c 2.8875,-0.202 7.6125,-0.202 10.5,0 2.8875,0.202 0.525,0.36728 -5.25,0.36728 -5.775,0 -8.1375,-0.16528 -5.25,-0.36728 z m -138.5,-1.00431 c 3.7125,-0.19241 9.7875,-0.19241 13.5,0 3.7125,0.19241 0.675,0.34983 -6.75,0.34983 -7.425,0 -10.4625,-0.15742 -6.75,-0.34983 z m 99.03651,10e-4 c 3.18258,-0.19905 8.13258,-0.1972 11,0.004 2.86742,0.20131 0.26349,0.36417 -5.78651,0.36191 -6.05,-0.002 -8.39607,-0.16696 -5.21349,-0.36601 z m -58.53651,-0.9914 c 2.3375,-0.21053 6.1625,-0.21053 8.5,0 2.3375,0.21054 0.425,0.3828 -4.25,0.3828 -4.675,0 -6.5875,-0.17226 -4.25,-0.3828 z m 18.5,0.016 c 1.5125,-0.22913 3.9875,-0.22913 5.5,0 1.5125,0.22912 0.275,0.41659 -2.75,0.41659 -3.025,0 -4.2625,-0.18747 -2.75,-0.41659 z"
         id="path230" />
      <path
         style="fill:#e5e5e5"
         d="m 501.71966,845.81123 c -4.2207,-0.1867 -20.4207,-0.73368 -36,-1.21552 -27.48962,-0.8502 -27.21875,-0.86003 9.17401,-0.33289 39.45169,0.57144 43.77841,0.73543 44.73871,1.69572 0.57849,0.5785 -1.98003,0.55746 -17.91272,-0.14731 z m 23.17401,-0.89961 c 2.475,-0.15458 24.075,-0.75182 48,-1.32721 23.925,-0.57538 48.45,-1.24053 54.5,-1.47811 l 11,-0.43195 -9,0.89143 c -10.52087,1.04207 -80.73896,3.0612 -97.5,2.80362 -6.325,-0.0972 -9.475,-0.3032 -7,-0.45778 z m -128.5,-2.45281 c -57.04882,-4.22586 -80.72932,-8.4524 -86.53218,-15.44442 -1.65032,-1.98851 -1.37732,-8.07979 0.49288,-10.99739 4.1997,-6.55174 44.98967,-13.51037 87.0393,-14.8486 l 15,-0.47738 -12,0.90546 c -46.29558,3.49325 -69.5766,7.24281 -78.24271,12.60151 -4.61534,2.8539 -4.75729,3.08601 -4.75729,7.77902 0,4.76584 0.0739,4.87864 5,7.62974 10.93594,6.10747 54.26307,11.5862 105,13.27729 4.4,0.14665 1.7,0.2943 -6,0.32811 -7.7,0.0338 -18.95,-0.30519 -25,-0.75334 z m 263.5,-2.96895 c 28.56507,-2.82766 43.87737,-5.94037 50.83808,-10.33447 3.72219,-2.34972 3.94876,-2.77289 3.90756,-7.29828 -0.0279,-3.06366 -0.6237,-5.34993 -1.64469,-6.31111 -9.574,-9.01319 -53.41577,-13.87005 -145.10095,-16.07451 -26.125,-0.62814 -56.61257,-0.97923 -67.75015,-0.7802 -11.13759,0.19904 -20.25009,0.0244 -20.25,-0.38812 2.8e-4,-1.38785 29.40836,-1.30023 94.50015,0.28157 47.26016,1.14847 67.91444,2.22678 96.28749,5.02696 25.19248,2.48628 37.77657,4.99131 46.21251,9.19922 5.75365,2.86996 6.51323,3.58672 6.61522,6.24225 0.0634,1.65 -0.38664,3.33061 -1,3.73469 -0.78374,0.51631 -0.74368,0.73924 0.13478,0.75 4.63659,0.0568 -2.89218,6.67033 -10.13917,8.90659 -13.50252,4.16657 -50.38176,9.26958 -64.99012,8.99272 -3.78358,-0.0717 0.94331,-0.81527 12.37929,-1.94731 z m -235.5,-39.91996 c 12.69067,-0.78846 55.12465,-1.28363 54.41667,-0.63499 -0.22917,0.20996 -15.26667,0.60647 -33.41667,0.88114 -18.88427,0.28579 -27.86701,0.1805 -21,-0.24615 z"
         id="path228" />
      <path
         style="fill:#e1e1e1"
         d="m 513.66494,845.0243 c -0.1492,-0.13094 -14.67127,-0.5208 -32.27127,-0.86635 -96.23026,-1.88934 -144.18639,-6.27814 -159,-14.5512 -4.93327,-2.75512 -5,-2.85738 -5,-7.66235 0,-4.79599 0.078,-4.91658 5.13555,-7.93925 14.6606,-8.76198 61.60301,-13.00122 166.36445,-15.02392 73.83163,-1.42552 175.53182,3.09314 203.5,9.04175 18.27682,3.88733 22.17716,6.31287 22.24564,13.83413 0.0412,4.52539 -0.18537,4.94856 -3.90756,7.29828 -3.89637,2.45967 -13.61136,5.26714 -25.33808,7.3223 -12.63898,2.21503 -48.86258,5.11937 -68.5,5.49221 -21.76157,0.41317 -20.99456,0.26929 7.5,-1.40693 41.84736,-2.46171 66.8222,-6.44127 75.54266,-12.03718 4.24245,-2.72237 4.54607,-3.20353 4.46145,-7.07034 -0.0662,-3.02369 -0.70048,-4.64287 -2.33845,-5.96922 -10.65932,-8.6314 -52.472,-13.05537 -141.66566,-14.98888 -49.17853,-1.06608 -121.81175,-0.0616 -150.5,2.08126 -7.425,0.55462 -16.65,1.24704 -20.5,1.53872 -14.66667,1.11115 -34.32859,3.63287 -42.5,5.45079 -8.81307,1.96068 -20.46428,7.42481 -19.42335,9.10908 0.32754,0.52997 0.0517,1.61887 -0.613,2.41977 -0.94665,1.14064 -0.94212,1.4562 0.0209,1.4562 0.67619,0 0.98664,0.63272 0.68989,1.40604 -1.17916,3.07284 7.5117,7.60884 19.34934,10.09896 8.86811,1.86547 36.87835,4.97072 57.97623,6.42732 26.31628,1.81689 103.34236,3.22693 148.5,2.71844 37.52101,-0.4225 39.43229,-0.37821 15,0.34753 -15.4,0.45744 -33.95293,1.02953 -41.22873,1.27131 -7.27581,0.24178 -13.35081,0.33247 -13.5,0.20153 z"
         id="path226" />
      <path
         style="fill:#dddde1"
         d="m 803.89367,455.16016 c 0,-0.21616 0.69837,-0.661 1.55194,-0.98855 0.88992,-0.34149 1.29132,-0.17385 0.94098,0.39301 -0.58726,0.95021 -2.49292,1.40545 -2.49292,0.59554 z m -285.25,-269.26927 c 0.6875,-0.27741 1.8125,-0.27741 2.5,0 0.6875,0.27741 0.125,0.50439 -1.25,0.50439 -1.375,0 -1.9375,-0.22698 -1.25,-0.50439 z"
         id="path224" />
      <path
         style="fill:#dddddd"
         d="m 456.89367,842.48179 c -63.13106,-1.47067 -108.08452,-5.89129 -121.85589,-11.98302 -5.66137,-2.50429 -8.17402,-4.70407 -7.46968,-6.53956 0.29675,-0.77332 -0.0137,-1.40604 -0.68989,-1.40604 -0.96301,0 -0.96754,-0.31556 -0.0209,-1.4562 0.66469,-0.8009 0.94054,-1.8898 0.613,-2.41977 -1.04093,-1.68427 10.61028,-7.1484 19.42335,-9.10908 8.17141,-1.81792 27.83333,-4.33964 42.5,-5.45079 3.85,-0.29168 13.075,-0.9841 20.5,-1.53872 28.68825,-2.14289 101.32147,-3.14734 150.5,-2.08126 89.19366,1.93351 131.00634,6.35748 141.66566,14.98888 1.63797,1.32635 2.27229,2.94553 2.33845,5.96922 0.0846,3.86681 -0.219,4.34797 -4.46145,7.07034 -17.72818,11.37616 -114.71648,16.94542 -243.04265,13.956 z m 116,-1.48032 c 31.37711,-0.56738 72.03175,-3.2186 92,-5.99961 16.37287,-2.28028 27.67267,-6.76841 26.67228,-10.59388 -0.30259,-1.1571 0.044,-1.85481 0.92134,-1.85481 0.77351,0 1.40638,-0.45 1.40638,-1 0,-0.55 -0.66969,-1 -1.48821,-1 -0.94724,0 -1.40162,-0.81788 -1.25,-2.25 0.18992,-1.79389 -0.72604,-2.71065 -4.51847,-4.5224 -9.14814,-4.37033 -23.46326,-6.58747 -59.24332,-9.17566 -24.9791,-1.80689 -49.35372,-2.56106 -112,-3.46533 -7.67379,-0.11077 -71.52786,1.33485 -86,1.947 -26.26388,1.1109 -64.75238,5.04247 -74.46177,7.60621 -8.9507,2.3634 -15.03823,5.58604 -15.03823,7.96099 0,0.95289 -0.5625,1.99502 -1.25,2.31586 -1,0.46666 -1,0.7 0,1.16666 0.6875,0.32084 1.25,1.39074 1.25,2.37756 0,8.24639 36.59645,13.79108 106,16.05997 47.24933,1.54464 56.10418,1.69924 76.5,1.3357 10.45,-0.18627 33.175,-0.59498 50.5,-0.90826 z"
         id="path222" />
      <path
         style="fill:#d9d9d9"
         d="m 489.89367,841.90975 c -83.38612,-2.0917 -126.09373,-5.39785 -140.68815,-10.89118 -7.69401,-2.89602 -9.31185,-4.02611 -9.31185,-6.50451 0,-0.98682 -0.5625,-2.05672 -1.25,-2.37756 -1,-0.46666 -1,-0.7 0,-1.16666 0.6875,-0.32084 1.25,-1.36297 1.25,-2.31586 0,-2.37495 6.08753,-5.59759 15.03823,-7.96099 9.70939,-2.56374 48.19789,-6.49531 74.46177,-7.60621 14.47214,-0.61215 78.32621,-2.05777 86,-1.947 62.64628,0.90427 87.0209,1.65844 112,3.46533 35.78006,2.58819 50.09518,4.80533 59.24332,9.17566 3.79243,1.81175 4.70839,2.72851 4.51847,4.5224 -0.15162,1.43212 0.30276,2.25 1.25,2.25 0.81852,0 1.48821,0.45 1.48821,1 0,0.55 -0.63287,1 -1.40638,1 -0.87736,0 -1.22393,0.69771 -0.92134,1.85481 1.00039,3.82547 -10.29941,8.3136 -26.67228,10.59388 -19.96825,2.78101 -60.62289,5.43223 -92,5.99961 -17.325,0.31328 -40.05,0.72199 -50.5,0.90826 -10.45,0.18626 -25.075,0.18627 -32.5,2e-5 z m 68,-1.87204 c 46.44783,-0.82231 65.83343,-1.93508 94.54445,-5.42701 17.32306,-2.10689 29.10618,-6.03712 28.77743,-9.59864 -0.098,-1.06133 0.35203,-2.27377 1,-2.6943 0.88928,-0.57714 0.86336,-0.96807 -0.10575,-1.59454 -0.70613,-0.45647 -1.0063,-1.55328 -0.66705,-2.43736 0.70127,-1.82748 -3.74995,-4.42349 -12.04908,-7.02716 -10.03824,-3.14928 -46.62432,-6.14711 -93.90212,-7.69427 -85.53913,-2.79924 -190.7078,1.21828 -212.59788,8.1214 -9.85168,3.10676 -13.20361,4.89435 -12.51965,6.67673 0.32306,0.84189 0.01,1.90419 -0.69648,2.36066 -1.04516,0.67564 -1.04516,0.98426 0,1.6599 0.70613,0.45647 1.00576,1.5547 0.66584,2.44051 -0.71635,1.86678 6.11099,5.67053 13.55029,7.54935 4.86993,1.22992 24.22089,3.42932 46.46825,5.28152 16.6769,1.38844 95.45717,3.80434 107.53175,3.2976 4.675,-0.19619 22.675,-0.60767 40,-0.91439 z"
         id="path220" />
      <path
         style="fill:#d5d5d5"
         d="m 466.86192,840.06312 c -41.91631,-1.22767 -56.88376,-2.12474 -84.46825,-5.0626 -16.10969,-1.71574 -21.10287,-2.82172 -27.83416,-6.16518 -3.58499,-1.78068 -4.67446,-2.81733 -4.21613,-4.01171 0.33992,-0.88581 0.0403,-1.98404 -0.66584,-2.44051 -1.04516,-0.67564 -1.04516,-0.98426 0,-1.6599 0.70613,-0.45647 1.01954,-1.51877 0.69648,-2.36066 -0.68396,-1.78238 2.66797,-3.56997 12.51965,-6.67673 21.89008,-6.90312 127.05875,-10.92064 212.59788,-8.1214 47.2778,1.54716 83.86388,4.54499 93.90212,7.69427 8.29913,2.60367 12.75035,5.19968 12.04908,7.02716 -0.33925,0.88408 -0.0391,1.98089 0.66705,2.43736 0.96911,0.62647 0.99503,1.0174 0.10575,1.59454 -0.64797,0.42053 -1.09797,1.63297 -1,2.6943 0.32875,3.56152 -11.45437,7.49175 -28.77743,9.59864 -28.71102,3.49193 -48.09662,4.6047 -94.54445,5.42701 -17.325,0.30672 -35.325,0.7182 -40,0.91439 -4.675,0.1962 -27.63929,-0.20384 -51.03175,-0.88898 z m 100.53175,-1.51875 c 18.7,-0.55171 38.95,-1.4352 45,-1.96331 6.05,-0.52812 14.6,-1.22328 19,-1.54481 15.48515,-1.13158 27.09702,-3.30717 32.93598,-6.17087 4.83785,-2.3727 5.42106,-2.94358 4.03935,-3.95391 -1.47121,-1.07577 -1.45298,-1.27606 0.2049,-2.25127 1.29937,-0.76432 1.48286,-1.29432 0.64165,-1.85333 -0.64797,-0.43059 -1.09797,-1.67632 -1,-2.76829 0.65367,-7.28602 -35.26489,-11.63676 -111.42868,-13.49711 -64.08762,-1.56538 -131.42703,0.60276 -171.3932,5.51838 -11.14301,1.37053 -25.24962,6.29396 -22.64525,7.90355 1.72557,1.06646 1.37513,2.58559 -0.60475,2.62157 -1.60066,0.0291 -1.588,0.15443 0.14838,1.46875 1.51076,1.14353 1.65498,1.73022 0.70633,2.87328 -2.11347,2.54658 7.75077,6.44662 20.45465,8.08719 42.77177,5.5235 112.80238,7.62897 183.94064,5.53018 z"
         id="path218" />
      <path
         style="fill:#d1d1d1"
         d="m 458.39367,838.41425 c -27.35361,-0.83403 -55.02137,-2.82771 -74.94064,-5.40006 -12.70388,-1.64057 -22.56812,-5.54061 -20.45465,-8.08719 0.94865,-1.14306 0.80443,-1.72975 -0.70633,-2.87328 -1.73638,-1.31432 -1.74904,-1.43966 -0.14838,-1.46875 1.97988,-0.036 2.33032,-1.55511 0.60475,-2.62157 -2.60437,-1.60959 11.50224,-6.53302 22.64525,-7.90355 39.96617,-4.91562 107.30558,-7.08376 171.3932,-5.51838 76.16379,1.86035 112.08235,6.21109 111.42868,13.49711 -0.098,1.09197 0.35203,2.3377 1,2.76829 0.84121,0.55901 0.65772,1.08901 -0.64165,1.85333 -1.65788,0.97521 -1.67611,1.1755 -0.2049,2.25127 1.38171,1.01033 0.7985,1.58121 -4.03935,3.95391 -5.83896,2.8637 -17.45083,5.03929 -32.93598,6.17087 -4.4,0.32153 -12.95,1.01669 -19,1.54481 -29.63872,2.58721 -101.29531,3.4402 -154,1.83319 z m 113,-1.39913 c 52.0408,-1.91275 75.7478,-4.41884 84.44044,-8.92628 3.08201,-1.59813 3.26433,-1.91277 1.75,-3.02007 -2.09122,-1.52915 -2.1659,-2.5156 -0.19044,-2.5156 1.81637,0 1.99092,-1.63414 0.25,-2.34054 -0.96669,-0.39224 -0.93765,-0.72576 0.12812,-1.47153 2.75475,-1.92762 -1.05817,-4.49728 -9.37812,-6.32025 -23.99485,-5.25745 -105.1173,-8.53674 -169.5,-6.85185 -55.27508,1.44655 -94.39296,5.0333 -102.90595,9.43553 -2.9797,1.54087 -4.16449,3.54864 -2.09405,3.54864 1.79021,0 1.0523,1.99905 -0.75,2.0318 -1.63879,0.0298 -1.63499,0.11901 0.0598,1.404 1.14375,0.86718 1.41978,1.61327 0.75,2.02722 -2.11844,1.30927 -0.97666,3.35299 2.69016,4.81522 3.76782,1.50251 17.01277,3.74789 33.75,5.72155 7.75541,0.91452 39.53246,2.33185 74,3.30058 26.35651,0.74076 50.31706,0.50985 87,-0.83842 z"
         id="path216" />
      <path
         style="fill:#cdcdcd"
         d="m 484.39367,837.85354 c -34.46754,-0.96873 -66.24459,-2.38606 -74,-3.30058 -16.73723,-1.97366 -29.98218,-4.21904 -33.75,-5.72155 -3.66682,-1.46223 -4.8086,-3.50595 -2.69016,-4.81522 0.66978,-0.41395 0.39375,-1.16004 -0.75,-2.02722 -1.69483,-1.28499 -1.69863,-1.37421 -0.0598,-1.404 1.8023,-0.0327 2.54021,-2.0318 0.75,-2.0318 -0.55,0 -1,-0.43844 -1,-0.97432 0,-3.50556 17.53139,-6.94583 48,-9.41929 66.65112,-5.41076 194.26659,-3.0204 227.5,4.26129 8.31995,1.82297 12.13287,4.39263 9.37812,6.32025 -1.06577,0.74577 -1.09481,1.07929 -0.12812,1.47153 1.74092,0.7064 1.56637,2.34054 -0.25,2.34054 -1.97546,0 -1.90078,0.98645 0.19044,2.5156 3.98857,2.91651 -9.01166,6.5099 -32.69044,9.03597 -26.39573,2.81591 -101.95777,4.83204 -140.5,3.7488 z m 72,-1.30616 c 41.47474,-1.18706 55.09474,-2.13122 72.5,-5.02582 17.55148,-2.91892 21.43373,-4.34623 17.84851,-6.56202 -0.79624,-0.4921 -0.56485,-1.16274 0.75,-2.17377 1.12847,-0.86771 1.45241,-1.6329 0.79683,-1.88224 -0.60756,-0.23107 -0.90476,-1.46582 -0.66044,-2.74389 0.52767,-2.76034 -0.30238,-3.16253 -10.7349,-5.20155 -20.25479,-3.95875 -29.85837,-4.57314 -105,-6.71735 -16.88422,-0.4818 -84.31845,1.07943 -100.69357,2.33124 -7.25647,0.55473 -19.18147,1.92427 -26.5,3.04341 -19.79483,3.02703 -22.85338,3.97135 -20.81555,6.4268 0.85262,1.02734 0.718,1.57452 -0.56384,2.29188 -1.14817,0.64254 -1.32371,1.16493 -0.55179,1.642 0.63208,0.39065 0.86879,1.74875 0.53594,3.07494 -0.52379,2.08695 -0.12975,2.49875 3.24633,3.39256 16.47504,4.36178 42.18762,6.83315 83.34248,8.01047 41.83839,1.19688 47.72151,1.20323 86.5,0.0933 z"
         id="path214" />
      <path
         style="fill:#c9c9c9"
         d="m 469.89367,836.45404 c -41.15486,-1.17732 -66.86744,-3.64869 -83.34248,-8.01047 -3.37608,-0.89381 -3.77012,-1.30561 -3.24633,-3.39256 0.33285,-1.32619 0.0961,-2.68429 -0.53594,-3.07494 -0.77192,-0.47707 -0.59638,-0.99946 0.55179,-1.642 1.28184,-0.71736 1.41646,-1.26454 0.56384,-2.29188 -2.03783,-2.45545 1.02072,-3.39977 20.81555,-6.4268 7.31853,-1.11914 19.24353,-2.48868 26.5,-3.04341 16.37512,-1.25181 83.80935,-2.81304 100.69357,-2.33124 75.14163,2.14421 84.74521,2.7586 105,6.71735 10.43252,2.03902 11.26257,2.44121 10.7349,5.20155 -0.24432,1.27807 0.0529,2.51282 0.66044,2.74389 0.65558,0.24934 0.33164,1.01453 -0.79683,1.88224 -1.31485,1.01103 -1.54624,1.68167 -0.75,2.17377 3.58522,2.21579 -0.29703,3.6431 -17.84851,6.56202 -17.40526,2.8946 -31.02526,3.83876 -72.5,5.02582 -38.77849,1.10989 -44.66161,1.10354 -86.5,-0.0933 z m 89.5,-1.4548 c 33.39126,-0.59413 42.28881,-1.36436 64.75,-5.60519 9.22027,-1.74084 11.75,-2.56536 11.75,-3.82968 0,-0.88616 0.54,-2.1512 1.2,-2.8112 0.93333,-0.93333 0.93333,-1.46667 0,-2.4 -0.66,-0.66 -1.2,-1.95375 -1.2,-2.875 0,-1.78058 -0.68785,-1.99325 -14.5,-4.48309 -14.63237,-2.6377 -23.76743,-3.41882 -52,-4.44642 -56.80357,-2.06752 -122.25675,-0.72704 -147.19912,3.01463 -23.66961,3.55074 -26.79751,4.28379 -26.79929,6.28066 -8.8e-4,0.97668 -0.67659,2.24506 -1.50159,2.81863 -1.12804,0.78425 -1.19003,1.16863 -0.25,1.55005 0.6875,0.27897 1.25,1.53583 1.25,2.79303 0,1.79261 0.70125,2.41163 3.25,2.86888 32.88855,5.90027 32.27402,5.83946 72.25,7.14909 21.45,0.70271 42.825,1.1168 47.5,0.92021 4.675,-0.19659 23.35,-0.62166 41.5,-0.9446 z"
         id="path212" />
      <path
         style="fill:#c2c4cc"
         d="m 792.97262,513.96984 c 0.048,-1.16495 0.28494,-1.4019 0.60416,-0.60417 0.28887,0.72187 0.25335,1.58438 -0.0789,1.91667 -0.33229,0.33229 -0.56864,-0.25834 -0.52522,-1.3125 z"
         id="path210" />
      <path
         style="fill:#c5c5c5"
         d="m 491.39367,835.55317 -18,-0.57008 17,-0.12735 c 9.35,-0.07 19.25,0.22309 22,0.65142 5.90613,0.91992 6.54888,0.91851 -21,0.046 z m 55.5,-1.03272 c 51.21605,-1.57945 74.11506,-4.47133 80.90419,-10.21728 l 3.24926,-2.75 -3.23853,-2.75 c -4.35993,-3.70223 -4.77329,-3.82781 -20.49524,-6.22624 -13.63962,-2.08076 -49.31158,-3.94472 -76.91968,-4.01928 -7.15,-0.0193 -13.675,-0.49188 -14.5,-1.05017 -1.15611,-0.78235 -0.92686,-0.90603 1,-0.53945 1.375,0.26159 16,0.74962 32.5,1.08453 43.72308,0.88745 60.82837,2.29574 81.25,6.68936 3.74141,0.80494 5.25,1.60101 5.25,2.77038 0,0.90248 0.54,2.18087 1.2,2.84087 0.93333,0.93333 0.93333,1.46667 0,2.4 -0.66,0.66 -1.2,1.92504 -1.2,2.8112 0,1.26432 -2.52973,2.08884 -11.75,3.82968 -23.62499,4.46056 -30.84758,5.04143 -68.75,5.52917 l -37,0.47613 z m -112,-0.6678 c -2.81668,-0.30616 -21.78387,-3.38811 -37.25,-6.0527 -2.06686,-0.35608 -2.75,-1.04592 -2.75,-2.77695 0,-1.26674 -0.5625,-2.5314 -1.25,-2.81037 -0.94003,-0.38142 -0.87804,-0.7658 0.25,-1.55005 0.825,-0.57357 1.50071,-1.84195 1.50159,-2.81863 0.002,-1.99703 3.12923,-2.72988 26.80893,-6.28207 14.48027,-2.17218 53.13468,-4.07978 77.68948,-3.83398 10.91923,0.1093 9.00755,0.28687 -10,0.92887 -56.34935,1.90324 -79.00074,4.57247 -86.0348,10.13831 l -3.4652,2.74191 3,2.53955 c 1.65,1.39676 3.9,2.91723 5,3.37883 4.66584,1.95795 30.94583,5.2998 47.3173,6.01703 l 17.6827,0.77467 -17.5,-0.007 c -9.625,-0.004 -19.075,-0.17818 -21,-0.38743 z"
         id="path208" />
      <path
         style="fill:#c1c1c1"
         d="m 498.89367,834.90387 c -62.48751,-1.75305 -87.39224,-4.3868 -94.4069,-9.98381 -1.97617,-1.57679 -3.59304,-3.09189 -3.59304,-3.36689 0,-0.275 1.46249,-1.649 3.24997,-3.05334 2.495,-1.9602 6.03757,-3.05988 15.24997,-4.73388 15.28631,-2.7777 17.95598,-3.01785 47.5,-4.27284 49.46474,-2.10119 116.01696,-0.63888 140.43151,3.08563 15.70932,2.3965 16.12377,2.52244 20.48341,6.22443 l 3.23853,2.75 -3.24926,2.75 c -6.61841,5.60146 -30.05967,8.70631 -73.40419,9.72255 -13.2,0.30949 -28.725,0.69995 -34.5,0.86771 -5.775,0.16775 -15.225,0.17245 -21,0.0104 z m 63.5,-3.38216 c 28.31266,-1.06567 39.64323,-2.5218 44.10853,-5.66851 1.59031,-1.1207 3.90397,-2.352 5.14147,-2.73622 3.16259,-0.98193 2.80548,-1.96117 -1.25,-3.42765 -1.925,-0.69609 -3.5,-1.61426 -3.5,-2.04037 0,-5.62844 -69.14699,-8.76626 -134.5,-6.10347 -28.74741,1.1713 -43.63423,2.9142 -46.41923,5.43459 -0.94237,0.85283 -3.48356,2.18104 -5.64708,2.95158 l -3.93369,1.40098 2.76444,1.091 c 1.52044,0.60006 4.07307,2.05852 5.67249,3.24102 5.19415,3.8402 15.06707,4.8842 65.06307,6.87997 19.15079,0.76448 28.5278,0.63218 72.5,-1.02292 z"
         id="path206" />
      <path
         style="fill:#b7bac4"
         d="m 211.89367,434.49415 c 0,-0.58246 0.45,-0.7809 1,-0.44098 0.55,0.33992 1,0.81648 1,1.05902 0,0.24254 -0.45,0.44098 -1,0.44098 -0.55,0 -1,-0.47656 -1,-1.05902 z m 489.30987,-4.44098 c 0.006,-3.3 0.1923,-4.52944 0.41486,-2.73209 0.22256,1.79735 0.21797,4.49735 -0.0102,6 -0.22818,1.50265 -0.41027,0.0321 -0.40466,-3.26791 z M 367.97262,388.96984 c 0.048,-1.16495 0.28494,-1.4019 0.60416,-0.60417 0.28887,0.72187 0.25335,1.58438 -0.0789,1.91667 -0.33229,0.33229 -0.56864,-0.25834 -0.52522,-1.3125 z m -131,-41 c 0.048,-1.16495 0.28494,-1.4019 0.60416,-0.60417 0.28887,0.72187 0.25335,1.58438 -0.0789,1.91667 -0.3323,0.33229 -0.56864,-0.25834 -0.52522,-1.3125 z m 242.32604,-60.66667 -1.90499,-2.25 2.25,1.90499 c 2.11444,1.79022 2.70524,2.59501 1.90499,2.59501 -0.18976,0 -1.20226,-1.0125 -2.25,-2.25 z"
         id="path204" />
      <path
         style="fill:#bcbcbc"
         d="m 489.89367,832.54463 c -49.996,-1.99577 -59.86892,-3.03977 -65.06307,-6.87997 -1.59942,-1.1825 -4.15205,-2.64096 -5.67249,-3.24102 l -2.76444,-1.091 3.93369,-1.40098 c 2.16352,-0.77054 4.70471,-2.09875 5.64708,-2.95158 2.785,-2.52039 17.67182,-4.26329 46.41923,-5.43459 33.65755,-1.37137 58.04057,-1.37226 89.5,-0.003 32.00309,1.39265 45,3.1564 45,6.10674 0,0.42611 1.575,1.34428 3.5,2.04037 4.05548,1.46648 4.41259,2.44572 1.25,3.42765 -1.2375,0.38422 -3.55116,1.61552 -5.14147,2.73622 -4.4653,3.14671 -15.79587,4.60284 -44.10853,5.66851 -43.9722,1.6551 -53.34921,1.7874 -72.5,1.02292 z m 64,-3.11445 c 24.30639,-1.00692 27.81423,-1.36051 30.20577,-3.04472 1.48818,-1.04802 4.07568,-2.38304 5.75,-2.96672 3.06782,-1.06944 4.15845,-2.86557 1.74001,-2.86557 -0.71732,0 -3.34721,-1.29563 -5.84421,-2.87918 l -4.53999,-2.87917 -32.90579,-1.24976 c -26.41238,-1.00313 -39.1218,-1.00051 -64.40579,0.0133 l -31.5,1.26304 -6.7302,3.11589 c -3.7016,1.71374 -6.713,3.34089 -6.69199,3.61589 0.021,0.275 3.0496,1.95305 6.7302,3.72899 6.65991,3.21352 6.79506,3.23313 28.19199,4.0915 32.3609,1.2982 49.73076,1.31047 80,0.0565 z"
         id="path202" />
      <path
         style="fill:#b5b5b5"
         d="m 473.89367,829.37366 c -21.39693,-0.85837 -21.53208,-0.87798 -28.19199,-4.0915 -3.6806,-1.77594 -6.70919,-3.45399 -6.7302,-3.72899 -0.021,-0.275 2.99039,-1.90215 6.69199,-3.61589 l 6.7302,-3.11589 31.5,-1.26304 c 25.28399,-1.0138 37.99341,-1.01642 64.40579,-0.0133 l 32.90579,1.24976 4.53999,2.87917 c 2.497,1.58355 5.12689,2.87918 5.84421,2.87918 2.41844,0 1.32781,1.79613 -1.74001,2.86557 -1.67432,0.58368 -4.26182,1.9187 -5.75,2.96672 -2.39154,1.68421 -5.89938,2.0378 -30.20577,3.04472 -30.26924,1.25395 -47.6391,1.24168 -80,-0.0565 z m 81.05466,-3.34276 c 19.97669,-2.44218 22.94534,-3.03288 22.94534,-4.56567 0,-1.17186 -1.85564,-1.53238 -20.5,-3.9828 -31.96072,-4.20059 -49.74903,-4.20506 -82.5,-0.0208 -19.08503,2.43833 -21,2.8067 -21,4.03964 0,1.13646 6.91,2.52068 23,4.60739 28.16105,3.6522 47.70296,3.63272 78.05466,-0.0778 z"
         id="path200" />
      <path
         style="fill:#b1b1b1"
         d="m 501.39367,828.42371 c -20.50307,-1.18555 -47.5,-5.11994 -47.5,-6.92239 0,-1.23294 1.91497,-1.60131 21,-4.03964 32.75097,-4.18431 50.53928,-4.17984 82.5,0.0208 18.64436,2.45042 20.5,2.81094 20.5,3.9828 0,1.53279 -2.96865,2.12349 -22.94534,4.56567 -22.46917,2.74688 -36.55068,3.37604 -53.55466,2.39281 z m 26.25,-5.04489 c 5.6375,-0.65214 10.25,-1.49097 10.25,-1.86407 0,-1.42164 -23.42888,-2.91725 -31,-1.97892 -4.125,0.51123 -8.5125,0.94928 -9.75,0.97343 -1.2375,0.0241 -2.25,0.43191 -2.25,0.90613 0,0.77644 11.87231,2.59925 19.5,2.99392 1.65,0.0854 7.6125,-0.37835 13.25,-1.03049 z"
         id="path198" />
      <path
         style="fill:#aeaeae"
         d="m 503.14367,823.26584 c -4.5375,-0.54353 -8.25,-1.37623 -8.25,-1.85045 0,-0.47422 1.0125,-0.88198 2.25,-0.90613 1.2375,-0.0241 5.625,-0.4622 9.75,-0.97343 7.57112,-0.93833 31,0.55728 31,1.97892 0,0.78284 -19.02442,3.12613 -23.5,2.89456 -1.65,-0.0854 -6.7125,-0.59994 -11.25,-1.14347 z"
         id="path196" />
      <path
         style="fill:#a7a9b5"
         d="m 778.05156,417.55317 c 0,-1.375 0.22698,-1.9375 0.50439,-1.25 0.27741,0.6875 0.27741,1.8125 0,2.5 -0.27741,0.6875 -0.50439,0.125 -0.50439,-1.25 z m -235,-96 c 0,-1.375 0.22698,-1.9375 0.50439,-1.25 0.27741,0.6875 0.27741,1.8125 0,2.5 -0.27741,0.6875 -0.50439,0.125 -0.50439,-1.25 z M 418.64367,287.89089 c 0.6875,-0.27741 1.8125,-0.27741 2.5,0 0.6875,0.27741 0.125,0.50439 -1.25,0.50439 -1.375,0 -1.9375,-0.22698 -1.25,-0.50439 z"
         id="path194" />
      <path
         style="fill:#9fa1ae"
         d="m 316.70617,656.87006 c 0.72187,-0.28887 1.58438,-0.25335 1.91667,0.0789 0.33229,0.33229 -0.25834,0.56864 -1.3125,0.52522 -1.16495,-0.048 -1.4019,-0.28494 -0.60417,-0.60416 z M 697.97262,459.96984 c 0.048,-1.16495 0.28494,-1.4019 0.60416,-0.60417 0.28887,0.72187 0.25335,1.58438 -0.0789,1.91667 -0.33229,0.33229 -0.56864,-0.25834 -0.52522,-1.3125 z m -187,-154 c 0.048,-1.16495 0.28494,-1.4019 0.60416,-0.60417 0.28887,0.72187 0.25335,1.58438 -0.0789,1.91667 -0.33229,0.33229 -0.56864,-0.25834 -0.52522,-1.3125 z m 223.79349,-80.16667 c -1.24387,-1.58606 -1.2085,-1.62143 0.37756,-0.37756 0.9625,0.75485 1.75,1.54235 1.75,1.75 0,0.82304 -0.82119,0.29331 -2.12756,-1.37244 z M 546.70617,201.87006 c 0.72187,-0.28887 1.58438,-0.25335 1.91667,0.0789 0.33229,0.33229 -0.25834,0.56864 -1.3125,0.52522 -1.16495,-0.048 -1.4019,-0.28494 -0.60417,-0.60416 z"
         id="path192" />
      <path
         style="fill:#9599a7"
         d="m 797.97262,377.96984 c 0.048,-1.16495 0.28494,-1.4019 0.60416,-0.60417 0.28887,0.72187 0.25335,1.58438 -0.0789,1.91667 -0.33229,0.33229 -0.56864,-0.25834 -0.52522,-1.3125 z m 3,-29 c 0.048,-1.16495 0.28494,-1.4019 0.60416,-0.60417 0.28887,0.72187 0.25335,1.58438 -0.0789,1.91667 -0.33229,0.33229 -0.56864,-0.25834 -0.52522,-1.3125 z M 483.89367,303.61219 c 0,-0.51754 0.44485,-1.21592 0.98855,-1.55194 0.56686,-0.35034 0.7345,0.0511 0.39301,0.94098 -0.66479,1.73242 -1.38156,2.04939 -1.38156,0.61096 z m 253.87244,-74.80902 c -1.24387,-1.58606 -1.2085,-1.62143 0.37756,-0.37756 0.9625,0.75485 1.75,1.54235 1.75,1.75 0,0.82304 -0.82119,0.29331 -2.12756,-1.37244 z"
         id="path190" />
      <path
         style="fill:#878b9b"
         d="m 318.97262,515.96984 c 0.048,-1.16495 0.28494,-1.4019 0.60416,-0.60417 0.28887,0.72187 0.25335,1.58438 -0.0789,1.91667 -0.33229,0.33229 -0.56864,-0.25834 -0.52522,-1.3125 z m -107,-75 c 0.048,-1.16495 0.28494,-1.4019 0.60416,-0.60417 0.28887,0.72187 0.25335,1.58438 -0.0789,1.91667 -0.3323,0.33229 -0.56864,-0.25834 -0.52522,-1.3125 z M 579.70617,194.87006 c 0.72187,-0.28887 1.58438,-0.25335 1.91667,0.0789 0.33229,0.33229 -0.25834,0.56864 -1.3125,0.52522 -1.16495,-0.048 -1.4019,-0.28494 -0.60417,-0.60416 z"
         id="path188" />
      <path
         style="fill:#7c7f91"
         d="m 530.70617,622.87006 c 0.72187,-0.28887 1.58438,-0.25335 1.91667,0.0789 0.33229,0.33229 -0.25834,0.56864 -1.3125,0.52522 -1.16495,-0.048 -1.4019,-0.28494 -0.60417,-0.60416 z M 212.08862,445.05317 c 0.0204,-1.65 0.2445,-2.20394 0.49804,-1.23097 0.25354,0.97297 0.23687,2.32297 -0.0371,3 -0.27393,0.67703 -0.48137,-0.11903 -0.46099,-1.76903 z M 232.227,434.09716 c 0,-0.80081 0.38234,-1.21971 0.84965,-0.9309 0.4673,0.28881 0.59075,0.94401 0.27431,1.45601 -0.80862,1.30838 -1.12396,1.16106 -1.12396,-0.52511 z"
         id="path186" />
      <path
         style="fill:#444a63"
         d="m 298.97262,601.96984 c 0.048,-1.16495 0.28494,-1.4019 0.60416,-0.60417 0.28887,0.72187 0.25335,1.58438 -0.0789,1.91667 -0.33229,0.33229 -0.56864,-0.25834 -0.52522,-1.3125 z m 67.07894,-173.41667 c 0,-1.375 0.22698,-1.9375 0.50439,-1.25 0.27741,0.6875 0.27741,1.8125 0,2.5 -0.27741,0.6875 -0.50439,0.125 -0.50439,-1.25 z"
         id="path184" />
      <path
         style="fill:#343b57"
         d="m 551.89367,613.17561 c 0,-0.20765 0.7875,-0.99515 1.75,-1.75 1.58606,-1.24387 1.62143,-1.2085 0.37756,0.37756 -1.30637,1.66575 -2.12756,2.19548 -2.12756,1.37244 z M 705.97262,464.96984 c 0.048,-1.16495 0.28494,-1.4019 0.60416,-0.60417 0.28887,0.72187 0.25335,1.58438 -0.0789,1.91667 -0.33229,0.33229 -0.56864,-0.25834 -0.52522,-1.3125 z m 68.92105,-40.80968 c 0,-0.21616 0.69837,-0.661 1.55194,-0.98855 0.88992,-0.34149 1.29132,-0.17385 0.94098,0.39301 -0.58726,0.95021 -2.49292,1.40545 -2.49292,0.59554 z m -332.75,-111.29632 c 0.9625,-0.25152 2.5375,-0.25152 3.5,0 0.9625,0.25153 0.175,0.45733 -1.75,0.45733 -1.925,0 -2.7125,-0.2058 -1.75,-0.45733 z m -177.25,-14.68823 c 0,-0.20765 0.7875,-0.99515 1.75,-1.75 1.58606,-1.24387 1.62143,-1.2085 0.37756,0.37756 -1.30637,1.66575 -2.12756,2.19548 -2.12756,1.37244 z m 344.8125,-123.30555 c 0.72187,-0.28887 1.58438,-0.25335 1.91667,0.0789 0.33229,0.33229 -0.25834,0.56864 -1.3125,0.52522 -1.16495,-0.048 -1.4019,-0.28494 -0.60417,-0.60416 z"
         id="path182" />
      <path
         style="fill:#2d3551"
         d="m 455.05156,222.55317 c 0,-1.375 0.22698,-1.9375 0.50439,-1.25 0.27741,0.6875 0.27741,1.8125 0,2.5 -0.27741,0.6875 -0.50439,0.125 -0.50439,-1.25 z"
         id="path180" />
      <path
         style="fill:#242b48"
         d="m 621.70617,179.87006 c 0.72187,-0.28887 1.58438,-0.25335 1.91667,0.0789 0.33229,0.33229 -0.25834,0.56864 -1.3125,0.52522 -1.16495,-0.048 -1.4019,-0.28494 -0.60417,-0.60416 z"
         id="path178" />
      <path
         style="fill:#141c3c"
         d="m 248.08862,577.05317 c 0.0204,-1.65 0.2445,-2.20394 0.49804,-1.23097 0.25354,0.97297 0.23687,2.32297 -0.0371,3 -0.27393,0.67703 -0.48137,-0.11903 -0.46099,-1.76903 z m 329.884,-20.08333 c 0.048,-1.16495 0.28494,-1.4019 0.60416,-0.60417 0.28887,0.72187 0.25335,1.58438 -0.0789,1.91667 -0.33229,0.33229 -0.56864,-0.25834 -0.52522,-1.3125 z m 197.67105,-26.07895 c 0.6875,-0.27741 1.8125,-0.27741 2.5,0 0.6875,0.27741 0.125,0.50439 -1.25,0.50439 -1.375,0 -1.9375,-0.22698 -1.25,-0.50439 z M 313.76611,502.80317 c -1.24387,-1.58606 -1.2085,-1.62143 0.37756,-0.37756 1.66575,1.30637 2.19548,2.12756 1.37244,2.12756 -0.20765,0 -0.99515,-0.7875 -1.75,-1.75 z m -23,-14 c -1.24387,-1.58606 -1.2085,-1.62143 0.37756,-0.37756 1.66575,1.30637 2.19548,2.12756 1.37244,2.12756 -0.20765,0 -0.99515,-0.7875 -1.75,-1.75 z M 218.97262,385.96984 c 0.048,-1.16495 0.28494,-1.4019 0.60416,-0.60417 0.28887,0.72187 0.25335,1.58438 -0.0789,1.91667 -0.3323,0.33229 -0.56864,-0.25834 -0.52522,-1.3125 z m 260.79349,-99.16667 c -1.24387,-1.58606 -1.2085,-1.62143 0.37756,-0.37756 0.9625,0.75485 1.75,1.54235 1.75,1.75 0,0.82304 -0.82119,0.29331 -2.12756,-1.37244 z m 251.53255,-63.5 -1.90499,-2.25 2.25,1.90499 c 1.2375,1.04774 2.25,2.06024 2.25,2.25 0,0.80025 -0.80479,0.20945 -2.59501,-1.90499 z"
         id="path176" />
      <path
         style="fill:#0a1235"
         d="m 292.1627,618.86018 c 0.97297,-0.25354 2.32297,-0.23687 3,0.0371 0.67703,0.27393 -0.11903,0.48137 -1.76903,0.46099 -1.65,-0.0204 -2.20394,-0.2445 -1.23097,-0.49804 z m 213.13596,-10.55701 -1.90499,-2.25 2.25,1.90499 c 2.11444,1.79022 2.70524,2.59501 1.90499,2.59501 -0.18976,0 -1.20226,-1.0125 -2.25,-2.25 z m -6.53255,-5.5 c -1.24387,-1.58606 -1.2085,-1.62143 0.37756,-0.37756 1.66575,1.30637 2.19548,2.12756 1.37244,2.12756 -0.20765,0 -0.99515,-0.7875 -1.75,-1.75 z m 262,-111 c -1.24387,-1.58606 -1.2085,-1.62143 0.37756,-0.37756 1.66575,1.30637 2.19548,2.12756 1.37244,2.12756 -0.20765,0 -0.99515,-0.7875 -1.75,-1.75 z m -473.46745,-6.5 -1.90499,-2.25 2.25,1.90499 c 1.2375,1.04774 2.25,2.06024 2.25,2.25 0,0.80025 -0.80479,0.20945 -2.59501,-1.90499 z M 799.627,462.42908 c 0.67834,-0.68342 1.48524,-0.99067 1.79313,-0.68278 0.30789,0.30789 -0.24711,0.86705 -1.23333,1.24258 -1.4252,0.54268 -1.54006,0.42782 -0.5598,-0.5598 z M 374.76611,440.80317 c -1.24387,-1.58606 -1.2085,-1.62143 0.37756,-0.37756 0.9625,0.75485 1.75,1.54235 1.75,1.75 0,0.82304 -0.82119,0.29331 -2.12756,-1.37244 z m 292.12756,-41.64301 c 0,-0.21616 0.69837,-0.661 1.55194,-0.98855 0.88992,-0.34149 1.29132,-0.17385 0.94098,0.39301 -0.58726,0.95021 -2.49292,1.40545 -2.49292,0.59554 z M 221.45796,375.8463 c -0.54268,-1.4252 -0.42782,-1.54006 0.5598,-0.5598 0.68342,0.67834 0.99067,1.48524 0.68278,1.79313 -0.30789,0.30789 -0.86705,-0.24711 -1.24258,-1.23333 z m 575.51466,-36.87646 c 0.048,-1.16495 0.28494,-1.4019 0.60416,-0.60417 0.28887,0.72187 0.25335,1.58438 -0.0789,1.91667 -0.33229,0.33229 -0.56864,-0.25834 -0.52522,-1.3125 z m -392.07895,-9.79423 c 0,-0.20765 0.7875,-0.99515 1.75,-1.75 1.58606,-1.24387 1.62143,-1.2085 0.37756,0.37756 -1.30637,1.66575 -2.12756,2.19548 -2.12756,1.37244 z m 152.40499,-44.87244 -1.90499,-2.25 2.25,1.90499 c 2.11444,1.79022 2.70524,2.59501 1.90499,2.59501 -0.18976,0 -1.20226,-1.0125 -2.25,-2.25 z m -80.53255,-0.5 c -1.24387,-1.58606 -1.2085,-1.62143 0.37756,-0.37756 1.66575,1.30637 2.19548,2.12756 1.37244,2.12756 -0.20765,0 -0.99515,-0.7875 -1.75,-1.75 z M 290.33098,242.78252 c 0.34132,-0.34131 1.32379,-0.72378 2.18327,-0.84993 0.85947,-0.12614 1.28342,0.0499 0.94211,0.39123 -0.34132,0.34131 -1.32379,0.72378 -2.18327,0.84993 -0.85947,0.12614 -1.28342,-0.0499 -0.94211,-0.39123 z m 179.06977,-1.2179 c -0.35034,-0.56686 0.0511,-0.7345 0.94098,-0.39301 1.73242,0.66479 2.04939,1.38156 0.61096,1.38156 -0.51754,0 -1.21592,-0.44485 -1.55194,-0.98855 z m 270.89791,-9.26145 -1.90499,-2.25 2.25,1.90499 c 2.11444,1.79022 2.70524,2.59501 1.90499,2.59501 -0.18976,0 -1.20226,-1.0125 -2.25,-2.25 z m -5.53255,-5.5 c -1.24387,-1.58606 -1.2085,-1.62143 0.37756,-0.37756 1.66575,1.30637 2.19548,2.12756 1.37244,2.12756 -0.20765,0 -0.99515,-0.7875 -1.75,-1.75 z m -354.67749,-27.75 c 0.0204,-1.65 0.2445,-2.20394 0.49804,-1.23097 0.25354,0.97297 0.23687,2.32297 -0.0371,3 -0.27393,0.67703 -0.48137,-0.11903 -0.46099,-1.76903 z"
         id="path174" />
      <path
         style="fill:#071032"
         d="m 311.39367,655.87845 c -7.73205,-1.71154 -26.5,-11.24983 -26.5,-13.46788 0,-0.47157 -0.66042,-0.8574 -1.46761,-0.8574 -1.66457,0 -8.29546,-8.49175 -11.3225,-14.5 -1.10839,-2.2 -3.22145,-5.125 -4.69569,-6.5 -4.93321,-4.60113 -11.49643,-16.35765 -12.632,-22.62738 -0.58501,-3.22994 -1.90858,-7.67262 -2.94126,-9.87262 -1.03268,-2.2 -2.3129,-6.78799 -2.84493,-10.19552 -0.53203,-3.40754 -1.44425,-7.08666 -2.02715,-8.17582 -0.5829,-1.08915 -1.99354,-6.8187 -3.13475,-12.73232 -2.3662,-12.26139 -4.00638,-15.97464 -10.32686,-23.37927 -7.14179,-8.36682 -14.79843,-29.42451 -17.15798,-47.18877 l -1.41747,-10.6717 3.12033,-6.66799 c 2.77526,-5.93061 3.05659,-7.3506 2.54392,-12.84063 -0.85615,-9.16825 -2.67356,-12.44492 -4.21276,-7.59533 -0.52031,1.63936 -0.93657,1.81605 -2.06739,0.87755 -1.65318,-1.37201 -1.98604,-7.4006 -0.35289,-6.39126 0.58466,0.36134 1.97156,-0.16523 3.08199,-1.17017 1.90254,-1.72177 2.07479,-1.72742 2.98668,-0.098 1.49723,2.67541 2.64493,2.09265 4.96451,-2.52081 3.59279,-7.14575 6.90381,-9.9034 6.90381,-5.74996 0,1.1 0.45,2 1,2 0.55,0 1,-0.45 1,-1 0,-1.81003 1.85175,-1.04245 2.51326,1.04179 0.45109,1.42125 1.20579,1.86477 2.48323,1.45932 1.00936,-0.32035 2.12761,-0.10933 2.485,0.46894 0.43273,0.70017 1.34763,0.56262 2.73876,-0.41177 1.45351,-1.01808 2.62828,-1.17453 3.86191,-0.51431 0.97513,0.52187 2.44956,0.68922 3.27652,0.37189 1.28885,-0.49458 1.34387,-0.0566 0.38527,3.06677 -1.03382,3.36848 -0.92176,3.80895 1.48333,5.83056 1.43089,1.20274 3.29923,3.59625 4.15187,5.3189 1.14728,2.31791 2.45799,3.30238 5.04222,3.78718 3.73298,0.70031 6.4748,3.48514 8.65407,8.7898 0.74359,1.81001 2.39617,4.83886 3.67241,6.73078 1.27623,1.89192 2.08476,4.05399 1.79672,4.8046 -0.75229,1.96042 3.47312,7.25555 5.78978,7.25555 1.07703,0 4.12313,2.025 6.7691,4.5 3.86785,3.61792 5.52016,4.5 8.42938,4.5 2.67551,0 4.18515,0.67887 5.79284,2.60498 3.25966,3.90528 4.82748,5.30563 8.67433,7.74775 8.4263,5.34933 9.30101,19.83127 1.82647,30.23938 -3.23994,4.51154 -3.33227,5.97064 -0.94337,14.90789 1.37183,5.13223 1.40668,16.9164 0.0643,21.75 -0.86421,3.11187 -1.48644,3.75 -3.65657,3.75 -2.374,0 -11.29085,4.40178 -11.29085,5.5737 0,0.26916 0.86285,3.0627 1.91745,6.20785 2.01719,6.01587 1.78112,11.21845 -0.50903,11.21845 -0.97242,0 -1.18994,0.84241 -0.76549,2.96463 0.32611,1.63055 0.29446,4.55555 -0.0703,6.5 -0.54754,2.91867 -1.09591,3.53537 -3.1436,3.53537 -2.42477,0 -2.44617,0.0661 -0.95469,2.95034 0.83912,1.62269 1.52568,3.87269 1.52568,5 0,1.77013 -0.6294,2.04966 -4.61501,2.04966 h -4.61501 l 1.65754,2.52973 c 1.6527,2.52234 1.64939,2.52791 -1.13499,1.91003 -2.71575,-0.60266 -2.68696,-0.52749 1.04709,2.73407 3.50762,3.06377 3.78133,3.66452 3.16543,6.94755 -0.64876,3.45819 -0.52738,3.65252 3.217,5.15073 4.81939,1.92834 6.63799,4.01816 5.79846,6.66325 -0.90225,2.84274 3.1644,6.645 8.61454,8.05447 2.40072,0.62086 6.38995,1.73028 8.86495,2.46539 l 4.5,1.33655 -4.5,-0.0119 c -2.475,-0.007 -5.4,-0.2111 -6.5,-0.4546 z m -38.5,-174.32528 c 0,-0.55 -0.45,-1 -1,-1 -0.55,0 -1,0.45 -1,1 0,0.55 0.45,1 1,1 0.55,0 1,-0.45 1,-1 z m 244.44192,141.46904 c -1.80029,-0.90244 -4.45659,-3.88478 -6.4583,-7.25099 -1.87013,-3.14493 -6.00649,-8.20295 -9.19192,-11.24006 -3.71839,-3.54524 -5.7917,-6.33108 -5.7917,-7.78211 0,-3.85431 -2.46512,-8.43857 -9.48541,-17.63949 -8.22568,-10.78073 -10.8003,-16.30005 -10.8003,-23.15298 0,-4.04011 0.57449,-5.91546 2.64285,-8.62723 3.28357,-4.30497 3.2813,-5.1006 -0.0321,-11.28414 -1.47121,-2.74562 -3.02786,-7.18497 -3.45921,-9.86521 -0.9301,-5.77919 -7.44092,-17.18913 -13.51257,-23.68021 l -4.26241,-4.55686 0.35247,-8.45889 c 0.19385,-4.65239 0.87776,-10.40971 1.5198,-12.79404 1.01045,-3.75253 0.93614,-4.59062 -0.5529,-6.23599 -2.08077,-2.29923 -5.6938,-2.46905 -7.45222,-0.35028 -2.42822,2.92583 -6.25761,1.36717 -8.59145,-3.49695 -4.24338,-8.84388 -7.7633,-9.6543 -16.27011,-3.74603 -4.46733,3.10272 -4.86342,3.18561 -14.09648,2.94996 -9.18763,-0.23449 -9.57078,-0.15576 -11.65266,2.39434 -1.27752,1.56485 -2.75607,2.40525 -3.63692,2.06724 -3.15347,-1.2101 -15.60547,-17.36358 -17.69985,-22.96131 -1.69424,-4.52827 -3.08847,-6.34459 -7.06083,-9.19845 -4.76436,-3.42288 -4.9497,-3.73774 -4.9497,-8.40847 0,-2.66885 -0.49946,-6.28521 -1.10992,-8.03637 -0.98308,-2.82005 -0.79506,-3.65971 1.64514,-7.3471 3.39864,-5.13569 4.13112,-10.93613 2.48364,-19.66749 l -1.26395,-6.69868 6.66582,-13.70105 c 6.06467,-12.46544 7.14452,-14.05469 11.97399,-17.62243 4.91449,-3.63054 5.35218,-4.29293 5.90151,-8.93118 0.85547,-7.22305 4.00679,-12.64919 9.73719,-16.76607 3.07005,-2.20561 4.96658,-4.32113 4.96658,-5.54007 0,-3.26662 -1.93031,-5.84045 -4.3802,-5.84045 -5.03274,0 -7.64916,-6.26294 -4.66278,-11.16131 1.42734,-2.34116 2.03662,-5.07025 2.03924,-9.13414 0.003,-4.81698 0.41816,-6.20987 2.45829,-8.25 2.23928,-2.23929 3.23707,-2.45455 11.37755,-2.45455 9.71525,0 10.56708,-0.41828 12.15948,-5.97063 1.30469,-4.54922 -0.20208,-7.61371 -4.42956,-9.0089 -1.95911,-0.64657 -3.56202,-1.52093 -3.56202,-1.94303 0,-1.57674 3.67733,-3.99104 9.25,-6.07296 7.63117,-2.85097 7.53167,-4.47561 -0.22445,-3.66494 -5.23403,0.54707 -6.10155,0.38697 -7,-1.2918 -1.70154,-3.17936 -1.18317,-5.28991 2.14183,-8.72044 l 3.16739,-3.26791 -2.41739,-0.91228 c -3.0698,-1.1585 -3.91738,-0.63641 -3.91738,2.41302 0,1.54886 -1.51286,3.91027 -4.13617,6.4561 -4.8695,4.72569 -8.34707,5.9291 -10.606,3.67017 -1.43053,-1.43053 -1.41282,-1.99205 0.19567,-6.2038 1.72763,-4.52375 8.05964,-10.4826 11.13904,-10.4826 0.80564,0 1.40829,-1.60081 1.59996,-4.25 0.25079,-3.46617 0.70321,-4.30641 2.45307,-4.55587 1.18006,-0.16822 2.93731,-1.18072 3.90499,-2.25 2.09076,-2.31026 5.71531,-2.53362 7.43765,-0.45833 0.67821,0.81719 1.31563,3.40469 1.41648,5.75 0.13814,3.21206 1.09778,5.4551 3.88935,9.0908 2.03828,2.65462 3.70596,5.46712 3.70596,6.25 0,2.60451 3.72465,1.47142 8.64112,-2.62874 2.67238,-2.22868 6.09638,-4.30993 7.60888,-4.625 2.28029,-0.47501 2.75605,-1.10662 2.78544,-3.69786 0.0195,-1.71875 0.67854,-4.25 1.46456,-5.625 1.90349,-3.32981 1.84569,-4 -0.34501,-4 -3.25592,0 -5.15499,-3.25245 -5.15499,-8.82874 0,-6.2952 1.06677,-7.52233 11.13285,-12.80635 4.64316,-2.43735 10.06977,-6.51 14.69176,-11.0261 6.79976,-6.64398 7.88327,-7.31022 15.00224,-9.22472 17.4333,-4.68832 28.32305,-4.85565 39.71791,-0.6103 3.32462,1.23864 8.49962,2.56315 11.5,2.94334 7.62736,0.9665 11.95524,2.46174 11.95524,4.13042 0,0.91777 1.07782,1.42245 3.03785,1.42245 2.71713,0 3.00746,-0.29033 2.75,-2.75 -0.27106,-2.58964 -0.0546,-2.75 3.71215,-2.75 3.68972,0 3.9739,0.19392 3.66354,2.5 -0.27209,2.02174 -0.0904,2.26087 0.95,1.25 0.70755,-0.6875 3.20029,-1.25 5.53941,-1.25 2.33912,0 5.29406,-0.47436 6.56653,-1.05414 1.45321,-0.66213 3.21436,-0.72092 4.7358,-0.15811 1.51326,0.55979 3.46978,0.50062 5.21384,-0.15769 2.00212,-0.75571 3.99913,-0.72269 7.06125,0.11677 3.77602,1.03518 4.58287,0.94406 6.97914,-0.78817 3.46601,-2.50553 4.63917,-2.46452 12.11993,0.42371 9.4866,3.66264 9.67056,3.70282 9.67056,2.11193 0,-0.79362 -1.35,-2.14105 -3,-2.9943 -1.65,-0.85325 -2.99189,-1.8773 -2.98197,-2.27568 0.0251,-1.00999 7.62753,-7.22432 8.83799,-7.22432 1.78669,0 7.14398,5.13961 7.14398,6.8537 0,0.92176 0.90222,3.35926 2.00493,5.41668 l 2.00492,3.74076 -2.00492,1.71667 c -1.10271,0.94417 -2.00493,2.29166 -2.00493,2.99443 0,2.1303 2.73213,1.43376 4.82817,-1.23092 1.9652,-2.49835 1.96506,-2.53166 -0.0346,-8.09281 -1.584,-4.40516 -1.74778,-5.82845 -0.77575,-6.74132 0.88791,-0.83386 1.34704,-0.84755 1.64325,-0.049 1.68866,4.55246 5.33894,5.4637 5.33894,1.33279 0,-2.47085 1.70769,-2.45253 5.5,0.059 3.95125,2.61681 6.87182,2.66077 3.75,0.0564 -1.2375,-1.03236 -2.25,-2.10988 -2.25,-2.39448 0,-0.2846 2.39214,-0.27056 5.31587,0.0312 3.82287,0.39456 6.1962,0.0934 8.45034,-1.07225 1.72396,-0.8915 4.03659,-1.6209 5.13918,-1.6209 1.10259,0 7.43173,3.62765 14.06477,8.06144 41.07603,27.4569 78.24595,69.35355 100.64132,113.43942 10.23676,20.15133 12.00968,24.84043 10.57911,27.98019 -0.94847,2.08165 -0.7832,3.47261 0.92401,7.77701 2.47818,6.24823 2.9457,13.75421 1.00272,16.09841 -2.47007,2.98012 -4.11732,0.15055 -4.11732,-7.07253 0,-5.51179 -0.28108,-6.54468 -1.89595,-6.96698 -1.44798,-0.37866 -2.05567,-1.77418 -2.57196,-5.90638 -0.46304,-3.70593 -1.12592,-5.41053 -2.10406,-5.41053 -0.78542,0 -1.42804,0.45 -1.42804,1 0,0.55 -0.62686,1 -1.39301,1 -1.55963,0 -2.60699,-2.11164 -2.60699,-5.2561 0,-2.05508 -0.0447,-2.05049 -2.5,0.2561 -4.29091,4.0311 -2.78028,8.42214 3.75183,10.90565 3.25756,1.23852 3.67309,4.72 1.08606,9.09949 -1.57563,2.66733 -1.55016,3.07393 0.48955,7.81538 2.82362,6.56367 5.1731,15.71526 5.17042,20.13958 -10e-4,1.96448 -1.28851,5.98765 -2.89254,9.0399 -1.58972,3.025 -3.45518,7.39646 -4.14547,9.71436 -1.62924,5.47079 -4.59292,8.15392 -10.05093,9.09951 -4.87946,0.84536 -4.88097,0.85028 -3.44666,11.18613 0.34677,2.49885 0.17657,5.16705 -0.38273,6 -0.88376,1.31617 -1.21881,1.28845 -2.73383,-0.22618 -1.39527,-1.39491 -1.68096,-3.266 -1.48869,-9.75 0.24803,-8.36459 -0.53762,-9.74561 -3.30031,-5.80131 -2.55057,3.64146 -1.86101,9.092 2.34381,18.52612 2.14528,4.81325 4.20406,10.20486 4.57506,11.98134 0.94356,4.51811 -1.28159,14.44586 -3.6021,16.07121 -1.03669,0.72613 -2.58535,2.67475 -3.44145,4.33029 -2.05539,3.97467 -3.45992,2.77271 -6.93246,-5.93267 -3.75594,-9.41582 -7.49956,-13.23035 -7.49956,-7.64162 0,1.40645 -0.47834,4.45684 -1.06298,6.77864 -0.9964,3.95707 -0.77719,4.85338 3.5,14.31085 2.50964,5.54917 4.56298,10.87189 4.56298,11.82828 0,0.95639 0.74894,4.84184 1.66431,8.63433 0.91536,3.79249 1.36812,7.19162 1.00613,7.55362 -0.87836,0.87835 -4.54299,-2.51577 -6.2221,-5.76279 -0.74079,-1.43254 -2.24098,-6.98122 -3.33374,-12.33041 -1.09277,-5.34918 -2.6906,-10.79983 -3.55073,-12.11256 -1.77919,-2.7154 -2.02654,-6.72412 -0.58149,-9.42421 0.65311,-1.22035 0.62396,-2.86375 -0.087,-4.90313 -0.58814,-1.68715 -1.60324,-7.88506 -2.25577,-13.77313 -1.29615,-11.69572 -2.69888,-13.85244 -5.16728,-7.94475 -2.68719,6.43137 -4.02244,4.63265 -5.05991,-6.81626 -0.53522,-5.90627 -1.38513,-8.69397 -4.05042,-13.2852 -1.8552,-3.19575 -3.86461,-7.04796 -4.46538,-8.56046 -1.28744,-3.24132 -2.43508,-3.48096 -3.86599,-0.80728 -0.72519,1.35503 -2.31459,2.03568 -5.25404,2.25 -4.19674,0.306 -4.23325,0.34321 -8.74547,8.91527 -2.49213,4.7344 -5.92336,9.77777 -7.62497,11.20749 -3.08871,2.59518 -3.09492,2.62102 -3.75188,15.60158 -0.76273,15.07023 -1.91828,21.34353 -4.80623,26.09238 -1.96984,3.23915 -2.13918,3.31292 -3.45964,1.50708 -0.76363,-1.04433 -1.38842,-3.5754 -1.38842,-5.6246 0,-2.31131 -1.28627,-6.15041 -3.38804,-10.11219 -5.27464,-9.94257 -13.61621,-35.4424 -14.31306,-43.75443 -0.50422,-6.01433 -0.84681,-7.0214 -2.19811,-6.46158 -4.58446,1.89928 -5.0747,1.71236 -7.07585,-2.69787 -1.08956,-2.40122 -1.9909,-5.29555 -2.00298,-6.43185 -0.0121,-1.1363 -1.48446,-3.38753 -3.27196,-5.00273 -1.7875,-1.61519 -4.42034,-4.49451 -5.85076,-6.39847 l -2.60076,-3.46174 -3.19567,2.68898 c -2.78856,2.34642 -3.79487,2.61562 -7.89924,2.11317 -11.21398,-1.3728 -13.95822,-2.82581 -17.40706,-9.2166 -1.68077,-3.1145 -5.00155,-4.2519 -6.29651,-2.15661 -0.33992,0.55 -1.67925,1 -2.97629,1 -3.10923,0 -13.96031,-10.40736 -16.03954,-15.38364 -1.07614,-2.57557 -2.10017,-3.64599 -3.27495,-3.42328 -2.96348,0.56179 -2.67591,5.42386 0.56644,9.57674 1.60178,2.0516 3.4244,5.23652 4.05027,7.0776 0.62587,1.84107 2.49608,4.89423 4.15601,6.78479 1.65993,1.89056 3.01806,4.09672 3.01806,4.90259 0,2.64499 3.16395,1.53654 7.23529,-2.5348 4.52863,-4.52863 5.37413,-4.80595 6.24895,-2.04965 0.34046,1.07269 2.13932,2.88994 3.99746,4.03834 4.31547,2.66711 9.5183,8.57219 9.5183,10.80303 0,2.65327 -8.57651,23.08267 -10.65545,25.38148 -1.0145,1.12179 -3.64455,2.95666 -5.84455,4.07749 -2.2,1.12084 -5.39248,3.09795 -7.09439,4.3936 -1.70192,1.29564 -4.09628,2.35571 -5.32081,2.35571 -1.22452,0 -5.1766,2.10521 -8.78238,4.67824 -5.30577,3.78612 -7.54456,4.76022 -11.74013,5.10815 -5.14877,0.42698 -5.18167,0.45136 -4.81901,3.57176 0.90763,7.80956 1.00199,7.9382 5.3172,7.24817 2.1792,-0.34847 6.96137,-2.22468 10.62705,-4.16937 3.85272,-2.04391 7.73743,-3.40945 9.20685,-3.23637 5.68591,0.66975 5.09988,12.66203 -1.30357,26.67574 -1.91596,4.19302 -3.77688,9.19868 -4.13535,11.12368 -0.89884,4.82669 -2.65487,7.30079 -7.80896,11.00218 -3.10912,2.23279 -5.8627,5.69954 -9.28336,11.68769 -2.67473,4.68234 -6.32564,10.76284 -8.11314,13.51222 -1.7875,2.74939 -3.24335,5.96617 -3.23522,7.1484 0.0319,4.64142 3.19804,15.33356 5.54607,18.72933 2.10591,3.04562 2.5539,5.07773 3.00211,13.61757 0.6593,12.56187 -0.76438,16.87068 -6.88832,20.84766 -9.28879,6.03228 -10.51994,9.01927 -6.67464,16.19377 2.75544,5.14105 2.5816,5.86894 -2.10876,8.82984 -3.60202,2.27385 -4.039,2.94256 -3.54311,5.42201 0.71969,3.59841 -2.86256,8.73097 -10.86738,15.57051 -5.65742,4.83387 -5.95238,4.95164 -13.8805,5.54227 -4.45514,0.3319 -9.22525,0.89484 -10.60025,1.25099 -1.48578,0.38485 -3.74063,0.0257 -5.55808,-0.8854 z m 28.53519,-121.94146 c 0.67209,-0.80982 1.2897,-2.94732 1.37244,-4.75 0.13172,-2.86954 -0.16079,-3.27758 -2.34955,-3.27758 -2.10458,0 -2.55069,0.52911 -2.82046,3.3452 -0.54147,5.65227 1.20524,7.80595 3.79757,4.68238 z m 27.49767,-79.27758 c -1.37417,-10.07657 -3.59357,-15.77098 -9.0703,-23.27201 -3.23046,-4.42449 -6.227,-9.92798 -7.3385,-13.47799 -1.03322,-3.3 -3.27039,-8.925 -4.97149,-12.5 -1.7011,-3.575 -3.09327,-7.08485 -3.0937,-7.79966 -0.002,-3.16628 -3.09818,-7.20034 -5.52647,-7.20034 -1.36088,0 -2.47432,0.4307 -2.47432,0.95711 0,1.43698 16.71667,43.35657 20.9615,52.56414 3.5433,7.68588 9.18371,15.47875 11.20337,15.47875 0.56674,0 0.69325,-1.939 0.30991,-4.75 z m -84.94894,-80.01531 c 0.56421,-0.40408 2.51452,-2.64719 4.33403,-4.98469 3.73427,-4.79738 6.05659,-5.28762 10.64013,-2.24611 2.28405,1.51563 4.52643,1.95984 9.39607,1.86134 5.45023,-0.11025 6.63441,0.18659 8.00776,2.00727 1.44707,1.91844 1.93873,2.0132 4.81409,0.92787 2.68631,-1.01397 3.78399,-0.93145 6.81093,0.512 1.98468,0.94642 4.07235,1.4341 4.63927,1.08373 0.56691,-0.35038 2.33565,-3.39533 3.93053,-6.76657 2.15223,-4.54938 2.89998,-7.61184 2.90056,-11.87953 4.3e-4,-3.1625 -0.17255,-5.75 -0.3844,-5.75 -0.21185,0 -1.84607,0.61425 -3.63159,1.36501 -2.22656,0.9362 -4.38311,1.10534 -6.86481,0.53842 -1.99013,-0.45463 -5.19341,-0.59629 -7.11841,-0.31481 -3.12038,0.45628 -4.06942,-0.019 -8.75,-4.38248 -5.13762,-4.78952 -5.25,-5.01534 -5.25,-10.55021 0,-6.39679 -1.21096,-7.18918 -4.93262,-3.22765 -2.14327,2.2814 -2.18405,2.56706 -0.67432,4.72251 2.46436,3.51836 1.95664,5.7348 -2.28536,9.9768 -4.93423,4.93423 -6.63416,4.35172 -8.71374,-2.98595 -2.57345,-9.08024 -8.39396,-17.8244 -8.39396,-12.61026 0,0.84227 -0.675,1.79041 -1.5,2.10699 -0.825,0.31659 -1.5,1.61566 -1.5,2.88683 0,3.62394 -1.05038,5.4748 -3.10699,5.4748 -1.3377,0 -1.89301,0.71242 -1.89301,2.42857 0,3.66143 -2.604,5.84099 -5.31945,4.45241 -4.84871,-2.47946 -7.3528,-8.30205 -4.1062,-9.54789 0.8659,-0.33227 3.34313,-0.0204 5.50497,0.69309 2.16184,0.71347 4.15541,1.07242 4.43016,0.79768 0.27474,-0.27475 -0.003,-1.9404 -0.61665,-3.70145 -0.82898,-2.37801 -2.43836,-3.8643 -6.25451,-5.77616 -6.50647,-3.25968 -8.38624,-4.93536 -10.76505,-9.59625 -1.05266,-2.0625 -2.46727,-3.73748 -3.14359,-3.72218 -0.67633,0.0153 -2.93645,1.3199 -5.0225,2.8991 -3.12854,2.36841 -4.47452,2.77984 -7.68519,2.3492 -3.69656,-0.49581 -3.96714,-0.34315 -5.37841,3.03449 -0.87021,2.0827 -2.78393,4.22773 -4.61798,5.17615 -4.99766,2.58439 -7.0256,5.17217 -7.0256,8.9651 0,4.00539 -4.94376,9.54382 -10.29966,11.53858 -6.79126,2.52935 -7.70034,2.99792 -7.70034,3.96907 0,0.55131 1.18049,1.29867 2.62331,1.66079 2.87257,0.72097 6.59191,-0.90521 17.09809,-7.47568 5.53122,-3.45918 7.13979,-3.95709 14.5,-4.48825 4.55323,-0.32859 9.71866,-0.88347 11.47873,-1.23308 2.85526,-0.56715 3.42063,-0.27397 5.24626,2.72053 2.46325,4.04036 2.71563,9.38816 0.48347,10.24472 -0.93998,0.3607 -1.44165,1.50376 -1.25,2.84809 0.23691,1.66178 2.1621,3.15779 7.40532,5.75447 3.89685,1.92989 8.62185,4.74141 10.5,6.24781 3.308,2.65324 7.3342,3.50438 9.44066,1.99578 z m -52.52584,-37.11225 c 0,-2.44497 2.60451,-4.76776 3.26763,-2.91418 0.56532,1.58023 -0.97807,4.79174 -2.30281,4.79174 -0.53065,0 -0.96482,-0.8449 -0.96482,-1.87756 z m 18.2,0.67756 c -2.51739,-2.51739 -0.56965,-8.8 2.72819,-8.8 3.20817,0 4.22375,5.7052 1.50038,8.42857 -1.88603,1.88603 -2.64711,1.95289 -4.22857,0.37143 z m 151.77804,7.45 c -0.0121,-2.0625 -0.96243,-5.775 -2.11189,-8.25 -1.14945,-2.475 -2.05386,-5.94699 -2.00978,-7.71553 0.0507,-2.03226 -0.58576,-3.6882 -1.72942,-4.5 -0.99525,-0.70646 -2.38873,-2.40947 -3.09661,-3.78447 -0.70788,-1.375 -2.41504,-3.42858 -3.79369,-4.56351 -2.20195,-1.81268 -2.35792,-2.34138 -1.28312,-4.34965 0.98181,-1.83454 1.74926,-2.15348 3.88499,-1.61454 4.91668,1.24069 7.59644,1.08037 7.89453,-0.4723 0.43142,-2.24719 -3.38531,-7.88444 -6.20941,-9.17118 -2.12125,-0.96651 -3.03786,-0.74446 -6.32201,1.53145 -2.93441,2.03355 -4.56185,2.51769 -6.89481,2.05109 -2.46218,-0.49243 -3.36885,-0.16089 -4.68029,1.71145 -2.19207,3.12963 -2.04668,6.6104 0.47586,11.392 2.44119,4.62739 6.75843,9.48519 8.42971,9.48519 0.63686,0 1.92401,0.84652 2.86034,1.88115 1.57163,1.73663 1.57755,2.00601 0.077,3.50654 -0.89397,0.89398 -2.49031,2.08829 -3.54743,2.65404 -2.75215,1.47291 -2.56525,7.00536 0.32849,9.72389 3.19707,3.00349 6.47793,4.09829 12.49949,4.17099 l 5.25001,0.0634 -0.022,-3.75 z M 485.89367,293.4348 c 0,-1.36992 -12.62607,-13.88163 -14.00851,-13.88163 -1.67092,0 -1.12938,1.57121 2.25851,6.55284 3.81795,5.61399 11.75,10.56142 11.75,7.32879 z m 48.20034,-1.50806 c 3.73999,-1.9024 7.20312,-1.71855 11.79966,0.62643 5.49018,2.80088 17,2.54056 17,-0.3845 0,-2.5712 -5.22491,-8.57031 -10.53278,-12.09347 -4.27966,-2.84068 -5.5229,-4.2011 -5.14831,-5.63354 0.79154,-3.02687 -0.9069,-2.1965 -4.31891,2.11151 -4.1323,5.21745 -6.06336,5.10758 -8.78774,-0.5 -3.08284,-6.34542 -5.60076,-6.12711 -8.65048,0.75 -1.28049,2.8875 -3.28073,6.10724 -4.44497,7.15499 -2.12327,1.9108 -2.57132,4.30073 -1.53193,8.17138 0.50084,1.8651 1.13536,2.03029 6.23635,1.62357 3.12332,-0.24904 6.89392,-1.0709 8.37911,-1.82637 z m -47.88524,-51.22335 c 1.5483,-0.63262 4.28958,-1.15022 6.09171,-1.15022 2.95133,0 3.39451,-0.39351 4.4642,-3.96382 1.35769,-4.53156 4.33052,-7.03618 8.3515,-7.03618 2.81009,0 3.68465,-1.32131 1.69036,-2.55385 -1.97026,-1.21769 0.60339,-2.48573 6.16371,-3.03687 7.63135,-0.75643 9.92342,-1.30685 9.92342,-2.38302 0,-1.84792 -6.8301,-2.22651 -12.13151,-0.67244 -3.67764,1.07807 -5.65884,1.23514 -6.52388,0.51722 -1.71874,-1.42643 -3.63784,-7.58756 -2.79048,-8.95862 0.75748,-1.22563 -1.52045,-0.70906 -7.30413,1.65634 -3.81218,1.55911 -4.07897,2.9394 -1.04325,5.39757 l 2.20675,1.78692 -3.70675,5.38203 c -2.03871,2.96012 -3.70675,5.96134 -3.70675,6.66938 0,1.64624 -9.65293,6.17273 -13.19098,6.18557 -1.48004,0.005 -2.9691,-0.44023 -3.30902,-0.99023 -1.10908,-1.79452 -2.5,-1.0527 -2.5,1.33333 0,1.28334 0.20222,2.53556 0.44939,2.78273 0.90695,0.90695 14.13633,0.14935 16.86571,-0.96584 z m -14.92516,-8.90022 c -0.96426,-4.09118 -2.16446,-4.93074 -3.85439,-2.69625 -1.94853,2.57641 -1.91197,2.78557 0.71445,4.08634 3.47843,1.72274 3.83628,1.56431 3.13994,-1.39009 z m 63.36507,-14.5 c -0.47669,-1.44743 -4.75501,-2.33478 -4.75501,-0.98622 0,1.42806 1.17454,2.23622 3.25,2.23622 1.08622,0 1.7383,-0.5416 1.50501,-1.25 z m -26.48714,-10.28605 c 4.61643,-3.13695 4.73315,-4.46395 0.39265,-4.46395 -2.60815,0 -3.59364,0.5578 -4.5,2.54705 -2.34909,5.15568 -1.34712,5.6233 4.10735,1.9169 z m 46.73213,-4.41191 c 0,-1.58509 -0.80168,-1.81133 -5.9919,-1.69098 -5.12002,0.11872 -5.99307,0.40936 -6,1.99735 -0.006,1.44024 0.50862,1.72872 2.28833,1.28204 1.26304,-0.317 3.62554,-0.20469 5.25,0.24959 3.52562,0.98594 4.45357,0.60298 4.45357,-1.838 z m 104,-2.35204 c 0,-1.95707 -2.13548,-3.7 -4.53333,-3.7 -3.22615,0 -3.62361,1.0463 -1.17415,3.09087 2.57344,2.14806 5.70748,2.48254 5.70748,0.60913 z m 12,-3.87126 c 0,-1.69255 -3.06757,-4.82874 -4.72308,-4.82874 -1.05679,0 -0.87447,0.75645 0.72308,3 2.19245,3.07901 4,3.90539 4,1.82874 z m 83.54293,422.92126 c 0.37273,-1.2375 1.92857,-3.6 3.45741,-5.25 2.25447,-2.43314 2.91347,-4.30784 3.48764,-9.9215 0.38937,-3.80682 1.31528,-8.30682 2.05758,-10 0.7423,-1.69317 1.62477,-5.20918 1.96104,-7.81334 0.80539,-6.23718 6.72509,-13.8354 13.42353,-17.22975 3.78232,-1.91665 5.16075,-3.28074 6.05581,-5.99281 0.63736,-1.93123 2.24452,-4.36532 3.57146,-5.40909 1.32695,-1.04378 3.30338,-3.97581 4.39208,-6.51564 1.95117,-4.5519 4.05052,-6.12467 4.05052,-3.03454 0,3.15226 2.53473,0.68856 4,-3.88791 0.825,-2.5767 2.025,-4.68728 2.66667,-4.69017 0.64166,-0.003 1.39364,-0.56775 1.67105,-1.25525 0.38274,-0.94854 0.52342,-0.95611 0.58333,-0.0314 0.0461,0.71173 0.76438,0.95559 1.72683,0.58626 1.39251,-0.53436 1.52882,-0.18082 0.87962,2.28139 -0.42254,1.60255 -0.85314,6.28873 -0.95688,10.41373 -0.16769,6.66749 -0.77704,8.83201 -5.48959,19.5 -4.76484,10.78638 -14.77217,29.94723 -17.39053,33.29733 -0.81839,1.04712 -1.16574,1.05175 -1.80092,0.024 -0.60308,-0.9758 -1.49047,-0.7532 -3.79778,0.95267 -1.65595,1.22429 -3.69765,2.22599 -4.53712,2.22599 -0.83947,0 -2.69755,1.76988 -4.12908,3.93306 -1.43152,2.16318 -3.93403,4.39713 -5.56113,4.96434 -1.62709,0.56721 -4.12292,1.94733 -5.54627,3.06694 -3.53778,2.78282 -5.64947,2.68804 -4.77527,-0.21434 z m -161.32042,-21.3067 c -1.42677,-0.99935 -2.22251,-2.59367 -2.22251,-4.45295 0,-1.59293 -0.52163,-4.04109 -1.15917,-5.44035 -0.88241,-1.93667 -0.87549,-3.49096 0.029,-6.5098 0.98466,-3.28652 0.91797,-4.61235 -0.3894,-7.74134 -2.22818,-5.33278 -1.23869,-7.95645 3.95176,-10.47817 3.45294,-1.67757 5.09343,-3.41815 7.74191,-8.21429 3.85595,-6.98277 6.04306,-8.02096 8.18235,-3.88403 3.44498,6.66186 2.86848,13.98861 -2.3824,30.27763 -0.97513,3.025 -2.07302,7.23778 -2.43977,9.36173 -0.73441,4.25326 -4.42297,8.63827 -7.2663,8.63827 -1.00262,0 -2.82308,-0.70052 -4.04545,-1.5567 z m 193.77749,-63.3025 c 0,-1.7055 1.18411,-4.1408 2.01337,-4.1408 1.00474,0 0.0525,3.84128 -1.13408,4.5746 -0.48361,0.29889 -0.87929,0.10368 -0.87929,-0.4338 z m 7.39957,-1.5967 c 1.15532,-4.60312 2.54925,-7.5441 3.57568,-7.5441 1.64194,0 1.18008,3.23297 -0.96429,6.75 -2.35462,3.86186 -3.46618,4.19988 -2.61139,0.7941 z m -21.36434,-4.00166 c -0.78945,-0.95122 -2.20031,-1.25942 -4.06136,-0.88721 -2.68353,0.5367 -3.03213,0.19514 -5.91178,-5.79245 -1.68305,-3.49953 -4.14628,-7.83357 -5.47385,-9.6312 -1.56173,-2.11471 -2.82265,-5.82107 -3.57213,-10.5 -1.66137,-10.37162 -2.78528,-13.51386 -7.1429,-19.97027 -3.67071,-5.43866 -4.97705,-9.76131 -2.94994,-9.76131 2.19543,0 7.07606,5.45111 10.49572,11.72251 2.03259,3.72762 4.68233,8.19035 5.88832,9.91718 1.20598,1.72682 2.9673,4.42682 3.91404,6 0.94675,1.57317 2.28723,3.63636 2.97884,4.58487 1.01413,1.39081 0.99754,2.35845 -0.0857,5 -2.45701,5.99157 -2.46344,8.3589 -0.0303,11.15725 1.78155,2.04896 3.19156,2.61819 6.48537,2.61819 4.98522,0 8.90055,2.61137 7.88465,5.25876 -0.83575,2.17792 -6.68337,2.37497 -8.41897,0.28368 z m 42.26529,-2.98419 c -0.92384,-1.05185 -0.93014,-2.07924 -0.0274,-4.47088 0.988,-2.6175 0.8768,-3.65351 -0.70799,-6.59629 -1.03404,-1.92009 -2.51178,-3.49108 -3.28387,-3.49108 -1.09146,0 -1.25761,-0.97493 -0.74672,-4.38177 0.41709,-2.78135 0.25685,-4.62913 -0.43873,-5.05901 -1.31359,-0.81185 -1.46433,-5.21343 -0.20519,-5.99162 0.48983,-0.30273 1.63987,0.59309 2.55563,1.99072 1.21892,1.86029 2.20531,2.36966 3.68156,1.90112 1.10909,-0.35202 3.16303,-0.35228 4.56431,-5.8e-4 2.37139,0.59518 2.50156,0.93028 1.88029,4.8403 -1.16906,7.35746 -4.88655,22.70226 -5.49038,22.6628 -0.32012,-0.0209 -1.1218,-0.65259 -1.78151,-1.40371 z m -20.8665,-11.05825 c -0.66663,-3.55344 -1.85616,-4.51905 -2.77174,-2.25 -1.00746,2.49675 -0.63298,-4.61576 0.42979,-8.16297 0.87855,-2.93234 1.56146,-3.62446 3.49277,-3.53992 3.31057,0.14492 3.78799,0.89979 2.28775,3.61724 -0.75811,1.3732 -1.16566,4.70505 -0.98901,8.08565 0.33471,6.40577 -1.37527,7.97644 -2.44956,2.25 z m -14.20865,-3.19899 c -2.93411,-0.57604 -4.83691,-3.56557 -6.23823,-9.80101 -1.2615,-5.61334 -0.48813,-13.49914 1.32413,-13.50164 1.67095,-0.002 8.68873,-7.65678 8.68873,-9.47701 0,-0.82742 0.9,-2.06646 2,-2.75342 1.1,-0.68696 2,-1.84536 2,-2.57422 0,-0.72886 0.51699,-2.29121 1.14888,-3.47189 1.05586,-1.9729 1.25107,-1.74495 2.41123,2.81574 0.88496,3.47883 0.94934,5.34096 0.21534,6.22852 -0.63555,0.76852 -0.79288,3.4285 -0.40034,6.76846 0.53403,4.5437 0.26408,6.23964 -1.54939,9.73392 -1.20785,2.32735 -2.69781,6.92972 -3.31103,10.2275 -1.14584,6.16211 -1.72897,6.70035 -6.28932,5.80505 z m 25.48559,-16.30101 c 0.31393,-1.925 1.20575,-4.625 1.98182,-6 l 1.41104,-2.5 -0.60599,2.88957 c -0.3333,1.58926 -1.22512,4.28926 -1.98183,6 l -1.37584,3.11043 z m -11.71096,-1 c 0,-2.50628 0.39798,-3 2.41821,-3 1.33002,0 3.13002,-0.27314 4,-0.60699 1.13198,-0.43438 1.58179,-0.0116 1.58179,1.48658 0,1.46088 -1.09463,2.55094 -3.62212,3.60699 -4.62529,1.93257 -4.37788,2.01658 -4.37788,-1.48658 z m 6.6456,-24.63099 c -3.19864,-3.79047 -2.95891,-5.91919 0.82877,-7.35927 1.3891,-0.52813 2.52563,-1.44793 2.52563,-2.04401 0,-0.59607 0.45,-0.80565 1,-0.46573 1.42918,0.88328 1.23798,9.81943 -0.25,11.68463 -1.09966,1.37844 -1.59331,1.16007 -4.1044,-1.81562 z m -100.19663,-2.83689 c -2.3547,-5.6356 -1.39931,-13.53212 1.63724,-13.53212 2.55947,0 4.94863,11.13967 3.3068,15.41821 -1.02594,2.67357 -3.42058,1.76004 -4.94404,-1.88609 z m 99.71111,-8.77204 c -1.44162,-1.44162 -1.47543,-4.77087 -0.0686,-6.76008 0.80257,-1.13483 1.1848,-1.19418 1.5701,-0.24377 0.78817,1.94417 2.33846,0.40927 2.33846,-2.31525 0,-2.79794 1.66611,-3.31456 2.22845,-0.69098 0.57972,2.70466 -0.31482,5.25 -1.84508,5.25 -0.80001,0 -1.38337,1.02935 -1.38337,2.44098 0,2.91186 -1.23701,3.92201 -2.83992,2.3191 z m -5.16008,-6.80974 c 0,-0.57731 0.71734,-2.43684 1.59408,-4.13228 1.66411,-3.21802 1.49829,-6.22359 -0.62781,-11.37955 -1.11511,-2.70421 -0.96201,-3.80911 1.3119,-9.46791 2.47288,-6.15394 2.60311,-6.29178 3.30442,-3.49756 0.40659,1.62 0.20194,4.88352 -0.4619,7.36552 -1.08018,4.03867 -1.00105,4.65989 0.84367,6.6235 2.33978,2.49058 2.64593,5.08977 0.688,5.8411 -0.7412,0.28443 -2.3185,2.58257 -3.50512,5.10699 -2.10765,4.48383 -3.14724,5.65322 -3.14724,3.54019 z m -573,-35.39132 c 0,-0.79254 0.45,-1.7191 1,-2.05902 0.55,-0.33992 1,0.30852 1,1.44098 0,1.13246 -0.45,2.05902 -1,2.05902 -0.55,0 -1,-0.64844 -1,-1.44098 z m 9.46835,-3.9585 c -1.72492,-1.26129 -1.77505,-1.65893 -0.5077,-4.02699 1.65055,-3.08409 5.82407,-4.52311 7.13137,-2.45888 1.74912,2.76187 1.03586,6.61782 -1.34202,7.25506 -3.06946,0.82259 -3.11353,0.81617 -5.28165,-0.76919 z m 10.53165,-1.0415 c 0,-2.66793 1.48734,-4.19754 2.49545,-2.56638 0.81265,1.31489 -0.3398,5.00736 -1.56284,5.00736 -0.51293,0 -0.93261,-1.09844 -0.93261,-2.44098 z m -18.69346,-7.62557 c -1.3578,-2.30483 -2.36544,-2.96027 -4.05654,-2.63867 -1.76111,0.3349 -2.24667,-0.0309 -2.23469,-1.68345 0.008,-1.16123 0.41515,-2.74287 0.90384,-3.51475 1.26606,-1.99974 10.00244,5.52406 10.04806,8.65342 0.0473,3.24789 -2.53255,2.79589 -4.66067,-0.81655 z m 571.69346,-0.16178 c 0,-4.67906 1.87504,-9.77167 3.59783,-9.77167 0.77119,0 1.40217,0.47573 1.40217,1.05718 0,2.75606 -2.37294,10.00745 -3.6111,11.03503 -1.13986,0.94599 -1.3889,0.5299 -1.3889,-2.32054 z m -570,-12.27167 c 0,-0.825 0.43588,-1.5 0.96862,-1.5 0.53273,0 0.70959,0.675 0.39301,1.5 -0.31659,0.825 -0.75246,1.5 -0.96862,1.5 -0.21615,0 -0.39301,-0.675 -0.39301,-1.5 z m -4.904,-5.55 c 0.0528,-2.4475 0.65645,-6.7 1.34144,-9.45 1.23045,-4.93977 1.23986,-4.8976 0.78077,3.5 -0.48282,8.83169 -2.29392,13.90942 -2.12221,5.95 z m 590.38571,-15.7 c -2.16248,-5.16793 -2.14015,-8.89501 0.0726,-12.12434 l 2.21916,-3.23866 1.61326,4.73464 c 2.08424,6.11692 2.12825,9.51321 0.11325,8.73999 -1.04085,-0.39941 -1.5,0.0693 -1.5,1.53138 0,2.55517 -1.50898,2.76908 -2.51829,0.35699 z m -586.84027,-2.22864 c 2.15407,-12.12687 9.94744,-28.86454 17.36185,-37.28776 4.31013,-4.89657 4.01352,-5.82789 -1.02609,-3.22181 -3.59078,1.85686 -3.71001,2.29272 3.66816,-13.40893 7.74567,-16.48374 28.35464,-50.13456 28.35464,-46.29814 0,2.55228 3.0965,1.00658 5.6187,-2.80472 1.45589,-2.2 3.005,-4 3.44247,-4 0.43747,0 1.34125,2.43914 2.00841,5.42032 0.87362,3.90374 1.75383,5.56174 3.14593,5.92579 1.0631,0.278 2.177,1.43886 2.47533,2.57968 0.29833,1.14081 1.16494,2.07421 1.92579,2.07421 2.05996,0 1.6838,2.09361 -1.11663,6.21481 -3.0215,4.44655 -3.20041,6.78519 -0.51905,6.78519 1.26332,0 2.20169,0.87952 2.59029,2.42783 1.30337,5.19301 -0.83137,6.97895 -10.80189,9.03693 -2.58921,0.53444 -2.67947,0.42903 -1.7426,-2.03511 0.54342,-1.42931 2.15247,-4.5857 3.57567,-7.0142 3.01299,-5.14128 2.03079,-5.74123 -2.16533,-1.32263 -4.4387,4.67405 -10.53373,9.3226 -9.83457,7.50062 1.11287,-2.90011 -2.56984,-3.08066 -5.38642,-0.26409 -2.92024,2.92025 -2.30712,4.96798 0.67849,2.26604 2.3296,-2.10826 3.43644,-0.76249 2.48633,3.02305 -0.55578,2.21439 -0.3902,2.5991 0.9048,2.10216 0.87178,-0.33453 1.76596,-0.071 1.98705,0.58558 0.29898,0.88792 0.82801,0.84215 2.06461,-0.17862 1.48792,-1.22824 1.66262,-1.04585 1.66262,1.73581 0,2.56577 -0.74176,3.58039 -4.25,5.8134 -2.3375,1.48783 -5.7125,4.05749 -7.5,5.71036 -3.10117,2.86759 -3.25,2.90464 -3.25,0.80904 0,-2.69148 -0.0446,-2.69241 -4.44958,-0.0934 -1.96014,1.15651 -3.75763,3.06901 -3.99441,4.25 -0.23679,1.18099 -0.68104,3.33978 -0.98724,4.79732 -0.37811,1.79989 -1.5261,2.98801 -3.57831,3.70341 -2.24321,0.78199 -3.5512,2.28896 -5.07751,5.84993 -1.13075,2.63812 -2.64175,5.47159 -3.35777,6.29659 -0.71602,0.825 -1.59557,3.14127 -1.95456,5.14728 -0.40608,2.26913 -2.84972,6.43363 -6.46713,11.02141 -3.19794,4.05577 -6.10592,8.0395 -6.46219,8.85272 -0.35627,0.81322 -0.36971,-0.0868 -0.0299,-2.00005 z m 59.04216,-115.39234 c 1.54902,-1.71547 2.9289,-3.30878 3.0664,-3.54069 0.1375,-0.23192 0.48759,-0.18407 0.77798,0.10632 1.2958,1.29579 -1.54898,5.57621 -4.01989,6.04855 l -2.64088,0.50484 z m 34.3164,-3.69641 c 0,-0.61091 -0.85196,-0.79698 -1.99215,-0.4351 -1.42121,0.45107 -2.7153,-0.17444 -4.51548,-2.18262 -2.23931,-2.49804 -2.47601,-3.49025 -2.10291,-8.81489 0.98049,-13.99287 2.458,-17.5 7.37252,-17.5 1.77742,0 2.29237,-0.41599 1.87176,-1.51208 -1.13667,-2.96211 29.45446,-26.08116 49.86626,-37.68611 4.4,-2.50158 12.23438,-6.67097 17.40974,-9.26533 8.1508,-4.08591 9.5288,-4.50424 10.29969,-3.12674 1.27394,2.27642 3.44606,1.9882 10.63036,-1.41053 6.7825,-3.20865 8.16021,-3.55276 8.16021,-2.03817 0,1.66412 -4.15254,4.91355 -7.10896,5.56289 -4.24566,0.93251 -13.1682,9.30822 -12.52718,11.75945 0.28241,1.07994 -0.26446,3.14547 -1.21527,4.59007 -0.95081,1.4446 -2.19078,3.49648 -2.75549,4.55972 -1.12606,2.12012 -2.37729,2.8858 -6.8931,4.21814 -2.49036,0.73476 -3.0527,1.47661 -3.31021,4.3669 -0.2568,2.88229 -1.12973,4.04138 -5.06985,6.73179 -2.61781,1.7875 -5.07465,3.25 -5.45966,3.25 -0.38502,0 -2.37858,1.05592 -4.43015,2.34648 -2.05157,1.29056 -5.50507,2.92932 -7.67444,3.64168 -2.16937,0.71236 -5.99437,3.19022 -8.5,5.50635 -2.54369,2.35131 -5.99508,4.48673 -7.81484,4.83515 -3.89431,0.74561 -9.24085,4.48159 -9.24085,6.45719 0,0.7759 -1.2892,2.61502 -2.86489,4.08694 -1.57569,1.47191 -3.82716,4.56241 -5.00326,6.86777 -2.42668,4.75668 -7.13185,8.18143 -7.13185,5.19105 z m 58,-45.50593 c 0,-0.93124 -0.68037,-1.44138 -1.66713,-1.25 -2.50877,0.48655 -2.85325,2.82332 -0.4162,2.82332 1.22833,0 2.08333,-0.64569 2.08333,-1.57332 z m -83.11082,38.82332 c 1.80338,-2.3375 3.4819,-4.25 3.73003,-4.25 0.97372,0 -1.58118,3.63064 -4.22223,6 -2.57312,2.30841 -2.5354,2.17431 0.4922,-1.75 z m 92.78929,-18.71438 c -0.84459,-0.84459 -2.48188,-1.53562 -3.63843,-1.53562 -2.90108,0 -3.59372,-2.50603 -1.55332,-5.62007 1.50692,-2.29986 2.16367,-2.53155 5.61272,-1.98002 2.52584,0.4039 5.18504,0.0902 7.52546,-0.88765 10.03061,-4.19106 14.02255,0.63429 4.45303,5.38271 -1.96786,0.97645 -5.21726,2.76557 -7.22088,3.97582 -3.27574,1.97863 -3.79775,2.04565 -5.17858,0.66483 z m 208.82153,-33.99272 c -1.65,-0.73105 -4.26287,-1.82919 -5.80639,-2.4403 -1.54351,-0.61111 -2.52227,-1.57081 -2.17503,-2.13267 0.34725,-0.56186 4.40249,-2.80476 9.01165,-4.98423 l 8.38029,-3.96266 12.54474,0.18634 c 6.89961,0.10248 12.54474,0.4922 12.54474,0.86603 0,2.19548 -3.46709,2.93428 -12.62003,2.68917 -8.35641,-0.22378 -10.38114,0.0385 -13.12997,1.70103 -3.66864,2.2188 -3.9331,3.12209 -1.65204,5.64264 3.23282,3.57222 -1.1429,5.07312 -7.09796,2.43465 z"
         id="path172" />
    </g>
  </g>
</svg>
